<svg width="24" height="24" viewBox="0 0 24 24" fill="none" xmlns="http://www.w3.org/2000/svg">
<path d="M9.14286 3.00375L13.4346 3.00093C14.3166 3.00036 15.1336 3.46457 15.5846 4.22252L22 15.0038M9.14286 3.00375L2.76176 13.724C2.2924 14.5125 2.29276 15.4948 2.76267 16.283L5.575 21M9.14286 3.00375L12.0004 8.53976M5.575 21H17.0106C17.892 21 18.7083 20.5358 19.159 19.7784L22 15.0038M5.575 21L8.66711 15.0038M22 15.0038L15.3336 15.0038M12.0004 8.53976L8.66711 15.0038M12.0004 8.53976L15.3336 15.0038M8.66711 15.0038H15.3336" stroke="white" stroke-width="1.5" stroke-linecap="round" stroke-linejoin="round"/>
</svg>
