<svg width="24" height="24" viewBox="0 0 24 24" fill="none" xmlns="http://www.w3.org/2000/svg">
<path d="M12.75 15V21.75C12.75 21.9489 12.671 22.1397 12.5303 22.2803C12.3897 22.421 12.1989 22.5 12 22.5C11.8011 22.5 11.6103 22.421 11.4697 22.2803C11.329 22.1397 11.25 21.9489 11.25 21.75V15C11.25 14.8011 11.329 14.6103 11.4697 14.4697C11.6103 14.329 11.8011 14.25 12 14.25C12.1989 14.25 12.3897 14.329 12.5303 14.4697C12.671 14.6103 12.75 14.8011 12.75 15ZM19.5 9H13.8103L17.7806 5.03062C17.9214 4.88989 18.0004 4.69902 18.0004 4.5C18.0004 4.30098 17.9214 4.11011 17.7806 3.96938C17.6399 3.82864 17.449 3.74958 17.25 3.74958C17.051 3.74958 16.8601 3.82864 16.7194 3.96938L12.75 7.93969V2.25C12.75 2.05109 12.671 1.86032 12.5303 1.71967C12.3897 1.57902 12.1989 1.5 12 1.5C11.8011 1.5 11.6103 1.57902 11.4697 1.71967C11.329 1.86032 11.25 2.05109 11.25 2.25V7.93969L7.28063 3.96938C7.13989 3.82864 6.94902 3.74958 6.75 3.74958C6.55098 3.74958 6.36011 3.82864 6.21937 3.96938C6.07864 4.11011 5.99958 4.30098 5.99958 4.5C5.99958 4.69902 6.07864 4.88989 6.21937 5.03062L10.1897 9H4.5C4.30109 9 4.11032 9.07902 3.96967 9.21967C3.82902 9.36032 3.75 9.55109 3.75 9.75C3.75 9.94891 3.82902 10.1397 3.96967 10.2803C4.11032 10.421 4.30109 10.5 4.5 10.5H10.1897L6.21937 14.4694C6.07864 14.6101 5.99958 14.801 5.99958 15C5.99958 15.199 6.07864 15.3899 6.21937 15.5306C6.36011 15.6714 6.55098 15.7504 6.75 15.7504C6.94902 15.7504 7.13989 15.6714 7.28063 15.5306L12 10.8103L16.7194 15.5306C16.7891 15.6003 16.8718 15.6556 16.9628 15.6933C17.0539 15.731 17.1515 15.7504 17.25 15.7504C17.3485 15.7504 17.4461 15.731 17.5372 15.6933C17.6282 15.6556 17.7109 15.6003 17.7806 15.5306C17.8503 15.4609 17.9056 15.3782 17.9433 15.2872C17.981 15.1961 18.0004 15.0985 18.0004 15C18.0004 14.9015 17.981 14.8039 17.9433 14.7128C17.9056 14.6218 17.8503 14.5391 17.7806 14.4694L13.8103 10.5H19.5C19.6989 10.5 19.8897 10.421 20.0303 10.2803C20.171 10.1397 20.25 9.94891 20.25 9.75C20.25 9.55109 20.171 9.36032 20.0303 9.21967C19.8897 9.07902 19.6989 9 19.5 9Z" fill="white"/>
</svg>
