<svg width="24" height="24" viewBox="0 0 24 24" fill="none" xmlns="http://www.w3.org/2000/svg">
<path d="M17.8421 3H6.15789C4.41384 3 3 4.41384 3 6.15789V17.8421C3 19.5862 4.41384 21 6.15789 21H17.8421C19.5862 21 21 19.5862 21 17.8421V6.15789C21 4.41384 19.5862 3 17.8421 3Z" stroke="white" stroke-width="1.5" stroke-linecap="round" stroke-linejoin="round"/>
<path d="M21.0008 15.3879V17.0226C20.8982 17.0325 20.7927 17.0376 20.6844 17.0376C18.7519 17.0376 17.6639 15.4279 17.617 13.4138C17.6156 13.3359 17.6161 13.2585 17.6179 13.1817C17.6189 13.1337 17.6208 13.0859 17.6232 13.0383C17.6245 13.0129 17.6257 12.989 17.6276 12.9624C17.6295 12.9357 17.6314 12.9091 17.6336 12.8824C17.7032 11.9931 17.9895 11.2018 18.462 10.6162C18.7555 10.2528 19.1083 9.97583 19.5083 9.79063C19.8596 9.61374 20.3534 9.51611 20.756 9.51611H20.7734C20.8497 9.51611 20.9254 9.51866 21.0008 9.52369V9.97346C20.9209 9.95154 20.8353 9.93978 20.7442 9.93827C19.9301 9.95506 19.4449 10.9302 19.3845 12.2813H21.0008V12.6621H19.348L19.3475 12.6624C19.273 13.9788 19.9935 15.0914 21.0008 15.3879Z" fill="white"/>
<path d="M17.6973 7.29992L17.7115 7.29681V7.18689H14.8127L12.1211 13.5131L9.42952 7.18689H6.30572V7.29681L6.31975 7.29992C6.84885 7.41934 7.11748 7.59744 7.11748 8.23975V15.7593C7.11748 16.4016 6.84782 16.5797 6.31871 16.6992L6.30469 16.7023V16.8125H8.42408V16.7026L8.41007 16.6995C7.88095 16.5801 7.61232 16.402 7.61232 15.7597V8.67593L11.07 16.8125H11.2661L14.8245 8.44902V15.9454C14.7792 16.4527 14.513 16.6093 14.0339 16.7175L14.0197 16.7208V16.8299H17.7115V16.7208L17.6973 16.7175C17.2177 16.6093 16.9451 16.4527 16.8998 15.9454L16.8974 8.23975H16.8998C16.8998 7.59744 17.1684 7.41934 17.6973 7.29992Z" fill="white"/>
</svg>
