<svg width="24" height="24" viewBox="0 0 24 24" fill="none" xmlns="http://www.w3.org/2000/svg">
<path d="M16 2.25C19.1756 2.25 21.75 4.82436 21.75 8V16C21.75 19.1756 19.1756 21.75 16 21.75H8C4.82436 21.75 2.25 19.1756 2.25 16V8C2.25 4.82436 4.82436 2.25 8 2.25H16ZM8 3.75C5.65279 3.75 3.75 5.65279 3.75 8V16C3.75 18.3472 5.65279 20.25 8 20.25H16C18.0655 20.25 19.7855 18.7763 20.1689 16.8232C18.559 16.562 17.6588 15.0688 17.6162 13.2412C17.6148 13.1633 17.6155 13.0856 17.6172 13.0088C17.6182 12.9611 17.6206 12.9136 17.623 12.8662C17.6243 12.8409 17.625 12.8166 17.627 12.79C17.6288 12.7634 17.6306 12.7365 17.6328 12.71C17.7024 11.8207 17.9894 11.0289 18.4619 10.4434C18.7554 10.0801 19.108 9.80331 19.5078 9.61816C19.7204 9.51116 19.9849 9.43263 20.25 9.3877V8C20.25 5.65279 18.3472 3.75 16 3.75H8ZM9.26367 7.01465C9.36392 7.01465 9.45489 7.07475 9.49414 7.16699L9.58789 7.38672L9.74609 7.75879L10.0635 8.50391L10.7754 10.1777L11.8906 12.7998C11.9769 13.0026 12.2653 13.0026 12.3516 12.7998L14.748 7.16699C14.7872 7.0749 14.8775 7.01484 14.9775 7.01465H16.6494C16.7875 7.01479 16.8996 7.12659 16.8994 7.26465L16.8975 8.06738L16.8994 15.7725V16.4072C16.8994 16.5453 16.7875 16.6572 16.6494 16.6572H15.0742C14.9363 16.6571 14.8242 16.5452 14.8242 16.4072V9.50293C14.8242 9.2307 14.4513 9.15478 14.3447 9.40527L11.3047 16.5498C11.2814 16.6045 11.2274 16.6396 11.168 16.6396C11.1085 16.6396 11.0545 16.6045 11.0312 16.5498L8.09277 9.63281C7.98618 9.38242 7.6123 9.45922 7.6123 9.73145V16.3926C7.6123 16.5291 7.50171 16.6394 7.36523 16.6396C7.22859 16.6396 7.11719 16.5292 7.11719 16.3926V7.26465C7.11719 7.12666 7.22923 7.01478 7.36719 7.01465H9.26367ZM19.584 12.4893C19.4514 12.4893 19.3408 12.5931 19.3428 12.7256C19.3558 13.5848 19.7087 14.3364 20.25 14.8008V12.4893H19.584ZM20.25 9.91406C19.7785 10.2094 19.4837 10.9233 19.4014 11.8477C19.3887 11.9895 19.5031 12.1084 19.6455 12.1084H20.25V9.91406Z" fill="white"/>
</svg>
