<svg width="24" height="24" viewBox="0 0 24 24" fill="none" xmlns="http://www.w3.org/2000/svg">
<path d="M16 2.25C19.1756 2.25 21.75 4.82436 21.75 8V16C21.75 16.1227 21.7439 16.2444 21.7363 16.3652C21.7443 16.409 21.75 16.4539 21.75 16.5C21.75 16.5971 21.7299 16.6892 21.6963 16.7744C21.318 19.5837 18.9129 21.75 16 21.75H8C4.82436 21.75 2.25 19.1756 2.25 16V8C2.25 4.82436 4.82436 2.25 8 2.25H16ZM8 3.75C5.65279 3.75 3.75 5.65279 3.75 8V16C3.75 18.3472 5.65279 20.25 8 20.25H16C17.9615 20.25 19.6109 18.9208 20.1006 17.1143C19.809 17.0359 19.4672 16.9113 19.1221 16.71C18.1395 16.1367 17.25 15.014 17.25 13C17.25 12.8033 17.258 12.6142 17.2744 12.4326C17.4346 10.66 18.3454 9.69597 19.2627 9.21191C19.6193 9.02373 19.9657 8.91405 20.25 8.84863V8C20.25 5.65279 18.3472 3.75 16 3.75H8ZM18.7568 13.25C18.8213 14.5574 19.3906 15.1307 19.8779 15.415C20.0024 15.4876 20.129 15.5429 20.25 15.5879V13.25H18.7568ZM20.25 10.4111C20.1565 10.4459 20.0596 10.4871 19.9629 10.5381C19.5887 10.7355 19.1741 11.0824 18.9395 11.75H20.25V10.4111Z" fill="white"/>
<path d="M7 11.25V7.5M7 11.25C7 7.5 11.5 7.5 11.5 11.25M7 11.25V16.5M11.5 11.25V16.5M11.5 11.25C11.5 7.5 16 7.5 16 11.25V16.5" stroke="white" stroke-width="1.5" stroke-linecap="round" stroke-linejoin="round"/>
</svg>
