<svg width="64" height="64" viewBox="0 0 64 64" fill="none" xmlns="http://www.w3.org/2000/svg">
<path d="M53.334 34.6667V44.0001C53.334 45.4728 52.1401 46.6667 50.6673 46.6667H40.0007C38.5279 46.6667 37.334 45.4728 37.334 44.0001V32.0001H50.6673C52.1401 32.0001 53.334 33.194 53.334 34.6667Z" fill="#0A1A1A"/>
<path d="M37.334 32.0001H50.6673C52.1401 32.0001 53.334 33.194 53.334 34.6667V44.0001C53.334 45.4728 52.1401 46.6667 50.6673 46.6667H40.0007C38.5279 46.6667 37.334 45.4728 37.334 44.0001V32.0001ZM37.334 32.0001C37.334 25.3334 40.0007 21.3334 48.0007 17.3334" stroke="#0A1A1A" stroke-width="4" stroke-linecap="round"/>
<path d="M26.666 34.6667V44.0001C26.666 45.4728 25.4721 46.6667 23.9993 46.6667H13.3327C11.8599 46.6667 10.666 45.4728 10.666 44.0001V32.0001H23.9993C25.4721 32.0001 26.666 33.194 26.666 34.6667Z" fill="#0A1A1A"/>
<path d="M10.666 32.0001H23.9993C25.4721 32.0001 26.666 33.194 26.666 34.6667V44.0001C26.666 45.4728 25.4721 46.6667 23.9993 46.6667H13.3327C11.8599 46.6667 10.666 45.4728 10.666 44.0001V32.0001ZM10.666 32.0001C10.666 25.3334 13.3327 21.3334 21.3327 17.3334" stroke="#0A1A1A" stroke-width="4" stroke-linecap="round"/>
</svg>
