<svg width="192" height="192" viewBox="0 0 192 192" fill="none" xmlns="http://www.w3.org/2000/svg">
<rect width="192" height="192" rx="40" fill="white"/>
<circle cx="95.0998" cy="96.1681" r="72.7013" fill="#F68997"/>
<path d="M105.476 130.133C105.072 129.433 104.533 128.819 103.892 128.327C103.25 127.835 102.518 127.473 101.737 127.264C100.956 127.055 100.141 127.002 99.3396 127.107C98.5378 127.213 97.7648 127.475 97.0644 127.879C96.3641 128.284 95.7503 128.822 95.258 129.464C94.7658 130.105 94.4047 130.837 94.1954 131.618C93.9861 132.399 93.9327 133.214 94.0382 134.016C94.1438 134.818 94.4062 135.591 94.8105 136.291" stroke="white" stroke-width="3.97275" stroke-linecap="round"/>
<path d="M94.8496 93.3872C94.8496 93.3872 101.317 103.432 107.165 108.132C108.907 109.532 111.351 110.671 113.893 111.576C118.781 113.315 121.048 119.641 117.593 123.511V123.511C116.42 124.824 114.762 125.613 113.01 125.442C109.401 125.09 102.89 123.806 97.4831 119.21C91.7667 114.351 87.0384 108.131 87.0384 108.131L94.8496 93.3872Z" fill="url(#paint0_linear_1387_14753)"/>
<mask id="mask0_1387_14753" style="mask-type:alpha" maskUnits="userSpaceOnUse" x="95" y="81" width="61" height="32">
<path d="M95.1017 81.6677C95.1017 85.6587 95.8878 89.6107 97.4151 93.298C98.9424 96.9853 101.181 100.336 104.003 103.158C106.825 105.98 110.176 108.218 113.863 109.746C117.55 111.273 121.502 112.059 125.493 112.059C129.484 112.059 133.436 111.273 137.124 109.746C140.811 108.218 144.161 105.98 146.983 103.158C149.805 100.336 152.044 96.9853 153.571 93.298C155.099 89.6107 155.885 85.6587 155.885 81.6677L125.493 81.6677H95.1017Z" fill="white"/>
</mask>
<g mask="url(#mask0_1387_14753)">
<path d="M155.322 82.037C155.322 86.0281 154.536 89.9801 153.009 93.6674C151.481 97.3547 149.243 100.705 146.421 103.527C143.599 106.349 140.248 108.588 136.561 110.115C132.874 111.642 128.922 112.429 124.931 112.429C120.94 112.429 116.988 111.642 113.3 110.115C109.613 108.588 106.263 106.349 103.441 103.527C100.618 100.705 98.3798 97.3547 96.8525 93.6674C95.3252 89.9801 94.5391 86.0281 94.5391 82.037L124.931 82.037H155.322Z" fill="white"/>
<path d="M84.3944 89.9686C84.3944 102.419 94.4872 112.512 106.937 112.512C119.388 112.512 129.48 102.419 129.48 89.9686C129.48 77.5184 119.388 67.4255 106.937 67.4255C94.4872 67.4255 84.3944 77.5184 84.3944 89.9686Z" fill="black"/>
</g>
<mask id="mask1_1387_14753" style="mask-type:alpha" maskUnits="userSpaceOnUse" x="34" y="81" width="62" height="32">
<path d="M34.3204 81.6672C34.3204 89.7275 37.5224 97.4577 43.2219 103.157C48.9214 108.857 56.6516 112.059 64.712 112.059C72.7723 112.059 80.5025 108.857 86.202 103.157C91.9016 97.4577 95.1035 89.7275 95.1035 81.6672L64.712 81.6672H34.3204Z" fill="white"/>
</mask>
<g mask="url(#mask1_1387_14753)">
<path d="M95.1014 81.6672C95.1014 85.6582 94.3153 89.6102 92.788 93.2975C91.2607 96.9848 89.0221 100.335 86.2 103.157C83.3778 105.979 80.0275 108.218 76.3402 109.745C72.653 111.273 68.701 112.059 64.7099 112.059C60.7188 112.059 56.7668 111.273 53.0796 109.745C49.3923 108.218 46.0419 105.979 43.2198 103.157C40.3977 100.335 38.1591 96.9848 36.6318 93.2975C35.1045 89.6102 34.3184 85.6582 34.3184 81.6672L64.7099 81.6672H95.1014Z" fill="white"/>
<path d="M23.5274 89.9686C23.5274 102.419 33.3679 112.512 45.5069 112.512C57.6458 112.512 67.4863 102.419 67.4863 89.9686C67.4863 77.5184 57.6458 67.4255 45.5069 67.4255C33.3679 67.4255 23.5274 77.5184 23.5274 89.9686Z" fill="black"/>
</g>
<path d="M112.979 32.2063L122.513 33.7954L132.048 35.3845" stroke="black" stroke-width="20.6583" stroke-linecap="round"/>
<path d="M53.3867 37.768L74.8396 31.4116" stroke="black" stroke-width="20.6583" stroke-linecap="round"/>
<mask id="mask2_1387_14753" style="mask-type:alpha" maskUnits="userSpaceOnUse" x="33" y="93" width="146" height="37">
<path fill-rule="evenodd" clip-rule="evenodd" d="M103.074 107.223C104.89 102.837 105.826 98.1355 105.826 93.3879H69.6735L33.5215 93.3879C33.5215 98.1355 34.4566 102.837 36.2734 107.223C38.0902 111.609 40.7531 115.594 44.1102 118.951C47.4672 122.308 51.4526 124.971 55.8387 126.788C60.2249 128.605 64.926 129.54 69.6735 129.54C74.4211 129.54 79.1221 128.605 83.5083 126.788C87.8945 124.971 91.8798 122.308 95.2368 118.951C98.5939 115.594 101.257 111.609 103.074 107.223ZM175.378 107.223C177.195 102.837 178.13 98.1355 178.13 93.3879H141.978L105.826 93.3879C105.826 98.1355 106.761 102.837 108.578 107.223C110.394 111.609 113.057 115.594 116.414 118.951C119.771 122.308 123.757 124.971 128.143 126.788C132.529 128.605 137.23 129.54 141.978 129.54C146.725 129.54 151.426 128.605 155.812 126.788C160.199 124.971 164.184 122.308 167.541 118.951C170.898 115.594 173.561 111.609 175.378 107.223Z" fill="#473A24"/>
</mask>
<g mask="url(#mask2_1387_14753)">
<path fill-rule="evenodd" clip-rule="evenodd" d="M103.074 107.223C104.89 102.837 105.826 98.1355 105.826 93.3879H69.6735L33.5215 93.3879C33.5215 98.1355 34.4566 102.837 36.2734 107.223C38.0902 111.609 40.7531 115.594 44.1102 118.951C47.4672 122.308 51.4526 124.971 55.8387 126.788C60.2249 128.605 64.926 129.54 69.6735 129.54C74.4211 129.54 79.1221 128.605 83.5083 126.788C87.8945 124.971 91.8798 122.308 95.2368 118.951C98.5939 115.594 101.257 111.609 103.074 107.223ZM175.378 107.223C177.195 102.837 178.13 98.1355 178.13 93.3879H141.978L105.826 93.3879C105.826 98.1355 106.761 102.837 108.578 107.223C110.394 111.609 113.057 115.594 116.414 118.951C119.771 122.308 123.757 124.971 128.143 126.788C132.529 128.605 137.23 129.54 141.978 129.54C146.725 129.54 151.426 128.605 155.812 126.788C160.199 124.971 164.184 122.308 167.541 118.951C170.898 115.594 173.561 111.609 175.378 107.223Z" fill="#473A24" fill-opacity="0.5"/>
<rect x="160.703" y="87.0312" width="9.24359" height="46.0839" transform="rotate(15.0552 160.703 87.0312)" fill="white" fill-opacity="0.25"/>
<rect x="150.371" y="87.0312" width="6.70765" height="46.0839" transform="rotate(15.0552 150.371 87.0312)" fill="white" fill-opacity="0.25"/>
<rect x="43.9023" y="88.6199" width="6.70765" height="46.0839" transform="rotate(15.0552 43.9023 88.6199)" fill="white" fill-opacity="0.25"/>
</g>
<defs>
<linearGradient id="paint0_linear_1387_14753" x1="119.218" y1="125.318" x2="90.6146" y2="100.289" gradientUnits="userSpaceOnUse">
<stop stop-color="#F05265"/>
<stop offset="1" stop-color="#F68997"/>
</linearGradient>
</defs>
</svg>
