<svg width="20" height="20" viewBox="0 0 20 20" fill="none" xmlns="http://www.w3.org/2000/svg">
<path d="M2.5 8.33398V15.834C2.5 16.7545 3.24619 17.5007 4.16667 17.5007H15.8333C16.7538 17.5007 17.5 16.7545 17.5 15.834V8.33398" stroke="#888888" stroke-width="1.25"/>
<path d="M12.3594 17.5007V12.5007C12.3594 11.5802 11.6132 10.834 10.6927 10.834H9.02604C8.10557 10.834 7.35938 11.5802 7.35938 12.5007V17.5007" stroke="#888888" stroke-width="1.25" stroke-miterlimit="16"/>
<path d="M18.1832 7.80348L16.7716 2.86264C16.7103 2.64799 16.5141 2.5 16.2908 2.5H12.918L13.3141 7.25315C13.327 7.40869 13.4116 7.5492 13.5457 7.62912C13.87 7.82249 14.5057 8.18083 15.0013 8.33333C15.8478 8.59378 17.0853 8.49985 17.79 8.41317C18.0831 8.37713 18.2644 8.08742 18.1832 7.80348Z" stroke="#888888" stroke-width="1.25"/>
<path d="M11.668 8.33333C12.1409 8.18782 12.7412 7.85491 13.0771 7.65672C13.2369 7.56238 13.325 7.38419 13.3096 7.1992L12.918 2.5H7.08464L6.69304 7.1992C6.67762 7.38419 6.76566 7.56238 6.92552 7.65672C7.26136 7.85491 7.86172 8.18782 8.33464 8.33333C9.57882 8.71616 10.4238 8.71616 11.668 8.33333Z" stroke="#888888" stroke-width="1.25"/>
<path d="M3.23102 2.86264L1.81935 7.80349C1.73823 8.08742 1.91947 8.37713 2.21256 8.41317C2.91727 8.49985 4.15484 8.59378 5.0013 8.33333C5.49695 8.18083 6.13256 7.82249 6.45695 7.62912C6.59103 7.5492 6.67558 7.40869 6.68854 7.25315L7.08464 2.5H3.71179C3.48855 2.5 3.29235 2.64799 3.23102 2.86264Z" stroke="#888888" stroke-width="1.25"/>
</svg>
