<svg width="32" height="32" viewBox="0 0 32 32" fill="none" xmlns="http://www.w3.org/2000/svg">
<path d="M26.0046 21.5062C24.7291 22.7155 22.945 23.3993 21.0125 23.4017C19.0786 23.4053 17.2932 22.7263 16.0177 21.5206C15.3942 20.9327 14.9372 20.2585 14.6532 19.5375C14.3756 18.8296 14.2698 18.0726 14.3408 17.3228C14.4092 16.591 14.6416 15.8796 15.025 15.2365C15.3981 14.6079 15.9106 14.0404 16.5431 13.5606C17.7825 12.6212 19.36 12.1137 21.0125 12.1113C22.6649 12.1089 24.2412 12.614 25.4818 13.5486C26.1131 14.0273 26.6256 14.5923 26.9974 15.2198C27.3808 15.8628 27.6145 16.573 27.6829 17.3048C27.7539 18.0558 27.6467 18.8116 27.3692 19.5207C27.0852 20.2405 26.6269 20.9159 26.0046 21.5062Z" fill="white"/>
<path d="M16.8882 17.4004C16.9463 16.4226 17.4627 15.56 18.2399 14.9494C19.0028 14.3483 20.0304 13.9824 21.1497 13.9824C22.2702 13.9836 23.2966 14.3495 24.0595 14.9494C24.8367 15.5612 25.3531 16.4226 25.4124 17.4004C25.4718 18.4057 25.0368 19.3403 24.2738 20.0325C23.4967 20.7367 22.389 21.1794 21.1497 21.1794C19.9104 21.1794 18.8014 20.7367 18.0243 20.0325C17.2626 19.3403 16.8288 18.4057 16.8882 17.4004Z" fill="#005385"/>
<path d="M10.0989 19.3792C10.1067 19.7607 10.2383 20.5045 10.4346 21.0864C10.849 22.3161 11.5512 23.4546 12.5298 24.4575C13.5342 25.4881 14.7683 26.3159 16.1961 26.9025C17.6975 27.5204 19.3228 27.8359 21.0101 27.8323C22.6974 27.8299 24.3228 27.5096 25.8229 26.8869C27.2494 26.2931 28.4835 25.4629 29.4866 24.43C30.4639 23.4222 31.1649 22.2825 31.5793 21.0528C31.7858 20.4398 31.9188 19.8075 31.973 19.1681C32.0246 18.5442 32.0027 17.9156 31.9085 17.2954C31.7226 16.0789 31.2694 14.9379 30.5723 13.8978C29.9333 12.9428 29.1122 12.1055 28.135 11.4L28.1363 11.3988L18.2759 4.36381C18.2681 4.35781 18.2591 4.35061 18.2513 4.34462C17.602 3.88393 16.515 3.88513 15.8037 4.34821C15.0833 4.8161 15.002 5.5899 15.641 6.07818L15.6384 6.07938L19.7514 9.18899L7.21231 9.20099H7.19553C6.16018 9.20219 5.16355 9.83443 4.96604 10.6322C4.76465 11.4456 5.46822 12.1199 6.54618 12.1247L6.54489 12.1283L12.9003 12.1163L1.55918 20.2058C1.54498 20.2166 1.52949 20.2262 1.51658 20.2358C0.44766 20.9964 0.101682 22.2633 0.774274 23.0647C1.45849 23.8793 2.91211 23.8805 3.99394 23.0683L10.1828 18.3619C10.1828 18.3619 10.0925 18.9977 10.0989 19.3792ZM26.0036 21.5063C24.7281 22.7156 22.944 23.3994 21.0114 23.4018C19.0776 23.4054 17.2922 22.7264 16.0167 21.5207C15.3932 20.9328 14.9362 20.2586 14.6521 19.5376C14.3746 18.8298 14.2687 18.0728 14.3397 17.3229C14.4081 16.5911 14.6405 15.8797 15.0239 15.2367C15.397 14.608 15.9095 14.0406 16.5421 13.5607C17.7814 12.6213 19.359 12.1139 21.0114 12.1115C22.6639 12.1091 24.2401 12.6141 25.4807 13.5487C26.112 14.0274 26.6245 14.5924 26.9963 15.2199C27.3798 15.8629 27.6134 16.5731 27.6818 17.3049C27.7528 18.056 27.6457 18.8118 27.3681 19.5208C27.0841 20.2406 26.6258 20.916 26.0036 21.5063Z" fill="#FF7021"/>
</svg>
