<svg width="32" height="32" viewBox="0 0 32 32" fill="none" xmlns="http://www.w3.org/2000/svg">
<path fill-rule="evenodd" clip-rule="evenodd" d="M2.5 3.721C2.5 4.671 3.279 5.4415 4.2395 5.4415H18.655C20.298 5.4415 21.651 5.9435 22.714 6.9475C23.777 7.9515 24.3085 9.242 24.3085 10.8195C24.3085 12.2775 23.777 13.4725 22.7135 14.4045C21.651 15.313 20.298 15.767 18.655 15.767H12.39C11.429 15.767 10.65 16.537 10.65 17.488C10.65 18.438 11.429 19.2085 12.39 19.2085H19.308L25.541 29.1035C25.9275 29.7015 26.471 30 27.1715 30C27.945 30 28.4885 29.7015 28.8025 29.1035C29.1165 28.4825 29.056 27.825 28.6215 27.132L23.0765 18.312C24.5745 17.643 25.7585 16.663 26.628 15.3725C27.498 14.058 27.933 12.5405 27.933 10.8195C27.933 9.0745 27.534 7.545 26.737 6.2305C25.964 4.9155 24.877 3.888 23.4755 3.147C22.074 2.382 20.4675 2 18.655 2H4.24C3.279 2 2.5 2.77 2.5 3.721Z" fill="black"/>
</svg>
