<svg width="32" height="32" viewBox="0 0 32 32" fill="none" xmlns="http://www.w3.org/2000/svg">
<path d="M11.5607 29.6905C14.0634 29.6905 16.0824 27.6716 16.0824 25.1689V20.6472H11.5607C9.05804 20.6472 7.03906 22.6662 7.03906 25.1689C7.03906 27.6716 9.05804 29.6905 11.5607 29.6905Z" fill="white"/>
<path d="M7.03906 16.1255C7.03906 13.6229 9.05804 11.6039 11.5607 11.6039H16.0824V20.6472H11.5607C9.05804 20.6472 7.03906 18.6282 7.03906 16.1255Z" fill="white"/>
<path d="M7.03906 7.08221C7.03906 4.57952 9.05804 2.56055 11.5607 2.56055H16.0824V11.6039H11.5607C9.05804 11.6039 7.03906 9.5849 7.03906 7.08221Z" fill="white"/>
<path d="M16.082 2.56055H20.6037C23.1064 2.56055 25.1253 4.57952 25.1253 7.08221C25.1253 9.5849 23.1064 11.6039 20.6037 11.6039H16.082V2.56055Z" fill="white"/>
<path d="M25.1253 16.1255C25.1253 18.6282 23.1064 20.6472 20.6037 20.6472C18.101 20.6472 16.082 18.6282 16.082 16.1255C16.082 13.6229 18.101 11.6039 20.6037 11.6039C23.1064 11.6039 25.1253 13.6229 25.1253 16.1255Z" fill="white"/>
<path d="M26.2453 16.1255C26.2453 14.2728 25.3573 12.6317 23.9826 11.6039C25.3573 10.576 26.2453 8.93497 26.2453 7.08221C26.2453 3.96096 23.7249 1.44055 20.6037 1.44055H17.2024H16.0824H16.082H14.962H11.5607C8.43948 1.44055 5.91906 3.96096 5.91906 7.08221C5.91906 8.93497 6.80715 10.576 8.18182 11.6039C6.80715 12.6317 5.91906 14.2728 5.91906 16.1255C5.91906 17.9783 6.80715 19.6194 8.18182 20.6472C6.80715 21.6751 5.91906 23.3161 5.91906 25.1689C5.91906 28.2901 8.43948 30.8105 11.5607 30.8105C14.682 30.8105 17.2024 28.2901 17.2024 25.1689V21.7672V20.6472V20.6304C18.1474 21.3443 19.3251 21.7672 20.6037 21.7672C23.7249 21.7672 26.2453 19.2468 26.2453 16.1255Z" stroke="white" stroke-width="2.24"/>
<path d="M11.5607 29.6908C14.0634 29.6908 16.0824 27.6718 16.0824 25.1691V20.6475H11.5607C9.05804 20.6475 7.03906 22.6664 7.03906 25.1691C7.03906 27.6718 9.05804 29.6908 11.5607 29.6908Z" fill="#0ACF83"/>
<path d="M7.03711 16.1252C7.03711 13.6225 9.05609 11.6035 11.5588 11.6035H16.0804V20.6468H11.5588C9.05609 20.6468 7.03711 18.6279 7.03711 16.1252Z" fill="#A259FF"/>
<path d="M7.03711 7.08221C7.03711 4.57952 9.05609 2.56055 11.5588 2.56055H16.0804V11.6039H11.5588C9.05609 11.6039 7.03711 9.5849 7.03711 7.08221Z" fill="#F24E1E"/>
<path d="M16.0781 2.56055H20.5998C23.1025 2.56055 25.1215 4.57952 25.1215 7.08221C25.1215 9.5849 23.1025 11.6039 20.5998 11.6039H16.0781V2.56055Z" fill="#FF7262"/>
<path d="M25.1215 16.1262C25.1215 18.6288 23.1025 20.6478 20.5998 20.6478C18.0971 20.6478 16.0781 18.6288 16.0781 16.1262C16.0781 13.6235 18.0971 11.6045 20.5998 11.6045C23.1025 11.6045 25.1215 13.6235 25.1215 16.1262Z" fill="#1ABCFE"/>
</svg>
