<svg width="24" height="24" viewBox="0 0 24 24" fill="none" xmlns="http://www.w3.org/2000/svg">
<g clip-path="url(#clip0_867_2341)">
<path d="M21.75 0.562587H2.25C1.80756 0.558084 1.3814 0.729282 1.06504 1.03862C0.74867 1.34795 0.56794 1.77016 0.5625 2.21259V21.7913C0.568923 22.2331 0.750087 22.6544 1.06634 22.9629C1.3826 23.2714 1.8082 23.4421 2.25 23.4376H21.75C22.1925 23.4411 22.6183 23.2693 22.9345 22.9598C23.2507 22.6503 23.4316 22.2282 23.4375 21.7857V2.20696C23.4296 1.76583 23.2479 1.34564 22.9319 1.03772C22.6159 0.729808 22.1912 0.559058 21.75 0.562587Z" fill="#43E660"/>
<path d="M12.6733 7.902L15.3433 5.15733L16.8933 6.744L14.0933 9.414H18.032V11.6173H14.074L16.8933 14.356L15.3433 15.912L11.5167 12.066L7.68933 15.912L6.13933 14.362L8.95867 11.6233H5V9.414H8.93933L6.13933 6.74467L7.68867 5.15733L10.3587 7.902V4H12.6733V7.902ZM10.3587 14.7727H12.6733V20H10.3587V14.7727Z" fill="black"/>
</g>
<defs>
<clipPath id="clip0_867_2341">
<rect width="24" height="24" fill="white"/>
</clipPath>
</defs>
</svg>
