<svg width="32" height="32" viewBox="0 0 32 32" fill="none" xmlns="http://www.w3.org/2000/svg">
<mask id="mask0_839_1731" style="mask-type:luminance" maskUnits="userSpaceOnUse" x="1" y="1" width="30" height="30">
<path d="M30.2188 1H1.5V31H30.2188V1Z" fill="white"/>
</mask>
<g mask="url(#mask0_839_1731)">
<path d="M3.3053 2.29042L19.9061 1.06922C21.9444 0.894189 22.4695 1.01221 23.7507 1.94236L29.0496 5.66698C29.9237 6.30709 30.2158 6.48212 30.2158 7.18024V27.6076C30.2158 28.8879 29.7487 29.645 28.1184 29.761L8.84122 30.9242C7.61702 30.9822 7.03492 30.8082 6.39382 29.993L2.49016 24.9292C1.79005 23.998 1.5 23.3009 1.5 22.4848V4.32676C1.5 3.28059 1.96608 2.40644 3.3053 2.29142V2.29042Z" fill="white"/>
<path fill-rule="evenodd" clip-rule="evenodd" d="M19.9061 1.06824L3.3053 2.29145C1.96608 2.40646 1.5 3.28061 1.5 4.32678V22.4848C1.5 23.3009 1.79005 23.9981 2.49016 24.9292L6.39282 29.9931C7.03292 30.8082 7.61602 30.9832 8.84022 30.9232L28.1184 29.76C29.7487 29.644 30.2158 28.8869 30.2158 27.6067V7.17926C30.2158 6.51715 29.9537 6.32612 29.1816 5.76302C29.1376 5.73073 29.0936 5.69839 29.0496 5.66601L23.7507 1.94139C22.4695 1.01123 21.9434 0.893213 19.9061 1.06824ZM9.2773 6.8442C7.70303 6.95022 7.34597 6.97423 6.45182 6.24811L4.17845 4.4438C3.94641 4.21077 4.06343 3.91972 4.64552 3.86271L20.6052 2.69851C21.9444 2.58149 22.6435 3.04857 23.1676 3.45464L25.9051 5.43397C26.0211 5.49198 26.3121 5.84104 25.9631 5.84104L9.48033 6.8312L9.2773 6.8442ZM7.44099 27.4316V10.0887C7.44099 9.33262 7.67403 8.98356 8.37315 8.92455L27.3023 7.81937C27.9444 7.76136 28.2355 8.16943 28.2355 8.92455V26.1504C28.2355 26.9085 28.1184 27.5487 27.0693 27.6067L8.95624 28.6548C7.90607 28.7128 7.44099 28.3648 7.44099 27.4316ZM25.324 11.0189C25.44 11.544 25.324 12.0681 24.7979 12.1271L23.9257 12.3011V25.1032C23.1676 25.5113 22.4685 25.7434 21.8864 25.7434C20.9542 25.7434 20.7212 25.4533 20.0221 24.5802L14.3141 15.6187V24.2901L16.1204 24.6972C16.1204 24.6972 16.1204 25.7444 14.6622 25.7444L10.6445 25.9774C10.5275 25.7444 10.6445 25.1623 11.0526 25.0462L12.1008 24.7562V13.2893L10.6445 13.1723C10.5285 12.6482 10.8186 11.892 11.6347 11.834L15.9454 11.544L21.8864 20.6225V12.5912L20.3721 12.4171C20.2551 11.776 20.7212 11.3099 21.3033 11.2529L25.324 11.0189Z" fill="black"/>
</g>
</svg>
