<svg width="200" height="200" viewBox="0 0 200 200" fill="none" xmlns="http://www.w3.org/2000/svg">
<rect width="200" height="200" fill="url(#paint0_linear_1380_1865)"/>
<circle cx="96.2219" cy="100.222" r="60.2219" fill="#F68997"/>
<path d="M105.298 128.712C104.79 127.83 104.112 127.058 103.305 126.438C102.497 125.819 101.576 125.364 100.593 125.101C99.6095 124.837 98.5842 124.77 97.5751 124.903C96.5661 125.036 95.5931 125.366 94.7117 125.875C93.8303 126.384 93.0578 127.061 92.4382 127.869C91.8186 128.676 91.3642 129.598 91.1008 130.581C90.8374 131.564 90.7702 132.589 90.903 133.598C91.0358 134.607 91.3661 135.58 91.875 136.462" stroke="white" stroke-width="4" stroke-linecap="round"/>
<path d="M96.0156 97.9185C96.0156 97.9185 101.373 106.239 106.217 110.132C107.66 111.292 109.684 112.236 111.79 112.985C115.839 114.426 117.717 119.666 114.855 122.871V122.871C113.884 123.959 112.51 124.612 111.058 124.471C108.07 124.18 102.676 123.116 98.1971 119.309C93.4619 115.284 89.5452 110.132 89.5452 110.132L96.0156 97.9185Z" fill="url(#paint1_linear_1380_1865)"/>
<mask id="mask0_1380_1865" style="mask-type:alpha" maskUnits="userSpaceOnUse" x="96" y="88" width="51" height="26">
<path d="M96.2208 88.2106C96.2208 94.8874 98.8732 101.291 103.594 106.012C108.316 110.733 114.719 113.385 121.396 113.385C128.072 113.385 134.476 110.733 139.197 106.012C143.918 101.291 146.57 94.8874 146.57 88.2106L121.396 88.2106H96.2208Z" fill="white"/>
</mask>
<g mask="url(#mask0_1380_1865)">
<path d="M146.242 88.2106C146.242 91.5166 145.591 94.7903 144.326 97.8446C143.061 100.899 141.206 103.674 138.869 106.012C136.531 108.35 133.756 110.204 130.701 111.469C127.647 112.734 124.373 113.385 121.067 113.385C117.761 113.385 114.488 112.734 111.433 111.469C108.379 110.204 105.604 108.35 103.266 106.012C100.928 103.674 99.074 100.899 97.8089 97.8446C96.5437 94.7902 95.8926 91.5166 95.8926 88.2106L121.067 88.2106H146.242Z" fill="white"/>
<path d="M118 100C118 110.493 126.507 119 137 119C147.493 119 156 110.493 156 100C156 89.5066 147.493 81 137 81C126.507 81 118 89.5066 118 100Z" fill="black"/>
</g>
<mask id="mask1_1380_1865" style="mask-type:alpha" maskUnits="userSpaceOnUse" x="45" y="88" width="52" height="26">
<path d="M45.8712 88.2106C45.8712 94.8874 48.5235 101.291 53.2447 106.012C57.9659 110.733 64.3692 113.385 71.046 113.385C77.7227 113.385 84.126 110.733 88.8472 106.012C93.5684 101.291 96.2207 94.8874 96.2207 88.2106L71.046 88.2106H45.8712Z" fill="white"/>
</mask>
<g mask="url(#mask1_1380_1865)">
<path d="M96.2206 88.2106C96.2206 91.5166 95.5694 94.7903 94.3043 97.8446C93.0391 100.899 91.1848 103.674 88.8471 106.012C86.5094 108.35 83.7341 110.204 80.6798 111.469C77.6255 112.734 74.3518 113.385 71.0458 113.385C67.7398 113.385 64.4662 112.734 61.4119 111.469C58.3575 110.204 55.5823 108.35 53.2446 106.012C50.9069 103.674 49.0526 100.899 47.7874 97.8446C46.5223 94.7902 45.8711 91.5166 45.8711 88.2106L71.0458 88.2106H96.2206Z" fill="white"/>
<path d="M67 100C67 110.493 75.5066 119 86 119C96.4934 119 105 110.493 105 100C105 89.5066 96.4934 81 86 81C75.5066 81 67 89.5066 67 100Z" fill="black"/>
</g>
<path d="M111.029 47.24L118.927 48.5563L126.825 49.8726" stroke="black" stroke-width="17.1122" stroke-linecap="round"/>
<path d="M61.668 51.8471L79.4384 46.5818" stroke="black" stroke-width="17.1122" stroke-linecap="round"/>
<mask id="mask2_1380_1865" style="mask-type:alpha" maskUnits="userSpaceOnUse" x="45" y="97" width="120" height="31">
<path fill-rule="evenodd" clip-rule="evenodd" d="M102.826 109.378C104.331 105.745 105.106 101.851 105.106 97.9182C105.106 101.851 105.88 105.745 107.385 109.378C108.89 113.011 111.096 116.313 113.877 119.094C116.658 121.874 119.959 124.08 123.592 125.585C127.225 127.09 131.12 127.865 135.052 127.865C138.985 127.865 142.879 127.09 146.512 125.585C150.145 124.08 153.447 121.874 156.228 119.094C159.008 116.313 161.214 113.011 162.719 109.378C164.224 105.745 164.999 101.851 164.999 97.9182H135.052H105.106H75.1593L45.2129 97.9182C45.2129 101.851 45.9875 105.745 47.4924 109.378C48.9974 113.011 51.2032 116.313 53.984 119.094C56.7648 121.874 60.066 124.08 63.6993 125.585C67.3326 127.09 71.2267 127.865 75.1593 127.865C79.0919 127.865 82.9861 127.09 86.6193 125.585C90.2526 124.08 93.5539 121.874 96.3346 119.094C99.1154 116.313 101.321 113.011 102.826 109.378Z" fill="#473A24"/>
</mask>
<g mask="url(#mask2_1380_1865)">
<path fill-rule="evenodd" clip-rule="evenodd" d="M102.826 109.378C104.331 105.745 105.106 101.851 105.106 97.9182C105.106 101.851 105.88 105.745 107.385 109.378C108.89 113.011 111.096 116.313 113.877 119.094C116.658 121.874 119.959 124.08 123.592 125.585C127.225 127.09 131.12 127.865 135.052 127.865C138.985 127.865 142.879 127.09 146.512 125.585C150.145 124.08 153.447 121.874 156.228 119.094C159.008 116.313 161.214 113.011 162.719 109.378C164.224 105.745 164.999 101.851 164.999 97.9182H135.052H105.106H75.1593L45.2129 97.9182C45.2129 101.851 45.9875 105.745 47.4924 109.378C48.9974 113.011 51.2032 116.313 53.984 119.094C56.7648 121.874 60.066 124.08 63.6993 125.585C67.3326 127.09 71.2267 127.865 75.1593 127.865C79.0919 127.865 82.9861 127.09 86.6193 125.585C90.2526 124.08 93.5539 121.874 96.3346 119.094C99.1154 116.313 101.321 113.011 102.826 109.378Z" fill="#473A24" fill-opacity="0.5"/>
<rect x="150.562" y="92.6531" width="7.6569" height="38.1735" transform="rotate(15.0552 150.562 92.6531)" fill="white" fill-opacity="0.25"/>
<rect x="142.008" y="92.6531" width="5.55627" height="38.1735" transform="rotate(15.0552 142.008 92.6531)" fill="white" fill-opacity="0.25"/>
<rect x="53.8125" y="93.9692" width="5.55627" height="38.1735" transform="rotate(15.0552 53.8125 93.9692)" fill="white" fill-opacity="0.25"/>
</g>
<defs>
<linearGradient id="paint0_linear_1380_1865" x1="100" y1="-1362" x2="100" y2="85" gradientUnits="userSpaceOnUse">
<stop stop-color="white" stop-opacity="0"/>
<stop offset="1" stop-color="#1E1E1E"/>
</linearGradient>
<linearGradient id="paint1_linear_1380_1865" x1="116.201" y1="124.368" x2="92.5076" y2="103.636" gradientUnits="userSpaceOnUse">
<stop stop-color="#F05265"/>
<stop offset="1" stop-color="#F68997"/>
</linearGradient>
</defs>
</svg>
