<svg width="32" height="32" viewBox="0 0 32 32" fill="none" xmlns="http://www.w3.org/2000/svg">
<rect width="32" height="32" fill="#D97757"/>
<g clip-path="url(#clip0_343_49)">
<path d="M10.528 18.97L14.074 16.99L14.128 16.81L14.074 16.72H13.894L13.3 16.684L11.284 16.63L9.52 16.54L7.81 16.45L7.378 16.36L7 15.82L7.036 15.55L7.396 15.316L7.918 15.352L9.052 15.442L10.762 15.55L12.004 15.622L13.84 15.838H14.128L14.164 15.712L14.074 15.64L14.002 15.568L12.22 14.38L10.312 13.12L9.304 12.382L8.764 12.022L8.494 11.662L8.386 10.906L8.872 10.366L9.538 10.42L9.7 10.456L10.366 10.978L11.806 12.076L13.66 13.48L13.93 13.696L14.038 13.624L14.056 13.57L13.93 13.372L12.94 11.5L11.86 9.628L11.374 8.854L11.248 8.386C11.194 8.206 11.176 8.026 11.176 7.846L11.716 7.09L12.04 7L12.796 7.108L13.084 7.36L13.552 8.44L14.29 10.114L15.46 12.382L15.82 13.066L16 13.678L16.054 13.858H16.18V13.768L16.27 12.472L16.45 10.906L16.63 8.89L16.684 8.314L16.972 7.63L17.512 7.27L17.98 7.468L18.34 7.99L18.286 8.314L18.088 9.7L17.62 11.878L17.35 13.354H17.512L17.692 13.156L18.43 12.184L19.672 10.636L20.212 10.006L20.86 9.34L21.274 9.016H22.048L22.606 9.862L22.354 10.744L21.562 11.752L20.896 12.598L19.942 13.876L19.366 14.902L19.42 14.974H19.546L21.706 14.506L22.858 14.308L24.226 14.074L24.856 14.362L24.928 14.65L24.676 15.262L23.2 15.622L21.472 15.982L18.898 16.576L18.862 16.594L18.898 16.648L20.05 16.756L20.554 16.792H21.778L24.046 16.972L24.64 17.332L24.982 17.818L24.928 18.178L24.01 18.646L22.786 18.358L19.906 17.674L18.934 17.44H18.79V17.512L19.618 18.322L21.112 19.672L23.02 21.418L23.11 21.85L22.876 22.21L22.624 22.174L20.968 20.914L20.32 20.374L18.88 19.15H18.79V19.276L19.114 19.762L20.878 22.408L20.968 23.218L20.842 23.47L20.374 23.65L19.888 23.542L18.844 22.102L17.764 20.482L16.918 19.006L16.828 19.078L16.306 24.514L16.072 24.784L15.532 25L15.082 24.64L14.83 24.1L15.082 22.984L15.37 21.544L15.604 20.392L15.82 18.97L15.946 18.502V18.466H15.82L14.74 19.96L13.12 22.174L11.824 23.542L11.518 23.668L10.978 23.398L11.032 22.894L11.32 22.48L13.12 20.176L14.2 18.754L14.92 17.926L14.902 17.836H14.848L10.096 20.932L9.25 21.04L8.89 20.68L8.926 20.14L9.106 19.96L10.546 18.97H10.528Z" fill="white"/>
</g>
<defs>
<clipPath id="clip0_343_49">
<rect width="18" height="18" fill="white" transform="translate(7 7)"/>
</clipPath>
</defs>
</svg>
