<svg width="32" height="32" viewBox="0 0 32 32" fill="none" xmlns="http://www.w3.org/2000/svg">
<rect width="32" height="32" fill="#FDF2F9"/>
<path d="M8.7375 21C8.10126 21 7.57804 20.8513 7.16783 20.5539C6.766 20.2565 6.46881 19.8724 6.27626 19.4015C6.09209 18.9306 6 18.4432 6 17.9393C6 17.2867 6.10046 16.634 6.30138 15.9814C6.50229 15.3205 6.77855 14.6927 7.13016 14.0979C7.49014 13.5031 7.89616 12.9744 8.34822 12.5118C8.80028 12.0492 9.28165 11.6857 9.79231 11.4213C10.3113 11.1487 10.8262 11.0124 11.3369 11.0124C11.7052 11.0124 12.015 11.0991 12.2661 11.2726C12.5173 11.4378 12.6428 11.727 12.6428 12.14C12.6428 12.3879 12.5968 12.6646 12.5047 12.9703C12.421 13.2759 12.3038 13.5733 12.1531 13.8625C12.0108 14.1433 11.8475 14.3746 11.6634 14.5564C11.4792 14.7381 11.2908 14.829 11.0983 14.829C11.0146 14.829 10.9267 14.8001 10.8346 14.7423C10.7425 14.6844 10.6588 14.5853 10.5834 14.4449C10.709 14.3044 10.8513 14.1351 11.0104 13.9368C11.1694 13.7303 11.3201 13.5155 11.4624 13.2924C11.6048 13.0611 11.722 12.8381 11.814 12.6233C11.9061 12.4002 11.9522 12.2061 11.9522 12.0409C11.9522 11.8922 11.9103 11.7765 11.8266 11.6939C11.7429 11.6031 11.5964 11.5576 11.3871 11.5576C11.0187 11.5576 10.6378 11.6939 10.2444 11.9665C9.85929 12.2392 9.48675 12.6068 9.12678 13.0694C8.7668 13.5238 8.44031 14.0359 8.1473 14.6059C7.86267 15.1677 7.63664 15.7501 7.46921 16.3532C7.30178 16.948 7.21806 17.5138 7.21806 18.0508C7.21806 18.4473 7.27666 18.8273 7.39386 19.1908C7.51944 19.5461 7.71617 19.8352 7.98406 20.0582C8.25195 20.2895 8.60355 20.4052 9.03887 20.4052C9.49094 20.4052 9.93882 20.2813 10.3825 20.0335C10.8346 19.7856 11.2448 19.4593 11.6131 19.0545C11.9898 18.6497 12.2912 18.216 12.5173 17.7534L12.8437 17.9641C12.5507 18.5176 12.1991 19.0256 11.7889 19.4882C11.3787 19.9426 10.9141 20.3061 10.3951 20.5787C9.8844 20.8596 9.33188 21 8.7375 21Z" fill="#E10174"/>
<path d="M15.4345 21C14.9489 21 14.4843 20.9174 14.0406 20.7522C13.6053 20.5869 13.2495 20.335 12.9732 19.9963C12.697 19.6576 12.5589 19.2363 12.5589 18.7323C12.5589 18.2862 12.6593 17.9393 12.8602 17.6914C13.0611 17.4354 13.3123 17.2577 13.6137 17.1586C13.915 17.0595 14.208 17.0099 14.4927 17.0099C14.2248 17.2908 14.0197 17.5799 13.8774 17.8773C13.7434 18.1747 13.6765 18.4597 13.6765 18.7323C13.6765 19.0132 13.7476 19.2776 13.8899 19.5254C14.0406 19.765 14.2625 19.9591 14.5555 20.1078C14.8485 20.2648 15.2126 20.3432 15.648 20.3432C16.0247 20.3432 16.3888 20.2813 16.7404 20.1574C17.1004 20.0335 17.3934 19.8476 17.6195 19.5998C17.8539 19.3519 17.9711 19.0421 17.9711 18.6704C17.9711 18.3317 17.8706 18.0425 17.6697 17.803C17.4771 17.5551 17.226 17.3362 16.9162 17.1462C16.6065 16.948 16.28 16.7621 15.9368 16.5886C15.5935 16.4069 15.267 16.2127 14.9573 16.0062C14.6476 15.7997 14.3922 15.5601 14.1913 15.2875C13.9988 15.0149 13.9025 14.6886 13.9025 14.3086C13.9025 13.9698 13.9862 13.6105 14.1536 13.2305C14.3294 12.8422 14.5764 12.4787 14.8945 12.14C15.2126 11.8013 15.5977 11.5287 16.0498 11.3222C16.5019 11.1074 17.0041 11 17.5567 11C18.1343 11 18.5403 11.1198 18.7747 11.3594C19.0091 11.5989 19.1263 11.9128 19.1263 12.3011C19.1263 12.6068 19.0719 12.9331 18.9631 13.28C18.8543 13.627 18.7203 13.9575 18.5613 14.2714C18.4106 14.5853 18.2641 14.8538 18.1217 15.0768C17.9376 15.0355 17.7994 14.9653 17.7074 14.8662C17.6153 14.7588 17.5692 14.6183 17.5692 14.4449C17.5692 14.2714 17.6027 14.0772 17.6697 13.8625C17.745 13.6477 17.8287 13.4246 17.9208 13.1933C18.0213 12.962 18.105 12.739 18.172 12.5242C18.2473 12.3011 18.285 12.107 18.285 11.9418C18.285 11.7931 18.2389 11.6774 18.1469 11.5948C18.0631 11.5122 17.8873 11.4709 17.6195 11.4709C17.2176 11.4709 16.8493 11.5576 16.5144 11.7311C16.1795 11.9046 15.8865 12.1235 15.6354 12.3879C15.3926 12.6522 15.2043 12.9331 15.0703 13.2305C14.9364 13.5196 14.8694 13.784 14.8694 14.0235C14.8694 14.3209 14.9657 14.577 15.1582 14.7918C15.3508 14.9983 15.5977 15.1884 15.8991 15.3618C16.2088 15.5353 16.5312 15.7088 16.866 15.8823C17.2092 16.0558 17.5316 16.2499 17.8329 16.4647C18.1427 16.6795 18.3938 16.9356 18.5864 17.233C18.7789 17.5304 18.8752 17.8938 18.8752 18.3234C18.8752 18.753 18.7747 19.133 18.5738 19.4634C18.3813 19.7939 18.1176 20.0706 17.7827 20.2937C17.4478 20.525 17.0753 20.6985 16.6651 20.8141C16.2633 20.938 15.8531 21 15.4345 21Z" fill="#E10174"/>
<path d="M22.3081 21C21.8226 21 21.358 20.9174 20.9143 20.7522C20.479 20.5869 20.1232 20.335 19.8469 19.9963C19.5706 19.6576 19.4325 19.2363 19.4325 18.7323C19.4325 18.2862 19.533 17.9393 19.7339 17.6914C19.9348 17.4354 20.186 17.2577 20.4873 17.1586C20.7887 17.0595 21.0817 17.0099 21.3663 17.0099C21.0985 17.2908 20.8934 17.5799 20.751 17.8773C20.6171 18.1747 20.5501 18.4597 20.5501 18.7323C20.5501 19.0132 20.6213 19.2776 20.7636 19.5254C20.9143 19.765 21.1361 19.9591 21.4291 20.1078C21.7221 20.2648 22.0863 20.3432 22.5216 20.3432C22.8983 20.3432 23.2625 20.2813 23.6141 20.1574C23.9741 20.0335 24.2671 19.8476 24.4931 19.5998C24.7275 19.3519 24.8447 19.0421 24.8447 18.6704C24.8447 18.3317 24.7443 18.0425 24.5434 17.803C24.3508 17.5551 24.0997 17.3362 23.7899 17.1462C23.4802 16.948 23.1537 16.7621 22.8104 16.5886C22.4672 16.4069 22.1407 16.2127 21.831 16.0062C21.5212 15.7997 21.2659 15.5601 21.065 15.2875C20.8724 15.0149 20.7762 14.6886 20.7762 14.3086C20.7762 13.9698 20.8599 13.6105 21.0273 13.2305C21.2031 12.8422 21.4501 12.4787 21.7682 12.14C22.0863 11.8013 22.4714 11.5287 22.9235 11.3222C23.3755 11.1074 23.8778 11 24.4303 11C25.008 11 25.414 11.1198 25.6484 11.3594C25.8828 11.5989 26 11.9128 26 12.3011C26 12.6068 25.9456 12.9331 25.8368 13.28C25.7279 13.627 25.594 13.9575 25.4349 14.2714C25.2842 14.5853 25.1377 14.8538 24.9954 15.0768C24.8112 15.0355 24.6731 14.9653 24.581 14.8662C24.4889 14.7588 24.4429 14.6183 24.4429 14.4449C24.4429 14.2714 24.4764 14.0772 24.5434 13.8625C24.6187 13.6477 24.7024 13.4246 24.7945 13.1933C24.895 12.962 24.9787 12.739 25.0456 12.5242C25.121 12.3011 25.1587 12.107 25.1587 11.9418C25.1587 11.7931 25.1126 11.6774 25.0205 11.5948C24.9368 11.5122 24.761 11.4709 24.4931 11.4709C24.0913 11.4709 23.7229 11.5576 23.3881 11.7311C23.0532 11.9046 22.7602 12.1235 22.5091 12.3879C22.2663 12.6522 22.0779 12.9331 21.944 13.2305C21.81 13.5196 21.7431 13.784 21.7431 14.0235C21.7431 14.3209 21.8393 14.577 22.0319 14.7918C22.2244 14.9983 22.4714 15.1884 22.7728 15.3618C23.0825 15.5353 23.4048 15.7088 23.7397 15.8823C24.0829 16.0558 24.4052 16.2499 24.7066 16.4647C25.0163 16.6795 25.2675 16.9356 25.46 17.233C25.6526 17.5304 25.7489 17.8938 25.7489 18.3234C25.7489 18.753 25.6484 19.133 25.4475 19.4634C25.2549 19.7939 24.9912 20.0706 24.6564 20.2937C24.3215 20.525 23.949 20.6985 23.5388 20.8141C23.1369 20.938 22.7267 21 22.3081 21Z" fill="#E10174"/>
</svg>
