<svg width="32" height="32" viewBox="0 0 32 32" fill="none" xmlns="http://www.w3.org/2000/svg">
<rect width="32" height="32" fill="#999999"/>
<path d="M16.4597 14.6947V10.8459C17.1192 10.8212 18.6874 10.8957 19.7969 12.0235C20.9174 13.1626 21.2927 15.0663 20.9142 17.6844C20.5043 17.7535 20.1917 18.1092 20.1917 18.5386C20.1917 19.0178 20.58 19.4061 21.0591 19.4061C21.5381 19.4061 21.9265 19.0178 21.9265 18.5386C21.9265 18.2733 21.8071 18.0362 21.6194 17.8772C21.9504 15.6678 21.7744 13.8996 21.0965 12.598C22.3171 11.5842 25.1436 12.3146 25.4594 15.5477C25.7465 18.4878 23.5926 19.5475 22.6653 19.4417C22.4878 19.4215 22.471 19.5364 22.4624 19.5939C22.446 19.7042 22.4304 19.8745 22.4117 19.9844C22.4046 20.0263 22.3762 20.1264 22.4921 20.1463C22.8381 20.2056 23.1842 20.1598 23.4674 20.095C23.6695 20.6724 23.3178 22.1195 21.7572 22.3548C21.7473 21.8268 21.6214 21.2192 21.2293 20.6967C21.159 20.6031 21.0513 20.6911 21.0513 20.6911L20.7178 20.9733C20.7178 20.9733 20.6012 21.0596 20.6884 21.1719C21.3734 22.0548 21.2216 24.2564 19.6703 24.2689C18.7038 24.2769 18.5846 23.3269 18.582 23.267C18.512 21.652 18.582 16.8008 18.582 16.8008C18.8882 16.6669 19.1023 16.3616 19.1023 16.0059C19.1023 15.527 18.7139 15.1385 18.2349 15.1385C17.7559 15.1385 17.3675 15.5269 17.3675 16.0059C17.3675 16.3489 17.567 16.6445 17.8558 16.7853C17.8558 16.7853 17.8142 21.6708 17.8563 23.2985C17.8572 23.3323 17.8144 24.1005 18.3816 24.5944C18.7114 24.8816 19.2264 25.0363 19.7325 24.9924C21.0122 24.8822 21.6158 23.8173 21.815 23.0787C24.3592 22.5657 24.2657 20.2977 24.1551 19.8485C24.4023 19.7209 24.748 19.498 25.0835 19.132C25.6289 18.5371 26.2627 17.4273 26.185 15.5181C26.097 13.3574 24.7855 12.3221 24.193 11.9627C24.2904 11.5208 24.3642 10.6909 23.808 9.9831C23.2717 9.30035 22.4292 9.11828 21.9445 9.07181C21.9126 8.75815 21.7993 8.30809 21.4455 7.9029C20.9223 7.30383 20.0592 7 18.8803 7H16.2447C16.079 7 16.0965 7.14311 16.0965 7.14311V7.5743C16.0965 7.72651 16.2244 7.72621 16.2244 7.72621H18.8802C19.8341 7.72621 20.5107 7.94361 20.8913 8.3724C21.1195 8.62957 21.1965 8.91571 21.2205 9.11584C20.797 9.23737 20.3542 9.5404 20.1587 10.1819C20.1444 10.229 20.1111 10.3475 20.2106 10.3686C20.2971 10.3871 20.4946 10.4041 20.6062 10.4244C20.7268 10.4463 20.7597 10.3662 20.779 10.3246C21.3213 9.15648 23.8962 9.90194 23.5068 11.6805C23.2195 11.5908 21.9789 11.246 20.7115 11.9804C18.6516 9.63643 15.7334 10.1955 15.7334 10.1955V14.7015C15.7334 14.8705 15.893 14.8672 15.893 14.8672H16.292C16.2921 14.8673 16.4597 14.8671 16.4597 14.6947ZM18.2349 16.4297C18.0009 16.4297 17.8113 16.2399 17.8113 16.006C17.8113 15.772 18.001 15.5824 18.2349 15.5824C18.4689 15.5824 18.6585 15.772 18.6585 16.006C18.6585 16.24 18.4689 16.4297 18.2349 16.4297ZM21.4826 18.5386C21.4826 18.7727 21.293 18.9623 21.059 18.9623C20.8251 18.9623 20.6355 18.7726 20.6355 18.5386C20.6355 18.3047 20.8251 18.1152 21.059 18.1152C21.293 18.1152 21.4826 18.3047 21.4826 18.5386Z" fill="white"/>
<path d="M15.7318 17.3053V21.1541C15.0723 21.1788 13.5041 21.1043 12.3947 19.9765C11.2742 18.8375 10.8988 16.9337 11.2773 14.3156C11.6873 14.2465 11.9998 13.8909 11.9998 13.4614C11.9998 12.9822 11.6115 12.5939 11.1324 12.5939C10.6534 12.5939 10.265 12.9822 10.265 13.4614C10.265 13.7267 10.3845 13.9638 10.5721 14.1229C10.2411 16.3322 10.4172 18.1004 11.095 19.4021C9.8744 20.4158 7.0479 19.6855 6.7321 16.4523C6.44494 13.5123 8.59894 12.4526 9.5262 12.5583C9.70369 12.5785 9.72047 12.4636 9.72904 12.4061C9.74555 12.2958 9.76114 12.1256 9.77974 12.0156C9.78687 11.9737 9.81527 11.8736 9.69938 11.8537C9.3534 11.7945 9.00729 11.8402 8.72417 11.9051C8.52201 11.3276 8.87368 9.88055 10.4343 9.64519C10.4442 10.1733 10.5701 10.7808 10.9623 11.3034C11.0324 11.3969 11.1402 11.309 11.1402 11.309L11.4737 11.0267C11.4737 11.0267 11.5903 10.9405 11.5032 10.8281C10.8182 9.94524 10.9699 7.74367 12.5212 7.73105C13.4877 7.72316 13.6069 8.6731 13.6095 8.73299C13.6795 10.348 13.6095 15.1993 13.6095 15.1993C13.3033 15.3332 13.0892 15.6384 13.0892 15.994C13.0892 16.4731 13.4775 16.8615 13.9566 16.8615C14.4356 16.8615 14.824 16.4731 14.824 15.994C14.824 15.6511 14.6245 15.3556 14.3357 15.2147C14.3357 15.2147 14.3773 10.3292 14.3352 8.7015C14.3344 8.66769 14.3771 7.89955 13.81 7.40561C13.4802 7.11844 12.9651 6.96378 12.4589 7.00759C11.1793 7.11779 10.5757 8.18279 10.3765 8.92131C7.83232 9.43431 7.92583 11.7024 8.03646 12.1516C7.78924 12.2792 7.44352 12.502 7.10794 12.868C6.56254 13.4629 5.92878 14.5727 6.00651 16.4819C6.09449 18.6427 7.40601 19.678 7.99853 20.0373C7.90109 20.4793 7.82729 21.3091 8.38344 22.0169C8.91984 22.6997 9.76228 22.8817 10.2471 22.9282C10.2789 23.2418 10.3922 23.6919 10.746 24.0971C11.2692 24.6962 12.1322 25 13.3112 25H15.9468C16.1124 25 16.095 24.8569 16.095 24.8569V24.4258C16.095 24.2736 15.9671 24.2738 15.9671 24.2738H13.3112C12.3574 24.2738 11.6808 24.0564 11.3002 23.6276C11.0719 23.3705 10.9949 23.0843 10.971 22.8842C11.3945 22.7627 11.8373 22.4596 12.0327 21.8181C12.047 21.7711 12.0804 21.6526 11.9809 21.6314C11.8944 21.613 11.6969 21.5959 11.5853 21.5756C11.4647 21.5537 11.4318 21.6339 11.4124 21.6755C10.8702 22.8435 8.29527 22.0981 8.68464 20.3195C8.97196 20.4093 10.2126 20.7541 11.48 20.0197C13.296 22.5118 16.458 21.8045 16.458 21.8045V17.2984C16.458 17.1294 16.2984 17.1327 16.2984 17.1327H15.8995C15.8995 17.1327 15.7318 17.133 15.7318 17.3053ZM13.9566 15.5704C14.1906 15.5704 14.3802 15.7601 14.3802 15.9939C14.3802 16.228 14.1905 16.4176 13.9566 16.4176C13.7226 16.4176 13.5329 16.228 13.5329 15.9939C13.5329 15.7601 13.7226 15.5704 13.9566 15.5704ZM10.7088 13.4614C10.7088 13.2274 10.8985 13.0377 11.1324 13.0377C11.3664 13.0377 11.556 13.2274 11.556 13.4614C11.556 13.6953 11.3663 13.8848 11.1324 13.8848C10.8985 13.8848 10.7088 13.6953 10.7088 13.4614Z" fill="white"/>
</svg>
