<svg width="32" height="32" viewBox="0 0 32 32" fill="none" xmlns="http://www.w3.org/2000/svg">
<g clip-path="url(#clip0_343_26)">
<g clip-path="url(#clip1_343_26)">
<rect width="32" height="32" fill="#18181D"/>
<g filter="url(#filter0_f_343_26)">
<path d="M-35.9373 -22.2218L4.42741 -31.326C1.7248 -24.8205 2.98455 -14.4113 29.6443 -24.8184C56.3041 -35.2254 43.7168 -19.9386 34.0906 -10.9943L3.86051 17.4919L-7.44205 16.7258L-40.0651 30.3742L-51.4345 11.4694L-35.9373 -22.2218Z" fill="#4A436E"/>
</g>
<g filter="url(#filter1_f_343_26)">
<path d="M11.2558 19.9513L36.7675 14.1972C35.0594 18.3088 35.8556 24.8877 52.7053 18.3102C69.555 11.7326 61.5994 21.3943 55.5155 27.0474L36.4092 45.0514L29.2657 44.5672L8.64695 53.1934L1.4612 41.245L11.2558 19.9513Z" fill="#9D5E48"/>
</g>
<g style="mix-blend-mode:overlay">
<path d="M15.7686 8V11.8418H15.7754L15.7686 12.2451H12.3359V9.14844H11.96V12.6094H15.7754V15.3486C15.7754 15.5805 15.5874 15.7686 15.3555 15.7686H8.5V13.8379H12.3359V13.5283H12.2715V13.5254H8.5V8.59961C8.50005 8.26977 8.7678 8.00195 9.09766 8.00195H12.0566C12.1353 8.00064 12.2148 8 12.2959 8H15.7686ZM22.8105 8C23.1404 8 23.4082 8.26778 23.4082 8.59766V15.7686H20.042V14.1123H19.6445V15.7686H16.2783V8H22.8105ZM19.6445 9.56445V13.0254H20.042V9.56445H19.6445Z" fill="white"/>
<path fill-rule="evenodd" clip-rule="evenodd" d="M13.05 23.9998L10.201 23.9835L9.103 23.994C8.77091 23.9972 8.5 23.7288 8.5 23.3967V16.2397H13.048V19.2239H13.5108V16.2613H13.6468L17.986 16.2397V23.9998L16.3455 23.9835L13.5108 23.9998L13.5108 20.9838H13.05L13.05 23.9998ZM18.3794 23.9783H22.8104C23.1403 23.9783 23.4077 23.7109 23.4077 23.381V16.2398H18.3794V23.9783Z" fill="white"/>
</g>
<g style="mix-blend-mode:overlay">
<path d="M15.7686 8V11.8418H15.7754L15.7686 12.2451H12.3359V9.14844H11.96V12.6094H15.7754V15.3486C15.7754 15.5805 15.5874 15.7686 15.3555 15.7686H8.5V13.8379H12.3359V13.5283H12.2715V13.5254H8.5V8.59961C8.50005 8.26977 8.7678 8.00195 9.09766 8.00195H12.0566C12.1353 8.00064 12.2148 8 12.2959 8H15.7686ZM22.8105 8C23.1404 8 23.4082 8.26778 23.4082 8.59766V15.7686H20.042V14.1123H19.6445V15.7686H16.2783V8H22.8105ZM19.6445 9.56445V13.0254H20.042V9.56445H19.6445Z" fill="white"/>
<path fill-rule="evenodd" clip-rule="evenodd" d="M13.0501 23.9998L10.2011 23.9836L9.10311 23.994C8.77102 23.9972 8.50011 23.7289 8.50011 23.3968V16.2398H13.0481V19.2239H13.511V16.2613H13.6469L17.9861 16.2398V23.9998L16.3456 23.9836L13.511 23.9998L13.511 20.9838H13.0501L13.0501 23.9998ZM18.3795 23.9783H22.8105C23.1404 23.9783 23.4078 23.7109 23.4078 23.381V16.2398H18.3795V23.9783Z" fill="white"/>
</g>
</g>
</g>
<defs>
<filter id="filter0_f_343_26" x="-69.7728" y="-49.6642" width="133.75" height="98.3767" filterUnits="userSpaceOnUse" color-interpolation-filters="sRGB">
<feFlood flood-opacity="0" result="BackgroundImageFix"/>
<feBlend mode="normal" in="SourceGraphic" in2="BackgroundImageFix" result="shape"/>
<feGaussianBlur stdDeviation="9.16913" result="effect1_foregroundBlur_343_26"/>
</filter>
<filter id="filter1_f_343_26" x="-22.2441" y="-9.5083" width="108.764" height="86.4072" filterUnits="userSpaceOnUse" color-interpolation-filters="sRGB">
<feFlood flood-opacity="0" result="BackgroundImageFix"/>
<feBlend mode="normal" in="SourceGraphic" in2="BackgroundImageFix" result="shape"/>
<feGaussianBlur stdDeviation="11.8528" result="effect1_foregroundBlur_343_26"/>
</filter>
<clipPath id="clip0_343_26">
<rect width="32" height="32" fill="white"/>
</clipPath>
<clipPath id="clip1_343_26">
<rect width="32" height="32" fill="white"/>
</clipPath>
</defs>
</svg>
