<svg width="32" height="32" viewBox="0 0 32 32" fill="none" xmlns="http://www.w3.org/2000/svg">
<rect width="32" height="32" rx="4" fill="#7A40ED"/>
<g clip-path="url(#clip0_489_4689)">
<path d="M4.80478 20.7163C3.29927 20.7163 2 19.8066 2 17.9613H3.4922C3.4922 18.8314 4.11024 19.2794 4.80478 19.2794C5.48668 19.2794 6.09141 18.871 6.09141 17.8562V11.2195H7.59727V17.9876C7.59693 19.9254 6.27171 20.7163 4.80478 20.7163ZM9.66141 13.161C9.14683 13.161 8.70941 12.726 8.70941 12.1858C8.70941 11.6586 9.14683 11.2236 9.66141 11.2236C10.189 11.2236 10.6004 11.6586 10.6004 12.1858C10.6004 12.726 10.189 13.161 9.66141 13.161ZM8.9539 14.0328H10.3693V20.6736H8.9539V14.0328ZM13.9475 20.6995C12.712 20.6995 11.7474 20.0009 11.7474 18.5114V12.2114H13.1628V14.0434H14.7199V15.3351H13.1628V18.2741C13.1628 19.0912 13.51 19.3811 14.2435 19.3811C14.5136 19.3811 14.7967 19.3415 15.0026 19.2627V20.5544C14.7192 20.6466 14.3849 20.6995 13.9475 20.6995ZM17.7582 20.6995C16.5231 20.6995 15.5585 20.0009 15.5585 18.5114V12.2114H16.9739V14.0434H18.8017V15.3351H16.9739V18.2741C16.9739 19.0912 17.3211 19.3811 18.0546 19.3811C18.3247 19.3811 18.6078 19.3415 18.8137 19.2627V20.5544C18.5302 20.6466 18.1956 20.6995 17.7585 20.6995H17.7582ZM22.3806 13.9273C24.066 13.9273 25.4814 15.0736 25.4814 17.1958C25.4814 17.3409 25.4814 17.4594 25.4688 17.6701H20.4117C20.4759 18.7508 21.3251 19.4628 22.3932 19.4628C23.2937 19.4628 23.8987 19.0407 24.233 18.4609L25.3141 19.2517C24.7353 20.1873 23.7318 20.7805 22.3806 20.7805C20.425 20.7805 19.0226 19.3569 19.0226 17.3535C19.0226 15.4164 20.425 13.9273 22.3806 13.9273ZM20.4762 16.6156H24.0531C23.8987 15.6667 23.1526 15.1528 22.3287 15.1528C21.5051 15.1528 20.6692 15.6404 20.4762 16.6156ZM26.333 14.0687H27.7484V15.2416C27.9929 14.4904 28.7134 14.0028 29.4468 14.0028C29.6268 14.0028 29.8071 14.0157 30 14.0553V15.5448C29.7555 15.4663 29.5496 15.4263 29.2921 15.4263C28.4815 15.4263 27.7484 16.1249 27.7484 17.443V20.6589H26.333V14.0687Z" fill="white"/>
</g>
<defs>
<clipPath id="clip0_489_4689">
<rect width="28" height="9.56098" fill="white" transform="translate(2 11.2195)"/>
</clipPath>
</defs>
</svg>
