<svg width="32" height="32" viewBox="0 0 32 32" fill="none" xmlns="http://www.w3.org/2000/svg">
<rect width="32" height="32" rx="4" fill="url(#paint0_linear_489_4683)"/>
<path fill-rule="evenodd" clip-rule="evenodd" d="M7.83936 8.10636C7.83936 8.71707 8.34014 9.21239 8.95761 9.21239H18.2247C19.2809 9.21239 20.1507 9.53511 20.8341 10.1805C21.5174 10.826 21.8591 11.6556 21.8591 12.6697C21.8591 13.607 21.5174 14.3752 20.8337 14.9743C20.1507 15.5584 19.2809 15.8502 18.2247 15.8502H14.1972C13.5794 15.8502 13.0786 16.3452 13.0786 16.9566C13.0786 17.5673 13.5794 18.0626 14.1972 18.0626H18.6445L22.6514 24.4237C22.8999 24.8081 23.2493 25 23.6996 25C24.1969 25 24.5462 24.8081 24.7481 24.4237C24.95 24.0245 24.9111 23.6018 24.6317 23.1563L21.0671 17.4863C22.0301 17.0562 22.7912 16.4262 23.3502 15.5966C23.9095 14.7516 24.1891 13.776 24.1891 12.6697C24.1891 11.5479 23.9326 10.5646 23.4203 9.71961C22.9234 8.87425 22.2246 8.21371 21.3236 7.73736C20.4226 7.24557 19.3899 7 18.2247 7H8.95793C8.34014 7 7.83936 7.495 7.83936 8.10636Z" fill="white"/>
<defs>
<linearGradient id="paint0_linear_489_4683" x1="0.151165" y1="-3.51908e-07" x2="29.9999" y2="33.6409" gradientUnits="userSpaceOnUse">
<stop stop-color="#4D4E4E"/>
<stop offset="1" stop-color="#26292A"/>
</linearGradient>
</defs>
</svg>
