<svg width="32" height="32" viewBox="0 0 32 32" fill="none" xmlns="http://www.w3.org/2000/svg">
<path d="M27.5471 17.6669C26.4283 17.6732 25.4595 17.9398 24.6469 18.3368C24.3469 17.7476 24.0468 17.2327 23.9969 16.8483C23.9406 16.4017 23.8719 16.1288 23.9406 15.5955C24.0093 15.062 24.3219 14.3054 24.3219 14.2433C24.3155 14.1875 24.253 13.9146 23.6093 13.9084C22.9655 13.9022 22.4092 14.0325 22.3467 14.1999C22.2842 14.3674 22.1592 14.7519 22.0779 15.1488C21.9654 15.7318 20.7903 17.7971 20.1215 18.8825C19.9027 18.4608 19.7152 18.0886 19.6776 17.7909C19.6214 17.3444 19.5526 17.0714 19.6214 16.5381C19.6902 16.0047 20.0027 15.2481 20.0027 15.1861C19.9965 15.1302 19.934 14.8573 19.2902 14.8511C18.6464 14.8449 18.0901 14.9752 18.0276 15.1426C17.9651 15.3101 17.8964 15.707 17.7588 16.0916C17.6275 16.4761 16.0649 19.9245 15.6586 20.8238C15.4523 21.2827 15.2711 21.6486 15.1398 21.8967C15.0085 22.1448 15.1336 21.9153 15.121 21.9401C15.0085 22.151 14.946 22.2688 14.946 22.2688V22.2751C14.8585 22.4302 14.7648 22.5789 14.721 22.5789C14.6897 22.5789 14.6272 22.1634 14.7335 21.5929C14.9647 20.3958 15.5273 18.529 15.5211 18.4608C15.5211 18.4298 15.6273 18.101 15.1585 17.9336C14.7022 17.7662 14.5397 18.0453 14.5022 18.0453C14.4647 18.0453 14.4334 18.1445 14.4334 18.1445C14.4334 18.1445 14.9397 16.0421 13.4646 16.0421C12.5395 16.0421 11.2644 17.0406 10.6331 17.9523C10.2331 18.1694 9.38299 18.6283 8.48291 19.1183C8.13913 19.3044 7.78285 19.5028 7.44532 19.6827L7.37662 19.6081C5.58897 17.7165 2.28243 16.3769 2.41994 13.834C2.46994 12.9099 2.79497 10.4725 8.77056 7.52027C13.6647 5.10145 17.5838 5.76508 18.2651 7.24118C19.2339 9.34989 16.1711 13.2696 11.0833 13.834C9.14559 14.0511 8.12669 13.3068 7.87048 13.0277C7.60171 12.7362 7.5642 12.7238 7.46419 12.7796C7.30168 12.8665 7.40169 13.127 7.46419 13.282C7.61421 13.6727 8.23926 14.3674 9.30185 14.7147C10.2331 15.0186 12.5084 15.1861 15.2586 14.1317C18.3401 12.9471 20.7466 9.65999 20.0403 6.91246C19.3215 4.11532 14.6461 3.19741 10.2269 4.75414C7.59539 5.68445 4.74514 7.13574 2.69496 9.03978C0.257252 11.2973 -0.130282 13.2696 0.0322319 14.0883C0.601094 17.0095 4.65764 18.9135 6.28278 20.3214C6.20152 20.3647 6.12651 20.4082 6.05776 20.4454C5.24519 20.8423 2.15117 22.4487 1.3761 24.148C0.501023 26.0707 1.51361 27.4538 2.18867 27.6399C4.27635 28.2167 6.41404 27.1809 7.57039 25.4753C8.72043 23.7698 8.58298 21.5556 8.05168 20.5447L8.03287 20.5075L8.67042 20.1353C9.08302 19.8934 9.48931 19.6702 9.84553 19.4778C9.64557 20.0174 9.50175 20.6562 9.4268 21.5866C9.33929 22.6782 9.78933 24.0922 10.3831 24.6504C10.6457 24.8922 10.9582 24.8985 11.152 24.8985C11.8395 24.8985 12.152 24.334 12.4958 23.6581C12.9209 22.8332 13.2959 21.8781 13.2959 21.8781C13.2959 21.8781 12.8271 24.4643 14.1085 24.4643C14.5773 24.4643 15.046 23.8627 15.2586 23.5526V23.5588C15.2586 23.5588 15.2711 23.5402 15.2961 23.4968C15.3223 23.4583 15.3473 23.419 15.3711 23.379V23.3666C15.5586 23.0441 15.9774 22.3061 16.6024 21.0842C17.4087 19.5089 18.1838 17.5366 18.1838 17.5366C18.1838 17.5366 18.2588 18.0204 18.4901 18.8143C18.6275 19.2857 18.9276 19.8004 19.1588 20.3028C18.9713 20.5633 18.8588 20.7122 18.8588 20.7122L18.8651 20.7184C18.7151 20.9169 18.5463 21.1278 18.3713 21.3386C17.7338 22.0952 16.9712 22.9574 16.8712 23.2055C16.7524 23.4969 16.7774 23.714 17.0087 23.8877C17.1775 24.0118 17.4775 24.0365 17.7963 24.0118C18.3713 23.9745 18.7714 23.8319 18.9714 23.745C19.2839 23.6334 19.6402 23.4659 19.984 23.2178C20.609 22.7589 20.9903 22.1077 20.9528 21.2394C20.9341 20.7619 20.7778 20.2905 20.584 19.844C20.6403 19.7633 20.6966 19.6826 20.7528 19.5959C21.7404 18.1631 22.5029 16.5879 22.5029 16.5879C22.5029 16.5879 22.578 17.0716 22.8092 17.8655C22.9279 18.2686 23.1655 18.709 23.378 19.1432C22.4529 19.8936 21.8716 20.7619 21.6716 21.3325C21.3028 22.3869 21.5904 22.8644 22.1342 22.9761C22.3779 23.0257 22.728 22.914 22.9904 22.8024C23.3155 22.697 23.7092 22.5171 24.0718 22.2504C24.6969 21.7915 25.2969 21.1527 25.2657 20.2906C25.2469 19.8936 25.1407 19.5029 24.9969 19.1308C25.7845 18.8083 26.8033 18.6222 28.0972 18.7773C30.8787 19.0998 31.4287 20.8239 31.3225 21.5434C31.2163 22.2629 30.635 22.6598 30.4411 22.7838C30.2474 22.9016 30.1849 22.9451 30.2036 23.0319C30.2286 23.1622 30.3161 23.1559 30.4849 23.1312C30.7162 23.0939 31.9475 22.542 31.9975 21.2148C32.0725 19.509 30.4411 17.6483 27.5471 17.6669ZM6.09526 24.8427C5.17643 25.8413 3.88257 26.2196 3.33252 25.8971C2.73872 25.556 2.96993 24.0861 4.10134 23.0255C4.7889 22.3805 5.68273 21.7851 6.27028 21.4192C6.40154 21.3385 6.60156 21.2208 6.83908 21.078C6.87658 21.0533 6.90158 21.0408 6.90158 21.0408C6.94534 21.016 6.99534 20.985 7.04534 20.954C7.46413 22.4673 7.0641 23.7946 6.09526 24.8427ZM12.8146 20.309C12.4958 21.0842 11.8208 23.0751 11.4145 22.9635C11.0644 22.8704 10.8519 21.3633 11.3457 19.8748C11.5957 19.1243 12.127 18.2313 12.4395 17.8839C12.9459 17.3257 13.4958 17.1397 13.6334 17.3691C13.7959 17.6669 13.0146 19.8252 12.8146 20.309ZM18.3588 22.9387C18.2213 23.007 18.0963 23.0565 18.0401 23.0194C17.9963 22.9946 18.0962 22.9015 18.0962 22.9015C18.0962 22.9015 18.7901 22.1635 19.0651 21.8224C19.2213 21.624 19.4089 21.3945 19.6089 21.1339V21.2083C19.6089 22.1014 18.7464 22.6968 18.3588 22.9387ZM22.6341 21.9711C22.5341 21.8967 22.5467 21.6672 22.8842 20.9478C23.0155 20.6625 23.3155 20.1849 23.8342 19.7322C23.8968 19.9183 23.9343 20.0981 23.928 20.2656C23.9218 21.3819 23.1217 21.7975 22.6341 21.9711Z" fill="#CF649A"/>
</svg>
