<svg width="32" height="32" viewBox="0 0 32 32" fill="none" xmlns="http://www.w3.org/2000/svg">
<path d="M4.12449 3.00001C3.84359 3.00001 3.58621 3.1176 3.41161 3.31028C3.25429 3.47344 3.1565 3.69538 3.14941 3.93673V4.00087C3.15253 4.11536 3.17521 4.22281 3.21574 4.32155C3.21744 4.33027 3.22113 4.3373 3.22425 4.34602C3.25599 4.42056 3.29596 4.48976 3.3467 4.55418C3.36399 4.57865 3.38354 4.60116 3.40452 4.62169C3.40857 4.62742 3.41323 4.6327 3.41841 4.63744L6.52645 8.29937L7.64864 9.62119L11.0087 13.5785L12.1309 14.8983L15.1391 18.4427L16.2593 19.7625V29.0208C16.8942 29.0225 17.5046 28.7779 17.9603 28.3393C17.9623 28.3393 17.9623 28.3393 17.9623 28.3373L18.2925 27.9471L26.3615 18.4427L29.1235 15.1881C29.1374 15.1743 29.1496 15.1585 29.162 15.143C29.2213 15.0702 29.2683 14.9883 29.3032 14.8983C29.3471 14.7909 29.3698 14.673 29.3698 14.5478V3.96796C29.3698 3.71282 29.27 3.4785 29.1059 3.3086C29.0152 3.21071 28.9049 3.1327 28.782 3.07956C28.6592 3.02642 28.5265 2.99933 28.3925 3.00001H4.12449Z" fill="black"/>
<path d="M4.12449 3.00001C3.84359 3.00001 3.58621 3.11759 3.41161 3.31028C3.25429 3.47344 3.1565 3.69538 3.14941 3.93673V4.00087C3.15253 4.11536 3.17521 4.22281 3.21574 4.32155C3.21744 4.33027 3.22113 4.3373 3.22425 4.34602C3.25599 4.42056 3.29596 4.48976 3.3467 4.55418C3.36399 4.57865 3.38354 4.60116 3.40452 4.62169C3.40857 4.62742 3.41323 4.6327 3.41841 4.63744L6.52645 8.29937L7.64864 9.62118L11.0087 13.5785L12.1309 14.8983L15.1391 18.4427L16.2593 19.7625V29.0208C16.8942 29.0225 17.5046 28.7779 17.9603 28.3393C17.9623 28.3393 17.9623 28.3393 17.9623 28.3373L18.2925 27.9471L26.3615 18.4427L29.1235 15.1881C29.1374 15.1743 29.1496 15.1585 29.162 15.143C29.2213 15.0702 29.2683 14.9883 29.3032 14.8983C29.3471 14.7909 29.3698 14.673 29.3698 14.5478V3.96796C29.3698 3.71282 29.27 3.4785 29.1059 3.3086C29.0152 3.21071 28.9049 3.1327 28.782 3.07956C28.6592 3.02642 28.5265 2.99933 28.3925 3.00001H4.12449Z" fill="url(#paint0_linear_839_1722)"/>
<path d="M16.2596 25.0631V29.0215C15.6249 29.022 15.0149 28.7775 14.5586 28.3396C14.5569 28.3396 14.5569 28.3396 14.5569 28.3382L14.2267 27.9478L6.15768 18.4433L3.41161 15.2078C3.40459 15.2038 3.39903 15.1977 3.39573 15.1904L3.35208 15.1403C3.34868 15.1366 3.34641 15.1333 3.34358 15.1296C3.28975 15.0594 3.24667 14.9817 3.21574 14.8989C3.1749 14.7979 3.15245 14.6905 3.14941 14.5816V14.5158C3.14941 14.495 3.15111 14.4739 3.1548 14.4531C3.17379 14.2348 3.26818 14.0401 3.41161 13.8877C3.50262 13.7903 3.61292 13.7126 3.73559 13.6595C3.85826 13.6064 3.99066 13.5791 4.12449 13.5791H6.50746L7.62795 14.8989L10.6362 18.4433L15.5688 24.2529L16.2576 25.0647L16.2596 25.0631Z" fill="#FCD1CA"/>
<path d="M16.2596 19.7638V25.0623L16.2579 25.064L15.5697 24.2525L10.6371 18.4437L7.62823 14.8996L6.50746 13.5789L3.39347 9.91305C3.31664 9.82755 3.25613 9.7289 3.21489 9.62191C3.17464 9.51975 3.15249 9.41145 3.14941 9.30179V9.23653C3.15583 9.00291 3.24924 8.77993 3.41161 8.61065C3.50193 8.51225 3.61204 8.43375 3.73483 8.38021C3.85763 8.32667 3.99037 8.29928 4.12449 8.29981H6.52702L7.64949 9.62191L11.0092 13.5789L12.13 14.8996L15.1388 18.4434L16.2596 19.7638Z" fill="#FF9D8D"/>
<defs>
<linearGradient id="paint0_linear_839_1722" x1="2654.14" y1="-347.446" x2="400.109" y2="1949.23" gradientUnits="userSpaceOnUse">
<stop stop-color="#FF6660"/>
<stop offset="1" stop-color="#FB4444"/>
</linearGradient>
</defs>
</svg>
