<svg width="32" height="32" viewBox="0 0 32 32" fill="none" xmlns="http://www.w3.org/2000/svg">
<path d="M0 8C0 3.58172 3.58172 0 8 0H24C28.4183 0 32 3.58172 32 8V24C32 28.4183 28.4183 32 24 32H8C3.58172 32 0 28.4183 0 24V8Z" fill="#FFDD33"/>
<path fill-rule="evenodd" clip-rule="evenodd" d="M21.2744 6.10059H18.3695L20.7902 10.3538L15.4646 6.10059H12.5598L15.2226 11.2991L9.65488 6.10059H6.75L9.65488 12.7177L6.75 25.9506H9.65488L15.2226 11.7724L12.5598 25.9506H15.4646L20.7902 10.8271L18.3695 25.9506H21.2744L26.6 9.40852L21.2744 6.10059Z" fill="black"/>
</svg>
