<svg width="32" height="32" viewBox="0 0 32 32" fill="none" xmlns="http://www.w3.org/2000/svg">
<path fill-rule="evenodd" clip-rule="evenodd" d="M12.8389 28.0977H17.9675C19.401 28.0978 20.7758 27.5288 21.7899 26.5157L23.7748 24.5352C23.2136 24.675 22.6374 24.7456 22.0591 24.7452H16.1469L12.8389 28.0977Z" fill="#62BE19"/>
<path d="M22.0638 11.6455C25.4072 11.6455 28.1174 14.3557 28.1174 17.6988C28.1174 21.042 25.4072 23.7521 22.0638 23.7521H16.0635V11.6455H22.0638Z" fill="#CEF23F"/>
<path fill-rule="evenodd" clip-rule="evenodd" d="M7.36457 24.0115L3.94727 27.4263V9.93587L7.36457 6.5293V24.0115Z" fill="#FF9330"/>
<path d="M8.3584 6.11914H15.0688V23.7513H8.3584V6.11914Z" fill="#FF5C16"/>
<path fill-rule="evenodd" clip-rule="evenodd" d="M4.71191 28.0977H11.4425L14.7506 24.7451H8.06719L4.71191 28.0977Z" fill="#CF2500"/>
<path d="M22.7739 7.299C22.7739 9.15057 21.2718 10.6515 19.4188 10.6515C17.5657 10.6515 16.0635 9.15057 16.0635 7.2989C16.0635 5.44734 17.5657 3.94629 19.4188 3.94629C21.2718 3.94629 22.7739 5.44743 22.7739 7.299Z" fill="#60CFFF"/>
<path fill-rule="evenodd" clip-rule="evenodd" d="M19.4203 10.6516H19.4168C17.5645 10.6507 16.0634 9.1501 16.0634 7.29902C16.0634 5.44745 17.5655 3.94641 19.4186 3.94641C21.2716 3.94641 22.7737 5.44745 22.7737 7.29902C22.7737 9.1501 21.2726 10.6507 19.4203 10.6516ZM22.185 10.6528C23.1517 9.85567 23.7679 8.64922 23.7679 7.29912C23.7679 4.89892 21.8206 2.95312 19.4186 2.95312C17.8087 2.95312 16.4031 3.82707 15.651 5.12617H8.05649C7.61343 5.12613 7.18844 5.30176 6.87465 5.61454L3.35829 9.12046C3.22985 9.24853 3.12795 9.40068 3.05842 9.56821C2.98889 9.73573 2.95311 9.91533 2.95313 10.0967V28.5944C2.95313 28.8117 3.01013 28.8876 3.04637 28.9358C3.13951 29.06 3.326 29.091 3.48127 29.091H17.9677C19.6648 29.0912 21.2924 28.4175 22.493 27.2181L26.7904 22.9241C28.2159 21.6347 29.1114 19.771 29.1114 17.6984C29.1114 13.8487 26.0218 10.7198 22.185 10.6528ZM3.94729 27.4262L7.3646 24.0115V6.52925L3.94729 9.93582V27.4262ZM11.443 28.0975H4.71234L8.06761 24.745H14.751L11.443 28.0975ZM17.9677 28.0975H12.8391L16.1471 24.745H22.0592C22.6376 24.7454 23.2138 24.6749 23.775 24.535L21.7901 26.5156C20.776 27.5287 19.4012 28.0977 17.9677 28.0975ZM26.492 21.8239L26.4922 21.8241C27.5005 20.743 28.1172 19.2926 28.1172 17.6983C28.1172 14.3552 25.405 11.645 22.0592 11.645H16.0634V23.7516H22.0592C23.649 23.7516 25.0956 23.1398 26.1764 22.1389L26.492 21.8239ZM15.0692 7.30197V6.11965H8.35876V23.7517H15.0692V7.30197Z" fill="#121212"/>
</svg>
