<svg width="24" height="25" viewBox="0 0 24 25" fill="none" xmlns="http://www.w3.org/2000/svg">
<g clip-path="url(#clip0_776_9733)">
<path d="M1.81444 20.1906L2.87287 22.0187C3.09281 22.4036 3.40894 22.7061 3.78009 22.926C4.84316 21.5766 5.58316 20.541 6.00009 19.8194C6.42322 19.0871 6.94325 17.9416 7.56019 16.383C5.89744 16.1641 4.63744 16.0547 3.78019 16.0547C2.95737 16.0547 1.69731 16.1641 0 16.383C0 16.8091 0.109969 17.2352 0.329906 17.6201L1.81444 20.1906Z" fill="#0066DA"/>
<path d="M20.2204 22.926C20.5917 22.7061 20.9078 22.4036 21.1276 22.0188L21.5675 21.2628L23.6707 17.6201C23.8865 17.2435 24.0002 16.8171 24.0005 16.383C22.2933 16.1641 21.0356 16.0547 20.2274 16.0547C19.3587 16.0547 18.1009 16.1641 16.4541 16.383C17.0637 17.9502 17.5769 19.0957 17.9937 19.8194C18.4139 20.5496 19.1562 21.5851 20.2204 22.926Z" fill="#EA4335"/>
<path d="M11.9998 8.68541C13.2298 7.19991 14.0775 6.05444 14.5428 5.249C14.9175 4.60044 15.3299 3.56491 15.7799 2.14241C15.4088 1.92247 14.9827 1.8125 14.5428 1.8125H9.45685C9.01698 1.8125 8.59098 1.93625 8.21973 2.14241C8.79223 3.77384 9.27798 4.93491 9.67698 5.62559C10.118 6.38891 10.8923 7.40884 11.9998 8.68541Z" fill="#00832D"/>
<path d="M16.4401 16.3828H7.56027L3.78027 22.9258C4.15134 23.1458 4.57743 23.2557 5.0173 23.2557H18.9831C19.4229 23.2557 19.8491 23.132 20.2202 22.9257L16.4401 16.3828Z" fill="#2684FC"/>
<path d="M12.0001 8.68548L8.22009 2.14258C7.84884 2.36252 7.53272 2.66486 7.31278 3.0498L0.329906 15.1461C0.114024 15.5227 0.000298266 15.9491 0 16.3832H7.56019L12.0001 8.68548Z" fill="#00AC47"/>
<path d="M20.1788 9.09798L16.6872 3.0498C16.4674 2.66486 16.1512 2.36252 15.78 2.14258L12 8.68558L16.4398 16.3833H23.9863C23.9863 15.9571 23.8763 15.5311 23.6564 15.1462L20.1788 9.09798Z" fill="#FFBA00"/>
</g>
<defs>
<clipPath id="clip0_776_9733">
<rect width="24" height="24" fill="white" transform="translate(0 0.5)"/>
</clipPath>
</defs>
</svg>
