<svg width="32" height="32" viewBox="0 0 32 32" fill="none" xmlns="http://www.w3.org/2000/svg">
<rect width="32" height="32" rx="4" fill="#222222"/>
<path d="M30.0832 16.0075C30.0832 14.1471 27.7534 12.384 24.1815 11.2907C25.0058 7.65009 24.6394 4.75361 23.0252 3.82628C22.6531 3.60876 22.2181 3.50572 21.743 3.50572V4.78223C22.0063 4.78223 22.2181 4.83375 22.3955 4.93106C23.174 5.37756 23.5118 7.07766 23.2484 9.26433C23.1855 9.80241 23.0824 10.3691 22.9565 10.9473C21.8345 10.6725 20.6096 10.4607 19.3216 10.3233C18.5488 9.26433 17.7474 8.30265 16.9403 7.46119C18.8064 5.72674 20.558 4.77651 21.7487 4.77651V3.5C20.1745 3.5 18.1138 4.62195 16.0302 6.5682C13.9465 4.6334 11.8858 3.5229 10.3116 3.5229V4.79941C11.4965 4.79941 13.2539 5.74391 15.12 7.46691C14.3186 8.30838 13.5172 9.26433 12.7559 10.3233C11.4622 10.4607 10.2372 10.6725 9.11525 10.953C8.98359 10.3806 8.88628 9.8253 8.81759 9.29295C8.54855 7.10628 8.88056 5.40618 9.65333 4.95396C9.82506 4.85092 10.0483 4.80513 10.3116 4.80513V3.52862C9.83078 3.52862 9.39574 3.63166 9.01794 3.84918C7.40942 4.77651 7.04879 7.66726 7.87881 11.2964C4.31832 12.3955 2 14.1528 2 16.0075C2 17.8679 4.32977 19.631 7.90171 20.7243C7.07742 24.3649 7.44377 27.2614 9.05801 28.1887C9.43009 28.4062 9.86513 28.5093 10.346 28.5093C11.9201 28.5093 13.9809 27.3873 16.0645 25.4411C18.1481 27.3759 20.2089 28.4864 21.783 28.4864C22.2639 28.4864 22.6989 28.3833 23.0767 28.1658C24.6852 27.2385 25.0459 24.3477 24.2158 20.7186C27.7649 19.6252 30.0832 17.8622 30.0832 16.0075ZM22.6302 12.1894C22.4184 12.9279 22.1551 13.6892 21.8574 14.4505C21.6227 13.9926 21.3766 13.5346 21.1076 13.0767C20.8443 12.6187 20.5638 12.1722 20.2833 11.7372C21.0961 11.8574 21.8803 12.0062 22.6302 12.1894ZM20.0085 18.2858C19.562 19.0585 19.1041 19.7912 18.629 20.4724C17.7761 20.5468 16.9117 20.5869 16.0416 20.5869C15.1772 20.5869 14.3129 20.5468 13.4657 20.4781C12.9906 19.797 12.5269 19.07 12.0804 18.3029C11.6454 17.553 11.2504 16.7917 10.8898 16.0247C11.2447 15.2576 11.6454 14.4906 12.0747 13.7407C12.5212 12.9679 12.9791 12.2352 13.4542 11.554C14.3072 11.4796 15.1715 11.4395 16.0416 11.4395C16.906 11.4395 17.7703 11.4796 18.6175 11.5483C19.0926 12.2295 19.5563 12.9565 20.0028 13.7235C20.4378 14.4734 20.8328 15.2347 21.1934 16.0018C20.8328 16.7688 20.4378 17.5359 20.0085 18.2858ZM21.8574 17.5416C22.1666 18.3086 22.4299 19.0757 22.6474 19.8199C21.8975 20.003 21.1076 20.1576 20.289 20.2778C20.5695 19.837 20.85 19.3848 21.1133 18.9211C21.3766 18.4632 21.6227 17.9995 21.8574 17.5416ZM16.0531 23.6494C15.5207 23.0999 14.9883 22.4874 14.4617 21.8176C14.9769 21.8405 15.5035 21.8577 16.0359 21.8577C16.574 21.8577 17.1063 21.8462 17.6272 21.8176C17.112 22.4874 16.5797 23.0999 16.0531 23.6494ZM11.7942 20.2778C10.9814 20.1576 10.1971 20.0088 9.44726 19.8256C9.65905 19.0872 9.92237 18.3258 10.22 17.5645C10.4547 18.0224 10.7009 18.4804 10.9699 18.9383C11.2389 19.3963 11.5137 19.8428 11.7942 20.2778ZM16.0244 8.36562C16.5568 8.91515 17.0891 9.52764 17.6158 10.1974C17.1006 10.1745 16.574 10.1573 16.0416 10.1573C15.5035 10.1573 14.9712 10.1688 14.4503 10.1974C14.9654 9.52764 15.4978 8.91515 16.0244 8.36562ZM11.7885 11.7372C11.508 12.178 11.2275 12.6302 10.9642 13.0939C10.7009 13.5518 10.4547 14.0097 10.22 14.4677C9.91092 13.7006 9.64761 12.9336 9.43009 12.1894C10.18 12.012 10.9699 11.8574 11.7885 11.7372ZM6.60803 18.904C4.58164 18.0396 3.27078 16.9062 3.27078 16.0075C3.27078 15.1088 4.58164 13.9697 6.60803 13.111C7.10031 12.8992 7.63839 12.7103 8.19365 12.5329C8.51993 13.6548 8.94925 14.8226 9.4816 16.0189C8.95497 17.2096 8.53138 18.3716 8.21082 19.4878C7.64412 19.3104 7.10604 19.1158 6.60803 18.904ZM9.68768 27.0839C8.90918 26.6374 8.57145 24.9373 8.83476 22.7507C8.89773 22.2126 9.00077 21.6459 9.1267 21.0677C10.2487 21.3425 11.4736 21.5543 12.7616 21.6917C13.5344 22.7507 14.3358 23.7123 15.1429 24.5538C13.2768 26.2883 11.5252 27.2385 10.3345 27.2385C10.0769 27.2328 9.8594 27.1812 9.68768 27.0839ZM23.2656 22.7221C23.5347 24.9087 23.2026 26.6088 22.4299 27.061C22.2581 27.1641 22.0349 27.2099 21.7716 27.2099C20.5867 27.2099 18.8293 26.2654 16.9632 24.5424C17.7646 23.7009 18.566 22.7449 19.3273 21.686C20.621 21.5486 21.846 21.3368 22.968 21.0563C23.0996 21.6344 23.2026 22.1897 23.2656 22.7221ZM25.4695 18.904C24.9772 19.1158 24.4391 19.3047 23.8838 19.4821C23.5575 18.3602 23.1282 17.1924 22.5959 15.9961C23.1225 14.8054 23.5461 13.6434 23.8667 12.5272C24.4334 12.7046 24.9714 12.8992 25.4752 13.111C27.5016 13.9754 28.8124 15.1088 28.8124 16.0075C28.8067 16.9062 27.4958 18.0453 25.4695 18.904Z" fill="#61DAFB"/>
<path d="M16.0359 18.6236C17.4807 18.6236 18.6519 17.4524 18.6519 16.0076C18.6519 14.5628 17.4807 13.3916 16.0359 13.3916C14.5911 13.3916 13.4199 14.5628 13.4199 16.0076C13.4199 17.4524 14.5911 18.6236 16.0359 18.6236Z" fill="#61DAFB"/>
</svg>
