<svg width="32" height="32" viewBox="0 0 32 32" fill="none" xmlns="http://www.w3.org/2000/svg">
<path d="M21.96 16.7777C21.2811 16.7777 20.7307 16.2067 20.7307 15.5012C20.7307 14.7956 21.2822 14.2258 21.96 14.2258C22.6378 14.2258 23.1904 14.7968 23.1904 15.5012C23.1904 16.2055 22.64 16.7777 21.96 16.7777ZM21.96 13.7102C21.0082 13.7102 20.2349 14.5137 20.2349 15.5C20.2349 16.4863 21.0093 17.2909 21.96 17.2909C22.9107 17.2909 23.6862 16.4875 23.6862 15.5C23.6862 14.5125 22.9118 13.7102 21.96 13.7102Z" fill="#95C93D"/>
<path d="M27.9449 17.2427C27.9449 17.2627 27.9426 17.3194 27.9085 17.3606C27.8403 17.4196 27.7641 17.4043 27.7004 17.3347L25.0519 13.8873V17.3406C25.0519 17.3949 25.0098 17.4373 24.9598 17.4373C24.9097 17.4373 24.8677 17.3937 24.8677 17.3406V13.728C24.8677 13.6549 24.9188 13.5959 24.9848 13.59C25.0394 13.5805 25.094 13.6183 25.1463 13.7021L27.7607 17.1034V13.6549C27.7607 13.6018 27.8027 13.5581 27.8539 13.5581C27.9051 13.5581 27.946 13.6006 27.946 13.6549V17.2438L27.9449 17.2427ZM21.9598 17.4845C20.9057 17.4845 20.0482 16.5938 20.0482 15.5001C20.0482 14.4064 20.9057 13.518 21.9598 13.518C23.014 13.518 23.8703 14.4076 23.8703 15.5001C23.8703 16.5926 23.014 17.4845 21.9598 17.4845ZM27.8505 13.0662C27.4889 13.0662 27.2546 13.3222 27.2546 13.7174V15.644L25.7285 13.662C25.3885 13.2172 25.2736 13.0662 24.962 13.0662C24.6004 13.0662 24.3673 13.3222 24.3673 13.7174V15.4222C24.3241 14.0808 23.2619 13.0024 21.9598 13.0024C20.6578 13.0024 19.5513 14.1233 19.5513 15.5013C19.5513 16.8793 20.6327 18.0001 21.9598 18.0001C23.287 18.0001 24.3241 16.9218 24.365 15.5803V17.2828C24.365 17.678 24.5981 17.9329 24.9598 17.9329C25.3225 17.9329 25.5557 17.6768 25.5557 17.2828V15.3562L27.0784 17.3347C27.4059 17.7712 27.5275 17.9329 27.8482 17.9329C28.211 17.9329 28.4441 17.6768 28.4441 17.2828V13.7162C28.4441 13.321 28.211 13.065 27.8482 13.065L27.8505 13.0662Z" fill="#95C93D"/>
<path d="M3.72721 15.8587C3.89552 15.388 4.07406 14.8877 4.1855 14.5739L4.19005 14.5904C4.29808 14.8901 4.47549 15.3856 4.64379 15.8587H3.72721ZM4.18209 13.7268L4.1548 13.7292C4.01947 13.7457 3.90007 13.8613 3.84548 14.0288L3.83183 14.0583L3.03125 16.3047H5.33748L4.53121 14.0465C4.46525 13.8483 4.32993 13.7303 4.18095 13.7268H4.18209Z" fill="#95C93D"/>
<path d="M13.4891 15.8587C13.6563 15.388 13.8348 14.8877 13.9474 14.5739L13.9519 14.5904C14.0588 14.8901 14.2362 15.3856 14.4057 15.8587H13.4891ZM13.9428 13.7268L13.9155 13.7292C13.7814 13.7457 13.6608 13.8613 13.6062 14.0288L13.5937 14.0583L12.792 16.3047H15.0982L14.2931 14.0465C14.2271 13.8483 14.0929 13.7303 13.944 13.7268H13.9428Z" fill="#95C93D"/>
<path d="M17.891 15.3561H17.3168V14.3427H17.891C18.1776 14.3427 18.4073 14.5303 18.4073 14.8394C18.4073 15.1308 18.2208 15.3561 17.891 15.3561ZM18.9122 14.8394C18.9122 14.2577 18.4733 13.8188 17.891 13.8188H16.813V15.8811H17.891C18.4835 15.8811 18.9122 15.4434 18.9122 14.8406V14.8394Z" fill="#95C93D"/>
<path d="M18.9976 17.3912C18.9806 17.4066 18.9601 17.4148 18.9374 17.4148C18.9123 17.4148 18.8851 17.403 18.8669 17.3818L17.7774 16.0734H16.812V17.3193C16.812 17.3724 16.7699 17.4148 16.7187 17.4148C16.6675 17.4148 16.6266 17.3724 16.6266 17.3193V13.6265H17.89C18.578 13.6265 19.0966 14.1468 19.0966 14.8393C19.0966 15.5319 18.6474 16.0026 18.014 16.0604L19.0079 17.2544C19.0409 17.2945 19.0363 17.3547 18.9976 17.3901M15.5883 17.4019C15.5394 17.4207 15.4871 17.3948 15.4689 17.344L15.1676 16.4969H12.7226L12.419 17.3499C12.4053 17.3889 12.3701 17.4125 12.3314 17.4125C12.3212 17.4125 12.3109 17.4125 12.2996 17.4066C12.2518 17.3889 12.2268 17.3334 12.245 17.2839L13.4356 13.9556C13.5084 13.7303 13.6869 13.5651 13.8973 13.5392L13.9371 13.5356C14.1737 13.5392 14.3761 13.7102 14.4602 13.9698L15.6429 17.2792C15.6611 17.3287 15.6361 17.3842 15.5883 17.403V17.4019ZM11.176 17.4113C11.126 17.4196 11.0771 17.3842 11.0691 17.3322L10.5153 13.8955C10.5028 13.8235 10.463 13.7846 10.4016 13.781C10.3516 13.781 10.3277 13.7916 10.3038 13.8506L9.22459 17.3016C9.19957 17.3547 9.14726 17.4078 9.07335 17.4125C9.07335 17.4125 9.06652 17.4137 9.06311 17.4137C8.97441 17.4137 8.91982 17.3488 8.90504 17.2874L7.82926 13.8565C7.80537 13.7905 7.78036 13.7799 7.72463 13.7799C7.66777 13.7834 7.62911 13.8223 7.6166 13.8955L7.06279 17.3311C7.05369 17.3842 7.00593 17.4184 6.95589 17.4101C6.90585 17.4019 6.87174 17.3523 6.88084 17.2992L7.43351 13.8719C7.45626 13.7362 7.54268 13.5993 7.71895 13.5875C7.8611 13.5911 7.9498 13.6501 7.99983 13.7775L8.01803 13.8294L9.06652 17.186L10.1241 13.7999C10.1832 13.6489 10.2719 13.5864 10.4073 13.5864C10.5892 13.5982 10.6757 13.735 10.6973 13.8601L11.2522 17.298C11.2602 17.3499 11.2272 17.3995 11.176 17.4089V17.4113ZM5.82893 17.4019C5.78003 17.4196 5.72658 17.3948 5.70953 17.344L5.40703 16.4958H2.9632L2.65844 17.3488C2.64479 17.3877 2.60954 17.4113 2.57201 17.4113C2.56064 17.4113 2.5504 17.4101 2.54017 17.4054C2.4924 17.3877 2.46739 17.3311 2.48558 17.2827L3.67622 13.9545C3.74787 13.7291 3.92641 13.5639 4.13679 13.538L4.17659 13.5345C4.41313 13.538 4.61555 13.7091 4.6997 13.9686L5.88238 17.278C5.90057 17.3275 5.87556 17.383 5.82779 17.4019H5.82893ZM18.8714 16.2964C19.3195 15.9861 19.6026 15.4599 19.6026 14.8393C19.6026 13.8955 18.8953 13.151 17.9764 13.1074L17.9366 13.105H17.9264C17.915 13.105 17.9025 13.1038 17.8911 13.1038H17.1292L16.7198 13.105C16.4242 13.105 16.1239 13.3174 16.1239 13.7232V17.2202C16.1126 17.147 16.0921 17.0668 16.058 16.9641L16.0375 16.904L15.9261 16.5784L15.0106 14.0146V14.0087C14.9686 13.8908 14.9242 13.7669 14.873 13.6442C14.8651 13.6241 14.8571 13.6041 14.848 13.5852C14.8423 13.5734 14.8389 13.5616 14.8344 13.551H14.8298C14.6661 13.2253 14.3351 13 13.9496 13C13.5641 13 13.2218 13.2324 13.0603 13.5675L13.0581 13.5639C13.0524 13.5757 13.0478 13.5887 13.0433 13.6005C13.0387 13.6088 13.0353 13.6194 13.0308 13.6288C12.9762 13.7551 12.9307 13.886 12.8886 14.0087V14.0146L11.9709 16.5784L11.8356 16.9759L11.8288 16.9984C11.7912 17.1199 11.7719 17.2107 11.7639 17.2957V17.3063C11.7537 17.1222 11.6798 16.6645 11.5956 16.1678L11.1965 13.8034C11.093 13.1935 10.728 13.0661 10.4391 13.0661C9.84891 13.0661 9.72609 13.466 9.47932 14.2636L9.06993 15.5838L8.65941 14.2636C8.41377 13.4672 8.28982 13.0661 7.69962 13.0661C7.41191 13.0661 7.04687 13.1947 6.94224 13.8034L6.54423 16.1678C6.45666 16.6834 6.3782 17.1588 6.37592 17.3275L6.37365 17.2957C6.36455 17.2025 6.34294 17.1034 6.29746 16.9641L6.27585 16.904L6.1644 16.5784L5.24896 14.0146V14.0087C5.20689 13.8908 5.16254 13.7669 5.11023 13.6442C5.10226 13.6241 5.0943 13.6041 5.08407 13.5852C5.07952 13.5734 5.07611 13.5616 5.07042 13.551H5.06701C4.90326 13.2253 4.57233 13 4.18682 13C3.80132 13 3.45788 13.2324 3.29754 13.5675L3.29413 13.5639C3.28844 13.5757 3.28389 13.5887 3.27934 13.6005C3.27479 13.6088 3.27138 13.6194 3.26797 13.6288C3.21339 13.7551 3.1679 13.886 3.12582 14.0087V14.0146L2.21038 16.5772L2.07392 16.9748L2.06709 16.9972C2.02843 17.1187 2.01023 17.2095 2.00227 17.2945L2 17.3429C2 17.6484 2.2263 17.8997 2.51515 17.9245C2.6084 17.9387 2.68573 17.9222 2.74486 17.9021C2.90407 17.8478 3.03598 17.7357 3.10535 17.5824L3.10876 17.5847L3.16221 17.4514L3.31914 17.0172H5.05791L5.21485 17.4514C5.22508 17.4762 5.23532 17.5057 5.24783 17.5364H5.2501L5.26033 17.56C5.32629 17.7251 5.46389 17.8525 5.6322 17.9009C5.69247 17.9174 5.76866 17.9375 5.86191 17.9233C6.14848 17.8986 6.37365 17.6508 6.37592 17.3476C6.38047 17.6307 6.5954 17.9316 6.93997 17.9316C7.50857 17.9316 7.57566 17.4479 7.6166 17.16L7.85882 15.5012L8.42628 17.3936C8.54 17.777 8.72536 17.9328 9.0688 17.9328C9.41223 17.9328 9.59645 17.777 9.71017 17.3948L10.2788 15.5024L10.521 17.1612C10.5619 17.4502 10.6302 17.934 11.1976 17.934C11.5376 17.934 11.7503 17.6414 11.7605 17.3629C11.7696 17.6602 11.9902 17.9021 12.2734 17.9269C12.3667 17.941 12.444 17.9245 12.502 17.9045C12.6612 17.8502 12.7931 17.7381 12.8625 17.5847L12.8659 17.5871L12.9193 17.4538L13.0751 17.0196H14.8128L14.9708 17.4538C14.9799 17.4785 14.9913 17.508 15.0049 17.5399H15.0061L15.0163 17.5635C15.0823 17.7287 15.2187 17.8561 15.3882 17.9045C15.4485 17.921 15.5246 17.941 15.619 17.9269C15.892 17.9033 16.1069 17.6768 16.1285 17.3924C16.1683 17.7239 16.3901 17.9351 16.7176 17.9351C17.0803 17.9351 17.3146 17.6803 17.3146 17.2851V16.5996H17.5443L18.4017 17.6414C18.5348 17.8136 18.6519 17.9351 18.9533 17.9351C19.4082 17.9351 19.5617 17.5375 19.5617 17.3558C19.5617 17.147 19.4718 17.0031 19.3263 16.8403L18.8691 16.2987L18.8714 16.2964Z" fill="#95C93D"/>
<path d="M29.3874 13.5711H29.4454C29.5182 13.5711 29.5739 13.5463 29.5739 13.4838C29.5739 13.4331 29.5386 13.3941 29.4556 13.3941C29.4249 13.3941 29.4044 13.3941 29.3874 13.3965V13.5711ZM29.3874 13.9192H29.2634V13.3151C29.31 13.308 29.3612 13.2986 29.4499 13.2986C29.55 13.2986 29.6103 13.3151 29.6501 13.347C29.683 13.3741 29.7012 13.4142 29.7012 13.4779C29.7012 13.5499 29.6523 13.6006 29.5898 13.6183V13.623C29.641 13.6325 29.6739 13.6808 29.683 13.7705C29.6944 13.8649 29.7069 13.9015 29.716 13.9203H29.5875C29.5739 13.8979 29.5648 13.8448 29.5523 13.7634C29.5432 13.6985 29.5056 13.6714 29.4431 13.6714H29.3874V13.9203V13.9192ZM29.4761 13.1676C29.2566 13.1676 29.0792 13.3635 29.0792 13.6053C29.0792 13.8472 29.2566 14.0407 29.4783 14.0407C29.7001 14.043 29.8798 13.8496 29.8798 13.6053C29.8798 13.3611 29.7001 13.1676 29.4783 13.1676H29.4761ZM29.4806 13.0591C29.7695 13.0591 30.0003 13.3033 30.0003 13.603C30.0003 13.9026 29.7695 14.1492 29.4783 14.1492C29.1872 14.1492 28.9541 13.9074 28.9541 13.603C28.9541 13.2986 29.1895 13.0591 29.4783 13.0591H29.4806Z" fill="#95C93D"/>
</svg>
