<svg width="32" height="32" viewBox="0 0 32 32" fill="none" xmlns="http://www.w3.org/2000/svg">
<path d="M8.71455 21C8.08671 21 7.57039 20.8513 7.1656 20.5539C6.76907 20.2565 6.4758 19.8724 6.2858 19.4015C6.10406 18.9306 6.01318 18.4432 6.01318 17.9393C6.01318 17.2867 6.11232 16.634 6.31058 15.9814C6.50885 15.3205 6.78146 14.6927 7.12843 14.0979C7.48365 13.5031 7.88431 12.9744 8.33041 12.5118C8.7765 12.0492 9.25151 11.6857 9.75544 11.4213C10.2676 11.1487 10.7757 11.0124 11.2796 11.0124C11.6431 11.0124 11.9487 11.0991 12.1966 11.2726C12.4444 11.4378 12.5683 11.727 12.5683 12.14C12.5683 12.3879 12.5229 12.6646 12.432 12.9703C12.3494 13.2759 12.2338 13.5733 12.0851 13.8625C11.9446 14.1433 11.7835 14.3746 11.6018 14.5564C11.42 14.7381 11.2342 14.829 11.0442 14.829C10.9616 14.829 10.8748 14.8001 10.7839 14.7423C10.6931 14.6844 10.6105 14.5853 10.5361 14.4449C10.66 14.3044 10.8005 14.1351 10.9574 13.9368C11.1144 13.7303 11.2631 13.5155 11.4035 13.2924C11.544 13.0611 11.6596 12.8381 11.7505 12.6233C11.8414 12.4002 11.8868 12.2061 11.8868 12.0409C11.8868 11.8922 11.8455 11.7765 11.7629 11.6939C11.6803 11.6031 11.5357 11.5576 11.3292 11.5576C10.9657 11.5576 10.5898 11.6939 10.2015 11.9665C9.82153 12.2392 9.45391 12.6068 9.09869 13.0694C8.74346 13.5238 8.42128 14.0359 8.13214 14.6059C7.85127 15.1677 7.62822 15.7501 7.463 16.3532C7.29778 16.948 7.21517 17.5138 7.21517 18.0508C7.21517 18.4473 7.27299 18.8273 7.38865 19.1908C7.51256 19.5461 7.7067 19.8352 7.97105 20.0582C8.23541 20.2895 8.58237 20.4052 9.01194 20.4052C9.45804 20.4052 9.90001 20.2813 10.3378 20.0335C10.7839 19.7856 11.1887 19.4593 11.5522 19.0545C11.924 18.6497 12.2214 18.216 12.4444 17.7534L12.7666 17.9641C12.4775 18.5176 12.1305 19.0256 11.7257 19.4882C11.3209 19.9426 10.8624 20.3061 10.3502 20.5787C9.84631 20.8596 9.30108 21 8.71455 21Z" fill="#E10174"/>
<path d="M15.3231 21C14.844 21 14.3855 20.9174 13.9477 20.7522C13.5181 20.5869 13.167 20.335 12.8944 19.9963C12.6218 19.6576 12.4855 19.2363 12.4855 18.7323C12.4855 18.2862 12.5846 17.9393 12.7829 17.6914C12.9811 17.4354 13.229 17.2577 13.5263 17.1586C13.8237 17.0595 14.1129 17.0099 14.3938 17.0099C14.1294 17.2908 13.927 17.5799 13.7866 17.8773C13.6544 18.1747 13.5883 18.4597 13.5883 18.7323C13.5883 19.0132 13.6585 19.2776 13.799 19.5254C13.9477 19.765 14.1666 19.9591 14.4557 20.1078C14.7449 20.2648 15.1042 20.3432 15.5338 20.3432C15.9055 20.3432 16.2649 20.2813 16.6119 20.1574C16.9671 20.0335 17.2562 19.8476 17.4793 19.5998C17.7106 19.3519 17.8262 19.0421 17.8262 18.6704C17.8262 18.3317 17.7271 18.0425 17.5288 17.803C17.3388 17.5551 17.091 17.3362 16.7853 17.1462C16.4797 16.948 16.1575 16.7621 15.8188 16.5886C15.4801 16.4069 15.1579 16.2127 14.8522 16.0062C14.5466 15.7997 14.2946 15.5601 14.0964 15.2875C13.9064 15.0149 13.8114 14.6886 13.8114 14.3086C13.8114 13.9698 13.894 13.6105 14.0592 13.2305C14.2327 12.8422 14.4764 12.4787 14.7903 12.14C15.1042 11.8013 15.4842 11.5287 15.9303 11.3222C16.3764 11.1074 16.8721 11 17.4173 11C17.9873 11 18.388 11.1198 18.6193 11.3594C18.8506 11.5989 18.9662 11.9128 18.9662 12.3011C18.9662 12.6068 18.9126 12.9331 18.8052 13.28C18.6978 13.627 18.5656 13.9575 18.4086 14.2714C18.2599 14.5853 18.1154 14.8538 17.9749 15.0768C17.7932 15.0355 17.6569 14.9653 17.566 14.8662C17.4751 14.7588 17.4297 14.6183 17.4297 14.4449C17.4297 14.2714 17.4627 14.0772 17.5288 13.8625C17.6032 13.6477 17.6858 13.4246 17.7767 13.1933C17.8758 12.962 17.9584 12.739 18.0245 12.5242C18.0988 12.3011 18.136 12.107 18.136 11.9418C18.136 11.7931 18.0906 11.6774 17.9997 11.5948C17.9171 11.5122 17.7436 11.4709 17.4793 11.4709C17.0827 11.4709 16.7192 11.5576 16.3888 11.7311C16.0584 11.9046 15.7692 12.1235 15.5214 12.3879C15.2818 12.6522 15.0959 12.9331 14.9638 13.2305C14.8316 13.5196 14.7655 13.784 14.7655 14.0235C14.7655 14.3209 14.8605 14.577 15.0505 14.7918C15.2405 14.9983 15.4842 15.1884 15.7816 15.3618C16.0873 15.5353 16.4053 15.7088 16.7358 15.8823C17.0745 16.0558 17.3925 16.2499 17.6899 16.4647C17.9956 16.6795 18.2434 16.9356 18.4334 17.233C18.6234 17.5304 18.7184 17.8938 18.7184 18.3234C18.7184 18.753 18.6193 19.133 18.421 19.4634C18.231 19.7939 17.9708 20.0706 17.6404 20.2937C17.3099 20.525 16.9423 20.6985 16.5375 20.8141C16.141 20.938 15.7362 21 15.3231 21Z" fill="#E10174"/>
<path d="M22.1061 21C21.6269 21 21.1684 20.9174 20.7306 20.7522C20.301 20.5869 19.9499 20.335 19.6773 19.9963C19.4047 19.6576 19.2684 19.2363 19.2684 18.7323C19.2684 18.2862 19.3675 17.9393 19.5658 17.6914C19.7641 17.4354 20.0119 17.2577 20.3093 17.1586C20.6067 17.0595 20.8958 17.0099 21.1767 17.0099C20.9123 17.2908 20.7099 17.5799 20.5695 17.8773C20.4373 18.1747 20.3712 18.4597 20.3712 18.7323C20.3712 19.0132 20.4415 19.2776 20.5819 19.5254C20.7306 19.765 20.9495 19.9591 21.2387 20.1078C21.5278 20.2648 21.8871 20.3432 22.3167 20.3432C22.6885 20.3432 23.0478 20.2813 23.3948 20.1574C23.75 20.0335 24.0391 19.8476 24.2622 19.5998C24.4935 19.3519 24.6092 19.0421 24.6092 18.6704C24.6092 18.3317 24.51 18.0425 24.3118 17.803C24.1218 17.5551 23.8739 17.3362 23.5683 17.1462C23.2626 16.948 22.9404 16.7621 22.6017 16.5886C22.263 16.4069 21.9408 16.2127 21.6352 16.0062C21.3295 15.7997 21.0776 15.5601 20.8793 15.2875C20.6893 15.0149 20.5943 14.6886 20.5943 14.3086C20.5943 13.9698 20.6769 13.6105 20.8421 13.2305C21.0156 12.8422 21.2593 12.4787 21.5732 12.14C21.8871 11.8013 22.2672 11.5287 22.7132 11.3222C23.1593 11.1074 23.655 11 24.2002 11C24.7703 11 25.1709 11.1198 25.4022 11.3594C25.6335 11.5989 25.7492 11.9128 25.7492 12.3011C25.7492 12.6068 25.6955 12.9331 25.5881 13.28C25.4807 13.627 25.3485 13.9575 25.1916 14.2714C25.0429 14.5853 24.8983 14.8538 24.7579 15.0768C24.5761 15.0355 24.4398 14.9653 24.3489 14.8662C24.2581 14.7588 24.2126 14.6183 24.2126 14.4449C24.2126 14.2714 24.2457 14.0772 24.3118 13.8625C24.3861 13.6477 24.4687 13.4246 24.5596 13.1933C24.6587 12.962 24.7413 12.739 24.8074 12.5242C24.8818 12.3011 24.9189 12.107 24.9189 11.9418C24.9189 11.7931 24.8735 11.6774 24.7826 11.5948C24.7 11.5122 24.5265 11.4709 24.2622 11.4709C23.8657 11.4709 23.5022 11.5576 23.1717 11.7311C22.8413 11.9046 22.5522 12.1235 22.3043 12.3879C22.0648 12.6522 21.8789 12.9331 21.7467 13.2305C21.6145 13.5196 21.5484 13.784 21.5484 14.0235C21.5484 14.3209 21.6434 14.577 21.8334 14.7918C22.0235 14.9983 22.2672 15.1884 22.5646 15.3618C22.8702 15.5353 23.1883 15.7088 23.5187 15.8823C23.8574 16.0558 24.1755 16.2499 24.4729 16.4647C24.7785 16.6795 25.0263 16.9356 25.2163 17.233C25.4064 17.5304 25.5014 17.8938 25.5014 18.3234C25.5014 18.753 25.4022 19.133 25.204 19.4634C25.014 19.7939 24.7537 20.0706 24.4233 20.2937C24.0928 20.525 23.7252 20.6985 23.3204 20.8141C22.9239 20.938 22.5191 21 22.1061 21Z" fill="#E10174"/>
</svg>
