<svg width="32" height="32" viewBox="0 0 32 32" fill="none" xmlns="http://www.w3.org/2000/svg">
<path d="M16.419 14.8397V11.4186C17.0053 11.3967 18.3992 11.4629 19.3854 12.4653C20.3814 13.4778 20.715 15.17 20.3786 17.4972C20.0142 17.5587 19.7363 17.8748 19.7363 18.2566C19.7363 18.6825 20.0815 19.0277 20.5074 19.0277C20.9332 19.0277 21.2784 18.6825 21.2784 18.2566C21.2784 18.0207 21.1722 17.81 21.0054 17.6686C21.2996 15.7047 21.1432 14.133 20.5407 12.976C21.6256 12.0749 24.1381 12.724 24.4188 15.598C24.674 18.2113 22.7594 19.1533 21.9351 19.0593C21.7774 19.0413 21.7624 19.1435 21.7548 19.1946C21.7402 19.2926 21.7263 19.444 21.7097 19.5417C21.7034 19.579 21.6782 19.6679 21.7812 19.6856C22.0887 19.7383 22.3964 19.6976 22.6481 19.64C22.8277 20.1533 22.5152 21.4395 21.128 21.6488C21.1191 21.1793 21.0072 20.6393 20.6586 20.1748C20.5962 20.0916 20.5004 20.1699 20.5004 20.1699L20.204 20.4207C20.204 20.4207 20.1003 20.4974 20.1778 20.5972C20.7867 21.382 20.6519 23.339 19.2729 23.3502C18.4138 23.3573 18.3078 22.5128 18.3055 22.4596C18.2433 21.024 18.3055 16.7118 18.3055 16.7118C18.5777 16.5928 18.768 16.3214 18.768 16.0053C18.768 15.5795 18.4228 15.2343 17.997 15.2343C17.5712 15.2343 17.226 15.5795 17.226 16.0053C17.226 16.3102 17.4033 16.5729 17.66 16.6981C17.66 16.6981 17.623 21.0407 17.6605 22.4876C17.6612 22.5176 17.6232 23.2004 18.1274 23.6395C18.4205 23.8947 18.8783 24.0322 19.3282 23.9933C20.4657 23.8953 21.0023 22.9487 21.1793 22.2922C23.4408 21.8362 23.3577 19.8202 23.2594 19.4208C23.4791 19.3074 23.7864 19.1094 24.0847 18.784C24.5695 18.2552 25.1329 17.2687 25.0638 15.5716C24.9856 13.651 23.8197 12.7307 23.2931 12.4113C23.3797 12.0185 23.4453 11.2808 22.9509 10.6516C22.4741 10.0448 21.7253 9.88292 21.2944 9.84161C21.2661 9.5628 21.1653 9.16275 20.8509 8.80258C20.3858 8.27007 19.6186 8 18.5707 8H16.2279C16.0807 8 16.0962 8.12721 16.0962 8.12721V8.51049C16.0962 8.64579 16.2098 8.64552 16.2098 8.64552H18.5706C19.4185 8.64552 20.0199 8.83877 20.3583 9.21991C20.5611 9.4485 20.6296 9.70285 20.6509 9.88075C20.2744 9.98878 19.8808 10.2581 19.7071 10.8284C19.6944 10.8702 19.6647 10.9756 19.7532 10.9943C19.8301 11.0107 20.0056 11.0259 20.1048 11.0439C20.212 11.0634 20.2413 10.9922 20.2585 10.9552C20.7404 9.91687 23.0292 10.5795 22.6832 12.1605C22.4277 12.0807 21.325 11.7742 20.1984 12.427C18.3674 10.3435 15.7734 10.8405 15.7734 10.8405V14.8458C15.7734 14.996 15.9153 14.993 15.9153 14.993H16.27C16.27 14.9932 16.419 14.993 16.419 14.8397ZM17.997 16.3819C17.789 16.3819 17.6205 16.2133 17.6205 16.0054C17.6205 15.7973 17.789 15.6288 17.997 15.6288C18.205 15.6288 18.3735 15.7974 18.3735 16.0054C18.3735 16.2133 18.205 16.3819 17.997 16.3819ZM20.8839 18.2566C20.8839 18.4646 20.7153 18.6332 20.5073 18.6332C20.2994 18.6332 20.1308 18.4646 20.1308 18.2566C20.1308 18.0486 20.2994 17.8802 20.5073 17.8802C20.7153 17.8802 20.8839 18.0487 20.8839 18.2566Z" fill="#2094F3" stroke="#2094F3" stroke-width="0.25"/>
<path d="M15.7721 17.1603V20.5814C15.1858 20.6034 13.7919 20.5372 12.8057 19.5347C11.8097 18.5223 11.4761 16.83 11.8125 14.5028C12.1769 14.4414 12.4548 14.1252 12.4548 13.7435C12.4548 13.3175 12.1096 12.9724 11.6837 12.9724C11.2579 12.9724 10.9127 13.3175 10.9127 13.7435C10.9127 13.9793 11.0189 14.1901 11.1857 14.3315C10.8915 16.2953 11.048 17.8671 11.6505 19.0241C10.5655 19.9252 8.05305 19.276 7.77234 16.402C7.51708 13.7887 9.43175 12.8467 10.256 12.9407C10.4138 12.9587 10.4287 12.8566 10.4363 12.8055C10.451 12.7074 10.4648 12.5561 10.4814 12.4583C10.4877 12.4211 10.5129 12.3321 10.4099 12.3145C10.1024 12.2618 9.79473 12.3024 9.54306 12.3601C9.36337 11.8468 9.67596 10.5605 11.0632 10.3513C11.072 10.8208 11.1839 11.3607 11.5325 11.8253C11.5949 11.9084 11.6907 11.8302 11.6907 11.8302L11.9871 11.5793C11.9871 11.5793 12.0908 11.5027 12.0133 11.4028C11.4044 10.618 11.5393 8.66107 12.9182 8.64985C13.7773 8.64284 13.8833 9.48723 13.8856 9.54046C13.9478 10.9761 13.8856 15.2883 13.8856 15.2883C13.6134 15.4073 13.4231 15.6786 13.4231 15.9947C13.4231 16.4205 13.7683 16.7658 14.1941 16.7658C14.6199 16.7658 14.9652 16.4205 14.9652 15.9947C14.9652 15.6899 14.7878 15.4272 14.5311 15.302C14.5311 15.302 14.5681 10.9594 14.5307 9.51247C14.5299 9.48242 14.5679 8.79962 14.0638 8.36057C13.7706 8.10531 13.3128 7.96784 12.8629 8.00677C11.7254 8.10473 11.1889 9.05139 11.0118 9.70786C8.75031 10.1639 8.83343 12.1799 8.93177 12.5792C8.71202 12.6926 8.40471 12.8907 8.10642 13.2161C7.62162 13.7448 7.05827 14.7313 7.12736 16.4284C7.20557 18.3491 8.37137 19.2693 8.89805 19.5888C8.81144 19.9816 8.74584 20.7192 9.2402 21.3484C9.717 21.9553 10.4658 22.1171 10.8968 22.1584C10.9251 22.4372 11.0258 22.8373 11.3402 23.1974C11.8053 23.73 12.5725 24 13.6204 24H15.9632C16.1104 24 16.0949 23.8728 16.0949 23.8728V23.4896C16.0949 23.3543 15.9812 23.3545 15.9812 23.3545H13.6204C12.7726 23.3545 12.1712 23.1613 11.8328 22.7801C11.63 22.5516 11.5615 22.2972 11.5402 22.1193C11.9167 22.0113 12.3103 21.7419 12.484 21.1717C12.4967 21.1299 12.5264 21.0245 12.4379 21.0057C12.361 20.9894 12.1855 20.9742 12.0863 20.9561C11.9791 20.9367 11.9498 21.0079 11.9326 21.0449C11.4506 22.0832 9.16182 21.4205 9.50792 19.8396C9.76332 19.9194 10.8661 20.2259 11.9926 19.5731C13.6069 21.7883 16.4176 21.1596 16.4176 21.1596V17.1542C16.4176 17.0039 16.2757 17.0069 16.2757 17.0069H15.9211C15.9211 17.0069 15.7721 17.0071 15.7721 17.1603ZM14.1941 15.6181C14.4021 15.6181 14.5706 15.7868 14.5706 15.9946C14.5706 16.2027 14.402 16.3712 14.1941 16.3712C13.9861 16.3712 13.8175 16.2027 13.8175 15.9946C13.8175 15.7868 13.9861 15.6181 14.1941 15.6181ZM11.3072 13.7435C11.3072 13.5355 11.4758 13.3668 11.6837 13.3668C11.8917 13.3668 12.0603 13.5355 12.0603 13.7435C12.0603 13.9514 11.8917 14.1199 11.6837 14.1199C11.4758 14.1199 11.3072 13.9514 11.3072 13.7435Z" fill="#2094F3" stroke="#2094F3" stroke-width="0.25"/>
</svg>
