<svg width="32" height="32" viewBox="0 0 32 32" fill="none" xmlns="http://www.w3.org/2000/svg">
<ellipse cx="13.7043" cy="16.1739" rx="4.04998" ry="4.82141" stroke="#0C518A" stroke-width="1.34999"/>
<path d="M25.7823 12.3168C25.5774 11.9857 25.3307 11.6747 25.0431 11.3974C24.3564 10.7283 23.4054 10.2664 22.3825 10.1995C19.4268 9.96375 17.1008 12.9334 17.0838 15.7164C17.0806 15.8042 17.079 15.8924 17.0792 15.981C16.9901 18.8501 19.3504 21.9804 22.3825 21.7247C23.221 21.6643 24.0147 21.3395 24.6411 20.8478C24.9566 20.6019 25.2332 20.3164 25.4682 20.006C25.4682 20.006 25.4682 20.006 25.4682 20.006C25.1682 20.2542 24.8444 20.4652 24.5047 20.6306C23.8279 20.9621 23.0879 21.1022 22.3825 21.0373C19.903 20.8159 18.3848 18.2972 18.4286 15.981C18.4288 15.9092 18.4302 15.8378 18.4329 15.7669C18.483 13.5211 20.0086 11.1594 22.3825 10.9626C23.2253 10.8874 24.1139 11.1138 24.8847 11.5991C25.2056 11.7996 25.5069 12.0415 25.7823 12.3168Z" fill="#0C518A"/>
<path d="M5.192 17.0439C5.192 17.0439 5.192 17.0439 5.192 17.0439C5.16428 16.7074 5.15539 16.3725 5.16461 16.0408C5.20123 14.7134 5.52967 13.4407 6.09174 12.3138C6.79361 10.9038 7.86017 9.72234 9.15115 8.88976C9.15115 8.88976 9.15115 8.88976 9.15115 8.88976C10.4412 8.0558 11.957 7.56998 13.5309 7.51057C14.7892 7.46205 16.0843 7.68646 17.3091 8.19936C17.6153 8.32747 17.9168 8.4734 18.2121 8.63714C18.2121 8.63714 18.2121 8.63714 18.2121 8.63714C17.9706 8.40121 17.7113 8.18019 17.4363 7.97659C16.3375 7.16046 14.9819 6.63402 13.5647 6.49863C11.7936 6.32198 9.93753 6.76932 8.41887 7.75563C8.41887 7.75563 8.41887 7.75563 8.41887 7.75563C6.89497 8.73381 5.72343 10.2413 5.15558 11.9282C4.69572 13.2756 4.61765 14.7276 4.90926 16.065C4.98165 16.3994 5.07637 16.7267 5.192 17.0439Z" fill="#A64B6A"/>
<path d="M19.5353 23.4403C19.5353 23.4403 19.5353 23.4403 19.5353 23.4403C19.2488 23.5985 18.9562 23.7389 18.6592 23.8616C17.471 24.3529 16.216 24.5571 15.0023 24.4923C13.4841 24.4124 12.0313 23.9125 10.8102 23.0756C10.8102 23.0756 10.8102 23.0756 10.8102 23.0756C9.58816 22.24 8.59638 21.0666 7.97261 19.6802C7.47297 18.5722 7.20917 17.3284 7.23721 16.0429C7.24415 15.7216 7.26919 15.398 7.313 15.0737C7.313 15.0737 7.313 15.0737 7.313 15.0737C7.1825 15.3738 7.07213 15.6852 6.98352 16.0051C6.62695 17.2839 6.63141 18.6987 7.02119 20.0266C7.50102 21.6887 8.591 23.1985 10.0477 24.1896C10.0477 24.1896 10.0477 24.1896 10.0477 24.1896C11.4986 25.1889 13.3005 25.6587 15.0237 25.5045C16.4026 25.3874 17.7231 24.8796 18.7863 24.0844C19.0524 23.8861 19.3028 23.6705 19.5353 23.4403Z" fill="#197747"/>
</svg>
