<svg width="32" height="32" viewBox="0 0 32 32" fill="none" xmlns="http://www.w3.org/2000/svg">
<path d="M10.8535 21.2053H8.66016V10.2384H10.8535V21.2053Z" fill="url(#paint0_linear_483_1723)"/>
<path d="M21.3435 19.5682C22.011 19.7272 22.5832 20.045 23.2349 20.5854L22.1382 22C21.0892 21.3325 20.5806 21.1735 19.9289 21.1735C19.4839 21.1735 19.2137 21.2212 18.7686 21.3166C18.419 21.396 18.0534 21.4278 17.6402 21.4278C14.2547 21.4278 12.2203 19.155 12.2203 15.7219C12.2203 12.2728 14.2547 10 17.6402 10C21.0097 10 23.06 12.2728 23.06 15.7219C23.06 17.2636 22.4878 18.6781 21.3435 19.5682ZM14.509 15.7219C14.509 18.2808 15.6852 19.7907 17.6402 19.7907C19.5792 19.7907 20.7554 18.2808 20.7554 15.7219C20.7554 13.147 19.5792 11.653 17.6402 11.653C15.6852 11.653 14.509 13.147 14.509 15.7219Z" fill="url(#paint1_linear_483_1723)"/>
<defs>
<linearGradient id="paint0_linear_483_1723" x1="3.43685" y1="16" x2="23.2349" y2="16" gradientUnits="userSpaceOnUse">
<stop stop-color="#CF3A85"/>
<stop offset="1" stop-color="#3A5AEB"/>
</linearGradient>
<linearGradient id="paint1_linear_483_1723" x1="3.43685" y1="16" x2="23.2349" y2="16" gradientUnits="userSpaceOnUse">
<stop stop-color="#CF3A85"/>
<stop offset="1" stop-color="#3A5AEB"/>
</linearGradient>
</defs>
</svg>
