<svg width="32" height="32" viewBox="0 0 32 32" fill="none" xmlns="http://www.w3.org/2000/svg">
<g clip-path="url(#clip0_483_338)">
<rect x="5" y="5" width="22" height="22" rx="4" fill="#18181D"/>
<g filter="url(#filter0_f_483_338)">
<path d="M-19.7069 -10.2773L8.0439 -16.5365C6.18586 -12.064 7.05194 -4.90765 25.3805 -12.0625C43.7091 -19.2173 35.0553 -8.70764 28.4373 -2.55843L7.65416 17.0258L-0.11635 16.4991L-22.5447 25.8824L-30.3611 12.8853L-19.7069 -10.2773Z" fill="#4A436E"/>
</g>
<g filter="url(#filter1_f_483_338)">
<path d="M12.7385 18.7164L30.2778 14.7604C29.1034 17.5872 29.6508 22.1101 41.235 17.5881C52.8192 13.066 47.3497 19.7085 43.167 23.5949L30.0314 35.9727L25.1203 35.6398L10.9449 41.5703L6.0047 33.3558L12.7385 18.7164Z" fill="#9D5E48"/>
</g>
<g style="mix-blend-mode:overlay">
<path d="M15.8086 9.125V12.4268H15.8154L15.8086 12.7734H12.8584V10.1113H12.5352V13.0859H15.8154V15.4404C15.8154 15.6397 15.6534 15.8018 15.4541 15.8018L9.5625 15.8008V14.1416H12.8584V13.876H12.8037V13.873H9.5625V9.64062C9.5625 9.35713 9.79268 9.12695 10.0762 9.12695H12.6191C12.6868 9.12582 12.7554 9.125 12.8252 9.125H15.8086ZM21.8613 9.125C22.1446 9.12522 22.374 9.35532 22.374 9.63867V15.8008H19.4814V14.3779H19.1396V15.8008H16.2471V9.125H21.8613ZM19.1396 10.4688V13.4443H19.4814V10.4688H19.1396Z" fill="white"/>
<path fill-rule="evenodd" clip-rule="evenodd" d="M13.4727 22.8748L11.0243 22.8609L10.0807 22.8699C9.79531 22.8726 9.5625 22.642 9.5625 22.3566V16.2061H13.4709V18.7705H13.8687V16.2246H13.9855L17.7145 16.2061V22.8748L16.3047 22.8609L13.8687 22.8748L13.8687 20.283H13.4727L13.4727 22.8748ZM18.0529 22.8565H21.8608C22.1443 22.8565 22.3741 22.6267 22.3741 22.3432V16.2062H18.0529V22.8565Z" fill="white"/>
</g>
<g style="mix-blend-mode:overlay">
<path d="M15.8086 9.125V12.4268H15.8154L15.8086 12.7734H12.8584V10.1113H12.5352V13.0859H15.8154V15.4404C15.8154 15.6397 15.6534 15.8018 15.4541 15.8018L9.5625 15.8008V14.1416H12.8584V13.876H12.8037V13.873H9.5625V9.64062C9.5625 9.35713 9.79268 9.12695 10.0762 9.12695H12.6191C12.6868 9.12582 12.7554 9.125 12.8252 9.125H15.8086ZM21.8613 9.125C22.1446 9.12522 22.374 9.35532 22.374 9.63867V15.8008H19.4814V14.3779H19.1396V15.8008H16.2471V9.125H21.8613ZM19.1396 10.4688V13.4443H19.4814V10.4688H19.1396Z" fill="white"/>
<path fill-rule="evenodd" clip-rule="evenodd" d="M13.4727 22.8748L11.0243 22.8609L10.0807 22.8699C9.79531 22.8726 9.5625 22.642 9.5625 22.3566V16.2061H13.4709V18.7705H13.8687V16.2246H13.9855L17.7145 16.2061V22.8748L16.3047 22.8609L13.8687 22.8748L13.8687 20.283H13.4727L13.4727 22.8748ZM18.0529 22.8565H21.8608C22.1443 22.8565 22.3741 22.6267 22.3741 22.3432V16.2062H18.0529V22.8565Z" fill="white"/>
</g>
</g>
<defs>
<filter id="filter0_f_483_338" x="-42.9689" y="-29.1439" width="91.9534" height="67.6338" filterUnits="userSpaceOnUse" color-interpolation-filters="sRGB">
<feFlood flood-opacity="0" result="BackgroundImageFix"/>
<feBlend mode="normal" in="SourceGraphic" in2="BackgroundImageFix" result="shape"/>
<feGaussianBlur stdDeviation="6.30378" result="effect1_foregroundBlur_483_338"/>
</filter>
<filter id="filter1_f_483_338" x="-10.2927" y="-1.53708" width="74.7753" height="59.405" filterUnits="userSpaceOnUse" color-interpolation-filters="sRGB">
<feFlood flood-opacity="0" result="BackgroundImageFix"/>
<feBlend mode="normal" in="SourceGraphic" in2="BackgroundImageFix" result="shape"/>
<feGaussianBlur stdDeviation="8.14879" result="effect1_foregroundBlur_483_338"/>
</filter>
<clipPath id="clip0_483_338">
<rect x="5" y="5" width="22" height="22" rx="4" fill="white"/>
</clipPath>
</defs>
</svg>
