<svg width="32" height="32" viewBox="0 0 32 32" fill="none" xmlns="http://www.w3.org/2000/svg">
<path d="M16 7C11.02 7 7 11.0066 7 15.9701C7 18.0033 7.66 19.9169 8.86 21.412L16.36 11.6047H15.58H14.8C13.96 11.6047 13.12 11.6645 12.58 11.7841C12.22 11.8439 11.92 11.9635 11.68 12.1429C11.38 12.3223 11.02 12.8007 10.78 13.2193C10.78 13.2791 10.72 13.3389 10.66 13.4585L10.12 13.3987L10.84 10.588H20.2L12.76 20.4551C13.24 20.3953 13.42 20.3953 13.84 20.3953C14.14 20.3953 14.62 20.3953 15.22 20.4551L16.54 20.5149C17.02 20.5149 17.44 20.5748 17.74 20.5748C18.4 20.5748 18.88 20.515 19.3 20.3953C19.66 20.2757 19.96 20.1561 20.26 19.9169C20.8 19.5581 21.28 18.9601 21.58 18.4219C21.58 18.3621 21.64 18.3023 21.7 18.1827L22.12 18.3023C22 18.7807 21.94 18.9601 21.7 19.4385C21.28 20.3355 20.86 20.9336 20.2 21.412C19.54 21.8904 18.88 22.1296 18.04 22.1296H17.92C17.32 22.1296 16.84 22.0698 15.34 21.8306C13.84 21.5914 13.06 21.5316 12.28 21.5316C11.8 21.5316 11.32 21.5914 10.84 21.6512C10.18 21.7708 9.94 21.8306 9.34 22.0698C10.96 23.8638 13.36 25 16 25C20.98 25 25 20.9934 25 16.0299C25 11.0066 20.98 7 16 7Z" fill="#2167AE"/>
</svg>
