<svg width="430" height="430" viewBox="0 0 430 430" fill="none" xmlns="http://www.w3.org/2000/svg">
<g clip-path="url(#clip0_1490_5207)">
<path d="M428.925 0H1.075C0.481294 0 0 0.481294 0 1.075V428.925C0 429.519 0.481294 430 1.075 430H428.925C429.519 430 430 429.519 430 428.925V1.075C430 0.481294 429.519 0 428.925 0Z" fill="#EAEAEA"/>
<g opacity="0.5">
<g opacity="0.5">
<path d="M215.389 263.731C188.352 263.731 166.434 241.813 166.434 214.775C166.434 187.738 188.352 165.819 215.389 165.819C242.427 165.819 264.345 187.738 264.345 214.775C264.345 241.813 242.427 263.731 215.389 263.731Z" fill="#FAFAFA"/>
<path d="M215.389 263.731C188.352 263.731 166.434 241.813 166.434 214.775C166.434 187.738 188.352 165.819 215.389 165.819C242.427 165.819 264.345 187.738 264.345 214.775C264.345 241.813 242.427 263.731 215.389 263.731Z" stroke="#C9C9C9" stroke-width="0.86645"/>
</g>
<path d="M285.266 285.266L145 145" stroke="url(#paint0_linear_1490_5207)" stroke-width="0.86645"/>
<path d="M215.39 235.137C204.144 235.137 195.027 226.021 195.027 214.775C195.027 203.529 204.144 194.413 215.39 194.413C226.635 194.413 235.752 203.529 235.752 214.775C235.752 226.021 226.635 235.137 215.39 235.137Z" fill="white"/>
<mask id="mask0_1490_5207" style="mask-type:luminance" maskUnits="userSpaceOnUse" x="208" y="207" width="15" height="15">
<path d="M208.457 207.844H222.321V221.707H208.457V207.844Z" fill="white"/>
</mask>
<g mask="url(#mask0_1490_5207)">
<path fill-rule="evenodd" clip-rule="evenodd" d="M221.022 210.01H209.759V215.806L211.032 214.533L211.222 214.342H214.471L214.498 214.316L217.53 211.283H218.45L221.022 213.856V210.01ZM215.391 215.261L216.716 216.586L217.176 217.046L216.257 217.965L215.798 217.505L213.934 215.642H211.761L209.785 217.618L209.759 217.644V218.674C209.759 218.904 209.85 219.125 210.012 219.287C210.175 219.45 210.395 219.541 210.625 219.541H220.156C220.386 219.541 220.606 219.45 220.769 219.287C220.931 219.125 221.022 218.904 221.022 218.674V215.694L217.99 212.662L215.417 215.235L215.391 215.261ZM208.459 217.211V218.674C208.459 218.959 208.515 219.241 208.623 219.504C208.732 219.766 208.892 220.005 209.093 220.206C209.294 220.407 209.533 220.567 209.796 220.676C210.059 220.785 210.341 220.841 210.625 220.841H220.156C220.44 220.841 220.722 220.785 220.985 220.676C221.248 220.567 221.487 220.407 221.688 220.206C221.889 220.005 222.048 219.766 222.157 219.503C222.266 219.241 222.322 218.959 222.322 218.674V216.127L222.808 215.642L222.349 215.182L222.322 215.156V208.71H208.459V217.106L208.406 217.158L208.459 217.211Z" fill="#666666"/>
</g>
<path d="M215.39 235.137C204.144 235.137 195.027 226.021 195.027 214.775C195.027 203.529 204.144 194.413 215.39 194.413C226.635 194.413 235.752 203.529 235.752 214.775C235.752 226.021 226.635 235.137 215.39 235.137Z" stroke="#C9C9C9" stroke-width="0.86645"/>
</g>
</g>
<defs>
<linearGradient id="paint0_linear_1490_5207" x1="145.206" y1="144.551" x2="285.716" y2="285.059" gradientUnits="userSpaceOnUse">
<stop stop-color="#C9C9C9" stop-opacity="0"/>
<stop offset="0.208" stop-color="#C9C9C9"/>
<stop offset="0.792" stop-color="#C9C9C9"/>
<stop offset="1" stop-color="#C9C9C9" stop-opacity="0"/>
</linearGradient>
<clipPath id="clip0_1490_5207">
<rect width="430" height="430" fill="white"/>
</clipPath>
</defs>
</svg>
