<svg width="40" height="40" viewBox="0 0 40 40" fill="none" xmlns="http://www.w3.org/2000/svg">
<g clip-path="url(#clip0_518_11376)">
<path d="M29.9407 21.6672C28.9224 21.6672 28.0968 20.8106 28.0968 19.7523C28.0968 18.6941 28.9241 17.8393 29.9407 17.8393C30.9574 17.8393 31.7864 18.6958 31.7864 19.7523C31.7864 20.8089 30.9608 21.6672 29.9407 21.6672ZM29.9407 17.0659C28.513 17.0659 27.353 18.2711 27.353 19.7506C27.353 21.23 28.5147 22.437 29.9407 22.437C31.3668 22.437 32.5301 21.2318 32.5301 19.7506C32.5301 18.2693 31.3685 17.0659 29.9407 17.0659Z" fill="#95C93D"/>
<path d="M38.9183 22.3638C38.9183 22.3938 38.9149 22.4788 38.8637 22.5407C38.7614 22.6292 38.6471 22.6062 38.5516 22.5018L34.5788 17.3307V22.5106C34.5788 22.592 34.5157 22.6558 34.4406 22.6558C34.3656 22.6558 34.3025 22.5903 34.3025 22.5106V17.0918C34.3025 16.9821 34.3792 16.8936 34.4781 16.8847C34.56 16.8706 34.6419 16.9272 34.7204 17.0529L38.642 22.1549V16.9821C38.642 16.9024 38.7051 16.837 38.7819 16.837C38.8586 16.837 38.92 16.9007 38.92 16.9821V22.3655L38.9183 22.3638ZM29.9407 22.7265C28.3595 22.7265 27.0733 21.3904 27.0733 19.7499C27.0733 18.1094 28.3595 16.7768 29.9407 16.7768C31.522 16.7768 32.8065 18.1111 32.8065 19.7499C32.8065 21.3886 31.522 22.7265 29.9407 22.7265ZM38.7767 16.099C38.2343 16.099 37.8829 16.483 37.8829 17.0759V19.9658L35.5937 16.9927C35.0837 16.3255 34.9114 16.099 34.444 16.099C33.9016 16.099 33.5519 16.483 33.5519 17.0759V19.6331C33.4871 17.6209 31.8939 16.0034 29.9407 16.0034C27.9876 16.0034 26.3279 17.6846 26.3279 19.7517C26.3279 21.8187 27.9501 23.4999 29.9407 23.4999C31.9314 23.4999 33.4871 21.8824 33.5485 19.8702V22.4239C33.5485 23.0168 33.8982 23.399 34.4406 23.399C34.9848 23.399 35.3345 23.015 35.3345 22.4239V19.534L37.6185 22.5018C38.1098 23.1566 38.2923 23.399 38.7733 23.399C39.3175 23.399 39.6672 23.015 39.6672 22.4239V17.0741C39.6672 16.4812 39.3175 16.0972 38.7733 16.0972L38.7767 16.099Z" fill="#95C93D"/>
<path d="M2.5918 20.2867C2.84425 19.5806 3.11206 18.8303 3.27923 18.3595L3.28605 18.3843C3.4481 18.8338 3.71421 19.5771 3.96666 20.2867H2.5918ZM3.27411 17.0889L3.23317 17.0924C3.03018 17.1172 2.85108 17.2906 2.7692 17.5419L2.74873 17.5862L1.54785 20.9557H5.00719L3.79779 17.5685C3.69885 17.2711 3.49586 17.0942 3.27241 17.0889H3.27411Z" fill="#95C93D"/>
<path d="M17.2346 20.2867C17.4854 19.5806 17.7532 18.8303 17.922 18.3595L17.9289 18.3843C18.0892 18.8338 18.3553 19.5771 18.6095 20.2867H17.2346ZM17.9152 17.0889L17.8743 17.0924C17.673 17.1172 17.4922 17.2906 17.4103 17.5419L17.3915 17.5862L16.189 20.9557H19.6483L18.4406 17.5685C18.3417 17.2711 18.1404 17.0942 17.9169 17.0889H17.9152Z" fill="#95C93D"/>
<path d="M23.8378 19.5344H22.9764V18.0143H23.8378C24.2677 18.0143 24.6122 18.2957 24.6122 18.7593C24.6122 19.1964 24.3325 19.5344 23.8378 19.5344ZM25.3696 18.7593C25.3696 17.8868 24.7112 17.2285 23.8378 17.2285H22.2207V20.322H23.8378C24.7265 20.322 25.3696 19.6654 25.3696 18.7611V18.7593Z" fill="#95C93D"/>
<path d="M25.4969 22.5869C25.4714 22.6099 25.4407 22.6223 25.4065 22.6223C25.369 22.6223 25.3281 22.6046 25.3008 22.5727L23.6666 20.6101H22.2184V22.4789C22.2184 22.5585 22.1553 22.6223 22.0785 22.6223C22.0018 22.6223 21.9404 22.5585 21.9404 22.4789V16.9397H23.8355C24.8675 16.9397 25.6453 17.7202 25.6453 18.759C25.6453 19.7978 24.9716 20.5039 24.0214 20.5906L25.5123 22.3816C25.5618 22.4417 25.5549 22.532 25.4969 22.5851M20.383 22.6028C20.3096 22.6311 20.2312 22.5922 20.2039 22.5161L19.7518 21.2454H16.0844L15.6289 22.5249C15.6085 22.5833 15.5556 22.6187 15.4976 22.6187C15.4822 22.6187 15.4669 22.6187 15.4498 22.6099C15.3782 22.5833 15.3407 22.5001 15.368 22.4258L17.1539 17.4335C17.2631 17.0954 17.5309 16.8477 17.8465 16.8088L17.9062 16.8034C18.261 16.8088 18.5646 17.0654 18.6908 17.4547L20.4649 22.4187C20.4922 22.4931 20.4546 22.5762 20.383 22.6046V22.6028ZM13.7645 22.6169C13.6895 22.6293 13.6161 22.5762 13.6042 22.4984L12.7734 17.3432C12.7547 17.2353 12.695 17.1769 12.6029 17.1715C12.5278 17.1715 12.492 17.1875 12.4562 17.276L10.8374 22.4524C10.7998 22.532 10.7214 22.6116 10.6105 22.6187C10.6105 22.6187 10.6003 22.6205 10.5952 22.6205C10.4621 22.6205 10.3802 22.5231 10.358 22.4311L8.74437 17.2848C8.70855 17.1857 8.67102 17.1698 8.58744 17.1698C8.50215 17.1751 8.44415 17.2335 8.42539 17.3432L7.59467 22.4966C7.58102 22.5762 7.50938 22.6276 7.43432 22.6152C7.35927 22.6028 7.3081 22.5285 7.32174 22.4488L8.15076 17.3078C8.18487 17.1043 8.31451 16.899 8.57891 16.8813C8.79213 16.8866 8.92519 16.9751 9.00024 17.1662L9.02753 17.2441L10.6003 22.2789L12.1867 17.1999C12.2754 16.9733 12.4084 16.8795 12.6114 16.8795C12.8843 16.8972 13.014 17.1025 13.0464 17.2901L13.8788 22.4471C13.8907 22.5249 13.8413 22.5992 13.7645 22.6134V22.6169ZM5.74389 22.6028C5.67054 22.6293 5.59036 22.5922 5.56478 22.5161L5.11104 21.2436H1.44529L0.988141 22.5231C0.967672 22.5815 0.914792 22.6169 0.858501 22.6169C0.841443 22.6169 0.826091 22.6152 0.810739 22.6081C0.739096 22.5815 0.701568 22.4966 0.728861 22.424L2.51482 17.4317C2.62229 17.0937 2.8901 16.8459 3.20567 16.807L3.26537 16.8017C3.62018 16.807 3.92381 17.0636 4.05004 17.4529L5.82406 22.417C5.85135 22.4913 5.81382 22.5745 5.74218 22.6028H5.74389ZM25.3076 20.9446C25.9797 20.4791 26.4044 19.6898 26.4044 18.759C26.4044 17.3432 25.3434 16.2265 23.9651 16.161L23.9054 16.1575H23.8901C23.873 16.1575 23.8543 16.1557 23.8372 16.1557H22.6943L22.0802 16.1575C21.6367 16.1575 21.1864 16.4761 21.1864 17.0848V22.3303C21.1694 22.2205 21.1386 22.1002 21.0875 21.9462L21.0568 21.856L20.8896 21.3675L19.5164 17.5219V17.5131C19.4533 17.3361 19.3868 17.1503 19.31 16.9663C19.2981 16.9362 19.2862 16.9061 19.2725 16.8778C19.264 16.8601 19.2589 16.8424 19.252 16.8265H19.2452C18.9996 16.338 18.5032 16 17.9249 16C17.3467 16 16.8332 16.3486 16.591 16.8512L16.5876 16.8459C16.5791 16.8636 16.5722 16.8831 16.5654 16.9008C16.5586 16.9132 16.5535 16.9291 16.5467 16.9433C16.4648 17.1326 16.3965 17.3291 16.3334 17.5131V17.5219L14.9569 21.3675L14.7539 21.9639L14.7436 21.9975C14.6873 22.1798 14.6583 22.3161 14.6464 22.4435V22.4594C14.6311 22.1834 14.5202 21.4967 14.394 20.7517L13.7952 17.2052C13.64 16.2902 13.0924 16.0991 12.6592 16.0991C11.7739 16.0991 11.5896 16.699 11.2195 17.8954L10.6054 19.8757L9.9896 17.8954C9.62115 16.7008 9.43522 16.0991 8.54991 16.0991C8.11835 16.0991 7.57079 16.292 7.41385 17.2052L6.81683 20.7517C6.68548 21.525 6.56778 22.2382 6.56437 22.4913L6.56096 22.4435C6.54731 22.3037 6.5149 22.155 6.44667 21.9462L6.41426 21.856L6.24709 21.3675L4.87393 17.5219V17.5131C4.81082 17.3361 4.74429 17.1503 4.66583 16.9663C4.65389 16.9362 4.64194 16.9061 4.62659 16.8778C4.61977 16.8601 4.61465 16.8424 4.60612 16.8265H4.60101C4.35537 16.338 3.85899 16 3.28072 16C2.70246 16 2.18731 16.3486 1.9468 16.8512L1.94168 16.8459C1.93315 16.8636 1.92633 16.8831 1.9195 16.9008C1.91268 16.9132 1.90756 16.9291 1.90244 16.9433C1.82057 17.1326 1.75234 17.3291 1.68922 17.5131V17.5219L0.31606 21.3658L0.111365 21.9622L0.10113 21.9958C0.0431331 22.1781 0.0158404 22.3143 0.00389986 22.4417L0.000488281 22.5143C0.000488281 22.9727 0.339941 23.3496 0.773211 23.3868C0.913086 23.408 1.02908 23.3832 1.11778 23.3531C1.35659 23.2717 1.55446 23.1036 1.65852 22.8736L1.66363 22.8771L1.74381 22.6771L1.97921 22.0259H4.58736L4.82276 22.6771C4.83811 22.7143 4.85346 22.7585 4.87223 22.8045H4.87564L4.89099 22.8399C4.98993 23.0877 5.19633 23.2788 5.44878 23.3514C5.53919 23.3761 5.65348 23.4062 5.79335 23.385C6.22321 23.3478 6.56096 22.9762 6.56437 22.5214C6.57119 22.9461 6.89359 23.3974 7.41044 23.3974C8.26334 23.3974 8.36398 22.6718 8.42539 22.24L8.78872 19.7518L9.63991 22.5904C9.81049 23.1656 10.0885 23.3992 10.6037 23.3992C11.1188 23.3992 11.3952 23.1656 11.5657 22.5922L12.4186 19.7536L12.782 22.2418C12.8434 22.6753 12.9457 23.4009 13.7969 23.4009C14.307 23.4009 14.6259 22.962 14.6413 22.5444C14.6549 22.9904 14.9859 23.3531 15.4106 23.3903C15.5505 23.4115 15.6665 23.3868 15.7535 23.3567C15.9923 23.2753 16.1901 23.1072 16.2942 22.8771L16.2993 22.8806L16.3795 22.6807L16.6132 22.0294H19.2196L19.4567 22.6807C19.4704 22.7178 19.4874 22.7621 19.5079 22.8098H19.5096L19.525 22.8452C19.6239 23.093 19.8286 23.2841 20.0828 23.3567C20.1732 23.3815 20.2875 23.4115 20.429 23.3903C20.8384 23.3549 21.1608 23.0151 21.1932 22.5886C21.2529 23.0859 21.5856 23.4027 22.0768 23.4027C22.621 23.4027 22.9724 23.0204 22.9724 22.4276V21.3994H23.3169L24.6031 22.962C24.8027 23.2204 24.9784 23.4027 25.4304 23.4027C26.1127 23.4027 26.343 22.8063 26.343 22.5338C26.343 22.2205 26.2083 22.0046 25.9899 21.7604L25.3042 20.9481L25.3076 20.9446Z" fill="#95C93D"/>
</g>
<defs>
<clipPath id="clip0_518_11376">
<rect width="40" height="40" fill="white"/>
</clipPath>
</defs>
</svg>
