<svg width="40" height="40" viewBox="0 0 40 40" fill="none" xmlns="http://www.w3.org/2000/svg">
<path d="M20.6051 18.2594V13.1278C21.4844 13.0949 23.5753 13.1942 25.0546 14.6979C26.5485 16.2166 27.049 18.7548 26.5443 22.2456C25.9978 22.3378 25.581 22.812 25.581 23.3846C25.581 24.0234 26.0988 24.5412 26.7375 24.5412C27.3762 24.5412 27.8941 24.0234 27.8941 23.3846C27.8941 23.0308 27.7348 22.7147 27.4846 22.5026C27.9259 19.5569 27.6912 17.1994 26.7874 15.4639C28.4149 14.1122 32.1835 15.086 32.6045 19.3968C32.9874 23.3167 30.1155 24.7297 28.8791 24.5887C28.6425 24.5617 28.6201 24.715 28.6086 24.7916C28.5867 24.9386 28.5659 25.1657 28.541 25.3122C28.5316 25.3681 28.4937 25.5016 28.6482 25.5281C29.1095 25.6071 29.571 25.5461 29.9485 25.4597C30.218 26.2296 29.7491 28.159 27.6684 28.4728C27.6551 27.7687 27.4873 26.9586 26.9644 26.2619C26.8708 26.1372 26.7271 26.2545 26.7271 26.2545L26.2825 26.6308C26.2825 26.6308 26.127 26.7458 26.2432 26.8956C27.1565 28.0727 26.9542 31.0081 24.8858 31.0249C23.5972 31.0355 23.4383 29.7689 23.4348 29.689C23.3414 27.5357 23.4348 21.0675 23.4348 21.0675C23.843 20.8889 24.1285 20.4819 24.1285 20.0077C24.1285 19.3691 23.6107 18.8512 22.972 18.8512C22.3333 18.8512 21.8155 19.369 21.8155 20.0077C21.8155 20.465 22.0815 20.8591 22.4665 21.0469C22.4665 21.0469 22.4111 27.5607 22.4672 29.731C22.4684 29.7761 22.4113 30.8002 23.1675 31.4588C23.6073 31.8417 24.294 32.0479 24.9688 31.9895C26.675 31.8426 27.4798 30.4226 27.7454 29.4379C31.1376 28.754 31.0129 25.7299 30.8654 25.131C31.195 24.9609 31.656 24.6638 32.1034 24.1757C32.8306 23.3826 33.6756 21.9029 33.572 19.3572C33.4547 16.4763 31.7059 15.096 30.916 14.6168C31.0459 14.0276 31.1443 12.9211 30.4027 11.9774C29.6876 11.0671 28.5644 10.8243 27.918 10.7624C27.8755 10.3442 27.7244 9.74409 27.2528 9.20385C26.5552 8.40509 25.4044 8 23.8325 8H20.3185C20.0976 8 20.1208 8.19081 20.1208 8.19081V8.76572C20.1208 8.96867 20.2913 8.96826 20.2913 8.96826H23.8324C25.1042 8.96826 26.0063 9.25813 26.5138 9.82984C26.8181 10.1727 26.9208 10.5542 26.9528 10.8211C26.3881 10.9831 25.7977 11.3871 25.5371 12.2425C25.518 12.3052 25.4735 12.4633 25.6062 12.4914C25.7216 12.516 25.9849 12.5388 26.1336 12.5658C26.2945 12.5951 26.3384 12.4882 26.3641 12.4327C27.0871 10.8753 30.5202 11.8692 30.0011 14.2406C29.618 14.1209 27.9639 13.6613 26.2741 14.6405C23.5276 11.5152 19.6367 12.2607 19.6367 12.2607V18.2685C19.6367 18.4938 19.8495 18.4894 19.8495 18.4894H20.3815C20.3816 18.4896 20.6051 18.4893 20.6051 18.2594ZM22.972 20.5727C22.66 20.5727 22.4072 20.3197 22.4072 20.0078C22.4072 19.6958 22.6601 19.443 22.972 19.443C23.2839 19.443 23.5368 19.6958 23.5368 20.0078C23.5368 20.3198 23.2839 20.5727 22.972 20.5727ZM27.3023 23.3846C27.3023 23.6966 27.0494 23.9495 26.7375 23.9495C26.4255 23.9495 26.1727 23.6966 26.1727 23.3846C26.1727 23.0727 26.4255 22.82 26.7375 22.82C27.0494 22.82 27.3023 23.0727 27.3023 23.3846Z" fill="#2094F3" stroke="#2094F3" stroke-width="0.374994"/>
<path d="M19.6347 21.7403V26.8719C18.7553 26.9049 16.6644 26.8056 15.1853 25.3019C13.6913 23.7832 13.1908 21.2449 13.6955 17.7541C14.2421 17.662 14.6588 17.1878 14.6588 16.6152C14.6588 15.9763 14.141 15.4585 13.5023 15.4585C12.8636 15.4585 12.3457 15.9763 12.3457 16.6152C12.3457 16.9689 12.505 17.2851 12.7553 17.4972C12.3139 20.4429 12.5486 22.8004 13.4524 24.536C11.825 25.8876 8.05636 24.9139 7.6353 20.603C7.25242 16.6831 10.1244 15.2701 11.3607 15.4111C11.5974 15.4381 11.6197 15.2849 11.6312 15.2082C11.6532 15.0611 11.6739 14.8342 11.6988 14.6875C11.7083 14.6316 11.7461 14.4982 11.5916 14.4717C11.1303 14.3927 10.6688 14.4537 10.2913 14.5401C10.0218 13.7702 10.4907 11.8408 12.5715 11.527C12.5847 12.2312 12.7526 13.0411 13.2754 13.7379C13.369 13.8626 13.5127 13.7453 13.5127 13.7453L13.9573 13.369C13.9573 13.369 14.1129 13.254 13.9966 13.1043C13.0833 11.9271 13.2856 8.9917 15.354 8.97488C16.6426 8.96436 16.8015 10.2309 16.805 10.3108C16.8984 12.4641 16.805 18.9323 16.805 18.9323C16.3968 19.1109 16.1112 19.5179 16.1112 19.992C16.1112 20.6307 16.6291 21.1486 17.2678 21.1486C17.9065 21.1486 18.4243 20.6307 18.4243 19.992C18.4243 19.5348 18.1584 19.1407 17.7733 18.953C17.7733 18.953 17.8287 12.4391 17.7726 10.2688C17.7715 10.2237 17.8285 9.19954 17.0723 8.54097C16.6326 8.15808 15.9458 7.95188 15.271 8.01028C13.5648 8.15722 12.76 9.57718 12.4945 10.5619C9.10223 11.2458 9.22691 14.2699 9.37441 14.8688C9.0448 15.0389 8.58384 15.336 8.13641 15.8241C7.40922 16.6172 6.56422 18.0969 6.66785 20.6425C6.78516 23.5235 8.53383 24.9038 9.32384 25.383C9.19393 25.9722 9.09552 27.0786 9.83705 28.0224C10.5522 28.9327 11.6755 29.1754 12.3218 29.2374C12.3643 29.6556 12.5154 30.2557 12.987 30.7959C13.6846 31.5947 14.8354 31.9998 16.4073 31.9998H19.9214C20.1422 31.9998 20.1189 31.8089 20.1189 31.8089V31.2341C20.1189 31.0312 19.9485 31.0315 19.9485 31.0315H16.4073C15.1356 31.0315 14.2335 30.7416 13.726 30.1699C13.4216 29.8271 13.3189 29.4456 13.287 29.1787C13.8517 29.0167 14.4421 28.6127 14.7027 27.7573C14.7218 27.6946 14.7662 27.5366 14.6335 27.5084C14.5182 27.4838 14.2549 27.461 14.1061 27.434C13.9453 27.4048 13.9014 27.5117 13.8756 27.5671C13.1527 29.1245 9.71948 28.1306 10.2386 25.7592C10.6217 25.8789 12.2758 26.3386 13.9657 25.3594C16.387 28.6822 20.603 27.7391 20.603 27.7391V21.7312C20.603 21.5058 20.3902 21.5102 20.3902 21.5102H19.8582C19.8582 21.5102 19.6347 21.5106 19.6347 21.7403ZM17.2678 19.4271C17.5797 19.4271 17.8326 19.6801 17.8326 19.9919C17.8326 20.304 17.5797 20.5568 17.2678 20.5568C16.9558 20.5568 16.7029 20.3039 16.7029 19.9919C16.7029 19.6801 16.9558 19.4271 17.2678 19.4271ZM12.9375 16.6152C12.9375 16.3032 13.1904 16.0503 13.5023 16.0503C13.8142 16.0503 14.0671 16.3032 14.0671 16.6152C14.0671 16.9271 13.8142 17.1798 13.5023 17.1798C13.1904 17.1798 12.9375 16.9271 12.9375 16.6152Z" fill="#2094F3" stroke="#2094F3" stroke-width="0.374994"/>
</svg>
