<svg width="40" height="40" viewBox="0 0 40 40" fill="none" xmlns="http://www.w3.org/2000/svg">
<path fill-rule="evenodd" clip-rule="evenodd" d="M33.4536 33.4514C33.6718 29.0383 32.3445 24.1947 29.5824 19.7353C32.3428 15.2773 33.6694 10.4355 33.4515 6.0238C29.0395 5.80565 24.1973 7.13226 19.7389 9.89282C15.2803 7.13182 10.4376 5.80499 6.02536 6.02314C5.80721 10.4351 7.13386 15.2774 9.89449 19.7358C7.13255 24.1949 5.80513 29.0382 6.0231 33.4511C10.4359 33.6693 15.2791 32.3422 19.7381 29.5805C24.1973 32.3423 29.0407 33.6696 33.4536 33.4514ZM23.3086 23.3121C25.2818 21.3389 25.2818 18.1396 23.3086 16.1663C21.3353 14.1931 18.1361 14.1931 16.1628 16.1663C14.1896 18.1396 14.1896 21.3389 16.1628 23.3121C18.1361 25.2854 21.3353 25.2854 23.3086 23.3121Z" fill="black"/>
</svg>
