<svg width="40" height="40" viewBox="0 0 40 40" fill="none" xmlns="http://www.w3.org/2000/svg">
<g clip-path="url(#clip0_518_11294)">
<g clip-path="url(#clip1_518_11294)">
<rect width="40" height="40" fill="#18181D"/>
<g filter="url(#filter0_f_518_11294)">
<path d="M-44.9214 -27.7773L5.5345 -39.1576C2.15624 -31.0257 3.73093 -18.0142 37.0557 -31.023C70.3804 -44.0318 54.6462 -24.9233 42.6135 -13.7429L4.82588 21.8648L-9.30232 20.9072L-50.0812 37.9676L-64.2929 14.3366L-44.9214 -27.7773Z" fill="#4A436E"/>
</g>
<g filter="url(#filter1_f_518_11294)">
<path d="M14.0695 24.9392L45.9591 17.7466C43.824 22.8861 44.8192 31.1098 65.8814 22.8878C86.9435 14.6659 76.9991 26.743 69.3941 33.8094L45.5112 56.3144L36.5818 55.7092L10.8084 66.4919L1.82626 51.5564L14.0695 24.9392Z" fill="#9D5E48"/>
</g>
<g style="mix-blend-mode:overlay">
<path d="M19.6396 6.95654V13.2202H19.6514L19.6396 13.8784H14.043V8.82861H13.4297V14.4722H19.6514V18.938C19.6514 19.3161 19.3449 19.6226 18.9668 19.6226H7.78906V16.4741H14.043V15.9712H13.9385V15.9653H7.78906V7.93408C7.78918 7.39641 8.22503 6.96058 8.7627 6.96045H13.5879C13.7163 6.9583 13.8461 6.95654 13.9785 6.95654H19.6396ZM31.1221 6.95654C31.6598 6.95654 32.0956 7.39242 32.0957 7.93018V19.6226H26.6084V16.9224H25.959V19.6226H20.4717V6.95654H31.1221ZM25.959 9.50635V15.1509H26.6084V9.50635H25.959Z" fill="white"/>
<path fill-rule="evenodd" clip-rule="evenodd" d="M15.2076 33.0428L10.5624 33.0164L8.77221 33.0335C8.23076 33.0386 7.78906 32.6011 7.78906 32.0596V20.3906H15.2043V25.256H15.9589V20.4257H16.1806L23.2553 20.3906V33.0428L20.5806 33.0164L15.9589 33.0428L15.9589 28.1255H15.2076L15.2076 33.0428ZM23.8968 33.008H31.1213C31.6592 33.008 32.0952 32.572 32.0952 32.0342V20.3909H23.8968V33.008Z" fill="white"/>
</g>
<g style="mix-blend-mode:overlay">
<path d="M19.6396 6.95654V13.2202H19.6514L19.6396 13.8784H14.043V8.82861H13.4297V14.4722H19.6514V18.938C19.6514 19.3161 19.3449 19.6226 18.9668 19.6226H7.78906V16.4741H14.043V15.9712H13.9385V15.9653H7.78906V7.93408C7.78918 7.39641 8.22503 6.96058 8.7627 6.96045H13.5879C13.7163 6.9583 13.8461 6.95654 13.9785 6.95654H19.6396ZM31.1221 6.95654C31.6598 6.95654 32.0956 7.39242 32.0957 7.93018V19.6226H26.6084V16.9224H25.959V19.6226H20.4717V6.95654H31.1221ZM25.959 9.50635V15.1509H26.6084V9.50635H25.959Z" fill="white"/>
<path fill-rule="evenodd" clip-rule="evenodd" d="M15.2076 33.0428L10.5624 33.0164L8.77221 33.0335C8.23076 33.0386 7.78906 32.6011 7.78906 32.0596V20.3906H15.2043V25.256H15.9589V20.4257H16.1806L23.2553 20.3906V33.0428L20.5806 33.0164L15.9589 33.0428L15.9589 28.1255H15.2076L15.2076 33.0428ZM23.8968 33.008H31.1213C31.6592 33.008 32.0952 32.572 32.0952 32.0342V20.3909H23.8968V33.008Z" fill="white"/>
</g>
</g>
</g>
<defs>
<filter id="filter0_f_518_11294" x="-87.2158" y="-62.0805" width="167.188" height="122.971" filterUnits="userSpaceOnUse" color-interpolation-filters="sRGB">
<feFlood flood-opacity="0" result="BackgroundImageFix"/>
<feBlend mode="normal" in="SourceGraphic" in2="BackgroundImageFix" result="shape"/>
<feGaussianBlur stdDeviation="11.4614" result="effect1_foregroundBlur_518_11294"/>
</filter>
<filter id="filter1_f_518_11294" x="-27.8058" y="-11.8854" width="135.956" height="108.009" filterUnits="userSpaceOnUse" color-interpolation-filters="sRGB">
<feFlood flood-opacity="0" result="BackgroundImageFix"/>
<feBlend mode="normal" in="SourceGraphic" in2="BackgroundImageFix" result="shape"/>
<feGaussianBlur stdDeviation="14.816" result="effect1_foregroundBlur_518_11294"/>
</filter>
<clipPath id="clip0_518_11294">
<rect width="40" height="40" rx="4" fill="white"/>
</clipPath>
<clipPath id="clip1_518_11294">
<rect width="40" height="40" fill="white"/>
</clipPath>
</defs>
</svg>
