<svg width="9077" height="10042" viewBox="0 0 9077 10042" fill="none" xmlns="http://www.w3.org/2000/svg">
<path fill-rule="evenodd" clip-rule="evenodd" d="M3590.8 40.3424C2813.67 183.489 1845.53 713.626 1648.9 1103.72C1587.01 1226.5 1570.27 1236.86 1347.48 1290.33C494.265 1495.12 -2.3418 2084.36 0.00830368 2889.13L0.693748 3132.02L59.8625 3003.17C399.795 2262.86 2129.52 2517.67 2842.58 3413.1C3696.43 4485.34 3437.48 5575.56 1998.82 6965.41C553.164 8362.02 316.709 8650.64 92.1275 9292.71C13.8641 9516.45 -30.7879 10130 38.4178 10030.7C61.1845 9997.99 149.656 9863.65 235.043 9732.14C740.928 8952.87 1426.25 8496.28 2813.77 8014.13C3010.84 7945.63 3201.05 7878.91 3236.49 7865.81C3380.71 7812.57 2691.64 8451.94 2286.27 8747.49C2206.54 8805.63 2090.57 8890.03 2028.57 8935.05L1915.83 9016.92L2189.62 8995.13C3868.58 8861.53 5127.6 8016.16 5470.34 6792.27C5506.94 6661.61 5542.49 6549.07 5549.37 6542.21C5574.97 6516.6 5764.11 6972.95 5811.52 7174.81C5995.54 7958.04 5551.86 8837.73 4677.92 9422.36C4400.83 9607.74 4502.57 9601.11 5153.03 9391.39C6660.26 8905.47 7670.92 8017.41 7995.12 6894.07C8186.13 6232.15 8032.89 5269.63 7660.74 4794.14C7559.29 4664.55 7620.47 4677.99 7855.16 4836.91C8261.39 5111.97 8731.7 5556.93 8964.29 5886.26L9066.64 6031.22L9075.5 5485.15C9102.85 3800.73 8326.92 2145.05 7024.33 1108.35L6818.06 944.15L6976 903.852C7243.62 835.571 7636.92 619.933 7803.21 450.271L7957.07 293.316L7497.21 306.733C6937.1 323.087 6189.92 256.079 5393.72 118.098C4688.52 -4.11716 3994.65 -34.0344 3590.8 40.3424ZM2705 936.756C2559.22 996.615 2526.05 1024.82 2517.68 1095.96C2499.71 1248.98 2284.04 1337.36 2180.73 1234.04C2155.59 1208.92 2092.97 1182.73 2041.54 1175.85L1948.05 1163.34L2044.67 1121.01C2251.75 1030.33 2756.61 861.694 2817.74 862.82C2853.18 863.457 2802.44 896.728 2705 936.756Z" fill="black"/>
</svg>
