<svg width="2636" height="2568" viewBox="0 0 2636 2568" fill="none" xmlns="http://www.w3.org/2000/svg">
<path fill-rule="evenodd" clip-rule="evenodd" d="M908.92 0.639968C871.464 2.0041 859.325 3.35491 815.812 11.0007C666.061 37.3317 533.68 118.015 371.297 281.93C327.505 326.141 316.956 342.697 316.956 367.211C316.956 460.385 262.462 518.69 175.384 518.69H138.414L129.402 526.542C118.448 536.097 61.3116 589.564 33.4059 616.381C-22.7251 670.328 -10.9851 714.552 90.5085 831.494C176.356 930.397 244.766 969.238 290.228 944.897C299.752 939.8 345.108 898.21 399.442 844.743L421.019 823.523L419.401 800.732C411.994 696.299 518.646 631.666 606.383 687.422C618.815 695.321 634.854 700.039 642.648 698.083C653.376 695.394 666.58 704.151 689.594 729.218C731.27 774.614 759.708 806.175 803.207 855.283C827.213 882.386 863.311 922.725 883.424 944.93C903.536 967.129 923.715 989.434 928.261 994.491C963.235 1033.4 984.698 1057.17 1000.88 1074.94C1011.24 1086.32 1024.18 1100.8 1029.63 1107.12C1035.1 1113.44 1055.68 1136.5 1075.39 1158.37C1095.1 1180.23 1116.61 1204.54 1123.18 1212.39C1129.75 1220.22 1143.34 1235.44 1153.38 1246.18L1171.62 1265.72L1182.8 1256.28C1225.07 1220.64 1249.58 1170.66 1253.7 1111.72C1256.71 1068.63 1262.78 1054.57 1291.05 1025.25C1315.61 999.775 1319.04 1008.09 1257.45 943.885C1203.41 887.543 1118.15 799.075 1093.58 773.828C1078.81 758.663 1063.4 742.626 1059.32 738.201C1055.25 733.776 1040.39 718.265 1026.29 703.725C860.137 532.338 851.571 521.757 851.478 487.834C851.432 468.669 851.066 467.358 838.261 440.295C796.678 352.386 813.816 289.962 893.713 238.285C966.862 190.973 1071.36 167.483 1207.78 167.683C1281.78 167.789 1282.26 167.709 1296.82 152.571C1328.47 119.652 1324.84 96.5283 1285.08 77.9894C1158.84 19.1322 1044.9 -4.29751 908.92 0.639968ZM1042.26 46.0821C1116.67 57.3611 1181.91 75.1813 1244.56 101.346C1277.59 115.14 1277.39 116.218 1242.26 113.856C1145.45 107.355 1038.07 116.83 974.076 137.532C963.527 140.946 953.997 143.501 952.892 143.215C940.021 139.868 864.882 180.579 835.206 206.969C830.068 211.541 834.055 207.222 844.078 197.367C854.094 187.506 867.597 175.874 874.08 171.509C880.562 167.137 884.828 163.57 883.55 163.57C874.113 163.57 828.278 201.12 809.823 223.978C757.771 288.418 751.429 353.277 786.948 457.723L794.615 480.268L764.413 510.997C739.689 536.137 694.406 579.443 651.133 619.322L643.919 625.97L631.014 617.399C623.919 612.688 618.109 608.443 618.109 607.964C618.109 607.019 633.204 614.937 638.801 618.817C641.563 620.74 651.413 612.189 688.463 575.697C713.879 550.663 745.752 519.921 759.289 507.371C791.234 477.759 790.289 480.015 780.466 457.078C725.027 327.605 768.267 214.688 897.28 152.018C987.633 108.12 1083.94 95.6699 1224.86 109.651C1259.57 113.097 1266.75 112.751 1249.97 108.426C1244.46 107.015 1234.5 104.32 1227.82 102.444C968.652 29.6859 763.222 51.7582 598.569 170.058C527.218 221.323 454.761 283.753 409.884 332.636L389.825 354.488L393.931 376.314C409.485 458.941 381.013 540.09 322.799 579.017C298.727 595.114 266.409 602.707 250.283 596.059C244.865 593.823 245.032 593.677 253.231 593.544C262.968 593.377 286.654 585.978 295.932 580.202C365.553 536.876 392.694 458.415 370.631 364.264L366.758 347.754L380.102 331.451C402.803 303.709 462.202 248.313 528.475 193.075C674.726 71.1821 859.345 18.3603 1042.26 46.0821ZM938.943 82.0419C934.124 85.6818 928.274 86.2274 919.389 83.8518C911.403 81.7158 919.017 78.8744 933.059 78.7547C942.643 78.6748 943.076 78.9144 938.943 82.0419ZM970.955 87.7513C953.258 105.871 931.083 110.822 908.368 101.719C886.306 92.8751 870.845 86.0344 869.215 84.4041C866 81.1901 904.455 84.5772 919.283 88.8159C936.254 93.6603 943.555 92.6887 953.065 84.3243C957.797 80.1587 962.203 78.6482 969.737 78.595L979.973 78.5218L970.955 87.7513ZM1051.99 84.291L1062.94 87.3054L1048 87.5184C1030.97 87.7646 997.336 92.895 987.087 96.8077L980.186 99.4428L987.26 92.2961C1000.78 78.6415 1021.94 76.0264 1051.99 84.291ZM2294.51 88.5431C2291.07 91.1982 2287.11 94.4188 2285.71 95.7098C2279.34 101.559 1889.92 485.318 1751.47 622.184C1700.26 672.803 1634.05 738.008 1604.34 767.088C1273.64 1090.67 1294.01 1068.55 1293.95 1104.15C1293.83 1176.4 1244.37 1265.19 1179.86 1308.97L1170.32 1315.43L1158.02 1308.97C1128.69 1293.55 1120.96 1297.1 1061.97 1353.04C1036.41 1377.29 1020.6 1390.67 1018.29 1390.04C981.344 1379.75 946.29 1400.5 937.498 1437.85C926.817 1483.26 886.073 1517.43 802.775 1550.84C778.529 1560.56 771.288 1566.73 755.695 1590.96C727.177 1635.29 716.482 1648.78 683.631 1681.84C627.76 1738.07 608.426 1753.27 481.322 1840.98C457.303 1857.55 431.441 1875.47 423.854 1880.79C416.267 1886.11 403.855 1894.8 396.267 1900.09C350.253 1932.22 338.06 1941.02 310.054 1962.27C165.707 2071.85 75.0815 2182.93 52.8793 2277.49C16.7409 2431.37 162.16 2588.65 319.312 2565.68C441.983 2547.74 581.345 2420.58 762.789 2161C859.811 2022.21 945.205 1928.87 1014.32 1886.07C1025.89 1878.9 1039.16 1870.63 1043.8 1867.71C1055.89 1860.06 1062.55 1850.16 1071.85 1825.95C1099.43 1754.22 1136.73 1711.72 1182.83 1699.48C1223.83 1688.59 1240.71 1666.82 1238.25 1628.01L1237.17 1611.04L1252.26 1594.68C1260.55 1585.68 1279.98 1565.39 1295.42 1549.58C1312.3 1532.31 1324.15 1518.24 1325.14 1514.32C1327.7 1504.1 1324.88 1482.69 1319.25 1469.59L1314.12 1457.66L1324.17 1444.5C1379.95 1371.5 1450.51 1334.92 1533.36 1336.04C1560.1 1336.4 1546.82 1347.63 1712.02 1184.86C1938.99 961.213 1967.6 933.052 1995.16 906.189C2009.69 892.015 2058.85 843.505 2104.38 798.389C2149.92 753.28 2245.58 658.962 2316.95 588.799C2574.45 335.67 2558.8 351.547 2557.55 344.647C2555.79 334.925 2555.75 334.878 2495.16 272.421C2312.52 84.1579 2306.88 78.9942 2294.51 88.5431ZM856.33 97.766C861.235 99.5027 873.002 104.553 882.485 108.992C891.969 113.43 902.312 118.201 905.473 119.585C913.406 123.059 882.059 121.721 862.546 117.755C835.106 112.172 808.691 127.464 799.161 154.441C797.164 160.09 793.244 171.169 790.456 179.061C772.267 230.499 731.563 251.047 670.986 239.363C592.606 224.251 565.719 238.71 567.842 294.833C568.634 315.76 566.89 319.667 563.23 305.147C546.977 240.6 580.973 212.32 656.318 227.704C735.829 243.941 766.882 228.569 788.173 162.419C797.63 133.027 810.268 117.21 826.973 113.869C837.955 111.673 839.126 107.415 828.218 109.364C804.605 113.583 795.5 124.955 771.202 180.605C752.261 223.965 715.597 235.49 646.847 219.673C583.934 205.206 535.949 244.22 550.059 298.366C555.137 317.85 554.598 318.515 546.478 302.765C527.317 265.64 541.26 230.279 582.803 210.629C605.877 199.716 622.795 199.277 674.16 208.267C726.658 217.45 756.347 198.618 766.377 149.776C774.463 110.436 819.153 84.5971 856.33 97.766ZM760.294 117.729C752.966 130.765 750.63 132.235 745.772 126.865C740.527 121.076 742.205 117.023 751.795 112.299C764.367 106.104 766.177 107.262 760.294 117.729ZM733.805 135.928C760.586 167.756 718.019 200.861 667.445 187.539C659.911 185.556 645.483 183.227 635.393 182.369L617.044 180.805L634.994 171.708L652.95 162.605L672.883 167.742C705.58 176.167 721.56 171.123 721.56 152.384C721.56 142.729 717.34 141.105 714.372 149.616C710.499 160.729 689.574 162.186 687.511 151.493C684.529 135.995 722.984 123.066 733.805 135.928ZM862.932 136.261L872.11 138.81L855.378 147.234C846.174 151.872 833.502 160.709 827.213 166.877C813.616 180.233 812.578 179.92 817.929 164.109C826.248 139.542 841.269 130.246 862.932 136.261ZM2349.23 176.786C2371.1 199.224 2415.74 244.653 2448.41 277.738C2481.08 310.823 2507.81 338.864 2507.81 340.049C2507.81 342.025 2447.4 360.318 2418.87 366.979L2406.95 369.767L2372.84 335.045C2298.02 258.893 2277.92 237.087 2277.92 232.083C2277.92 229.341 2283.54 209.438 2290.43 187.858C2297.3 166.285 2303.62 145.783 2304.47 142.303C2306.72 133.034 2306.11 132.561 2349.23 176.786ZM2264.88 183.679C2249.56 238.83 2249.06 240.008 2234.68 254.561C2214.6 274.87 2080.95 406.565 2028.44 457.783C1955.44 528.977 1735.88 744.769 1635.41 844.064C1310.15 1165.53 1338.93 1138.34 1338.02 1124.94C1337.36 1115.14 1396.88 1055.29 1885.96 573.874C2153.11 310.909 2248.68 214.855 2228.49 229.641C2221.38 234.851 2201.2 253.709 2160.15 293.528C2062.98 387.773 1962.09 486.05 1913.54 533.762C1881.93 564.817 1817.8 627.407 1771.03 672.836C1724.26 718.272 1676.67 764.779 1665.28 776.191C1638.16 803.367 1502.33 934.988 1480.22 955.517C1470.75 964.307 1434.28 999.289 1399.18 1033.25C1364.08 1067.21 1335.37 1094.25 1335.37 1093.33C1335.37 1086.31 1442.91 977.41 1691.78 732.439C1729.04 695.76 1805.6 620.254 1861.92 564.644C1918.24 509.028 2012.33 416.466 2071 358.94C2129.67 301.42 2197.9 234.039 2222.62 209.205C2247.35 184.372 2268.22 163.943 2269.02 163.81C2269.81 163.677 2267.94 172.62 2264.88 183.679ZM2383.88 238.857C2384.4 240.367 2398.29 255.333 2414.76 272.115C2480.36 338.964 2483.62 344.061 2432.36 299.67C2390.99 263.844 2389.56 264.868 2426.78 303.69C2442.89 320.505 2456.43 335.158 2456.85 336.256C2458.83 341.426 2451.02 337.267 2441.42 328.051C2420.44 307.908 2395.37 285.39 2393.93 285.39C2393.12 285.39 2402.12 296.51 2413.93 310.104C2443.29 343.908 2442.31 342.564 2438.53 343.948C2436.72 344.613 2425.7 335.883 2412.46 323.286C2383.69 295.911 2381.33 295.744 2403.23 322.641C2418.91 341.905 2423.41 349.784 2418.73 349.731C2417.78 349.717 2404.26 338.239 2388.68 324.225C2352.37 291.545 2351.64 293.009 2386.46 328.716L2414.13 357.104L2430.51 351.9C2439.52 349.039 2455.68 344.48 2466.43 341.759C2477.17 339.044 2485.97 335.77 2485.97 334.492C2485.97 333.215 2466.31 313.505 2442.29 290.694C2394.73 245.544 2382.45 234.638 2383.88 238.857ZM641.423 254.508C651.992 256.491 666.327 259.778 673.282 261.821C693.235 267.677 721.966 266.778 739.057 259.765C761.112 250.721 756.46 260.25 733.513 271.15C710.172 282.229 692.303 282.349 655.233 271.676C611.328 259.033 579.389 268.821 578.883 295.079C578.756 301.7 578.49 302.019 576.733 297.654C570.364 281.863 597.025 251.167 617.284 250.961C619.986 250.934 630.848 252.531 641.423 254.508ZM2363.16 252.458C2363.06 253.942 2360.26 258.387 2356.94 262.333C2351.11 269.26 2351.05 269.626 2355.21 272.707C2367.94 282.13 2373.17 277.232 2367.45 261.255C2365.19 254.934 2363.26 250.974 2363.16 252.458ZM526.119 260.683C526.046 272.947 523.817 276.068 516.143 274.637C504.876 272.534 504.476 270.445 513.874 262.706C524.263 254.142 526.166 253.829 526.119 260.683ZM749.146 268.788C749.146 291.985 696.516 301.554 651.832 286.475C630.195 279.175 630.189 279.182 640.138 292.89C647.965 303.676 648.165 303.776 661.236 303.829C703.058 303.982 730.757 317.544 730.757 337.859V350.103L723.184 340.162C709.826 322.614 689.341 314.123 660.377 314.123H636.691L636.884 304.395C637.097 293.841 632.764 285.124 623.054 276.587L616.958 271.23L625.004 272.288C629.43 272.867 643.4 276.088 656.045 279.441C694.333 289.609 715.284 287.713 738.804 271.955C746.344 266.905 749.146 266.046 749.146 268.788ZM2264.12 270.365C2264.12 270.95 2261.95 277.225 2259.3 284.312C2252.94 301.314 2254.93 302.492 2263.23 286.628C2269.85 273.978 2269.88 273.952 2273.71 279.015C2282.11 290.141 2250.43 309.885 2223.03 310.59C2221.28 310.637 2229.04 301.4 2240.26 290.062C2258.55 271.603 2264.12 266.998 2264.12 270.365ZM506.613 288.504C525.035 293.415 532.542 298.479 543.53 313.398C556.055 330.42 555.103 333.873 541.992 318.974C532.162 307.809 527.278 306.178 533.886 316.266C539.017 324.092 538.611 326.048 532.928 320.911C528.242 316.665 528.229 316.685 530.778 323.426L533.347 330.214L524.722 322.169L516.097 314.123L520.283 321.017C522.579 324.81 526.965 331.272 530.026 335.384C533.081 339.49 534.618 342.857 533.447 342.857C531.217 342.857 515.837 326.154 512.383 319.993C511.298 318.05 509.661 317.198 508.756 318.109C507.851 319.014 508.177 321.077 509.488 322.688C512.962 326.96 521.567 342.717 521.481 344.647C521.441 345.558 520.15 344.68 518.612 342.704C517.068 340.727 512.356 335.038 508.137 330.06L500.463 321.017L507.458 335.118C511.311 342.877 516.13 350.888 518.173 352.931C521.108 355.872 521.214 356.644 518.672 356.644C509.062 356.644 492.656 324.424 490.294 300.908C488.53 283.314 488.164 283.594 506.613 288.504ZM610.822 303.563C612.439 314.616 508.609 407.164 494.547 407.204C484.257 407.237 492.776 395.312 516.383 376.647C539.49 358.374 551.576 347.495 589.259 311.056C604.679 296.15 609.491 294.48 610.822 303.563ZM2300.76 308.228C2319.09 326.081 2315.8 328.65 2287.69 318.422C2272.38 312.853 2266.37 308.374 2274.21 308.374C2275.96 308.374 2279.09 305.792 2281.16 302.632C2286.25 294.859 2287.35 295.172 2300.76 308.228ZM473.276 309.525C473.276 317.524 473.223 317.57 462.934 317.57C450.342 317.57 449.989 315.554 461.183 307.596C472.265 299.71 473.276 299.87 473.276 309.525ZM542.245 334.219C542.245 335.504 540.721 335.257 538.798 333.66C536.901 332.083 535.35 329.761 535.35 328.497C535.35 327.219 536.874 327.465 538.798 329.062C540.695 330.633 542.245 332.955 542.245 334.219ZM2288.96 336.808C2299.98 340.301 2313.39 342.857 2320.71 342.857C2340.51 342.857 2349.34 350.396 2336.43 356.278C2326.66 360.73 2313.95 359.333 2285.52 350.682C2238.92 336.495 2206.3 341.812 2178.3 368.163C2163.12 382.45 2160.89 389.829 2175.87 376.221C2216.51 339.297 2282.24 346.676 2303.48 390.541C2326.72 438.552 2278.49 495.067 2237.3 468.077C2219.33 456.306 2217.66 425.669 2234.59 418.183C2243.11 414.41 2242.91 411.808 2234.12 411.808C2207.29 411.808 2197.52 434.493 2207.58 473.447C2217.3 511.064 2214.95 529.41 2197.07 555.781C2184.56 574.226 2184.4 573.607 2194.9 547.35C2205.14 521.757 2206.33 508.236 2200.66 481.738C2198.52 471.724 2196.71 456.485 2196.64 447.875C2196.55 436.283 2195.99 433.601 2194.49 437.534C2193.38 440.449 2193.11 453.185 2193.89 465.828C2194.68 478.464 2195.86 497.602 2196.53 508.349C2197.37 521.797 2196.77 530.647 2194.62 536.743C2191.5 545.533 2191.48 545.46 2191.39 526.402C2191.33 515.842 2189.44 498.407 2187.18 487.661C2177.76 442.864 2184.98 412.807 2209.32 395.446C2240.77 373.021 2288.83 410.384 2264.48 438.332C2259.91 443.583 2257.82 444.321 2250.69 443.217L2242.29 441.912L2247.71 446.397C2263.65 459.573 2287.11 442.385 2287.11 417.544C2287.11 377.805 2239.57 352.306 2204.34 373.16C2168.75 394.228 2155.72 428.644 2164.88 477.426C2172.25 516.713 2172.71 522.31 2170.12 540.962C2160.17 612.449 2105.21 645.414 2023.89 628.672C1967.66 617.093 1929.91 631.786 1910.79 672.696L1904.34 686.484L1905 745.96C1905.8 818.698 1902.89 832.373 1880.81 859.595C1856.02 890.152 1827.28 896.38 1734.79 891.217C1679.93 888.156 1658.88 898.323 1639.67 937.178C1625.27 966.317 1620.2 962.843 1633.92 933.232C1645.78 907.619 1673.79 878.241 1686.15 878.447C1687.31 878.467 1687.01 879.266 1685.51 880.224C1684 881.182 1693.31 881.601 1706.2 881.155C1720.88 880.65 1742.95 882.06 1765.26 884.928C1868.05 898.137 1908.08 853.467 1899.83 734.754C1898.24 711.997 1896.8 698.555 1896.63 704.877C1896.46 711.198 1895.99 734.987 1895.59 757.738C1894.62 813.348 1881.48 845.834 1854.04 860.494C1851.36 861.924 1854.7 857.493 1861.44 850.639C1885.86 825.852 1889.68 811.445 1889.13 746.246C1888.69 693.471 1889.5 688.747 1903.59 662.07C1912.14 645.906 1925.18 632.212 1942.98 620.7C1959.66 609.927 1956.24 608.975 1937.24 619.096C1894.15 642.06 1878.71 676.762 1880.92 745.701C1882.91 807.998 1878.88 824.235 1855.48 848.15C1831.37 872.784 1816.97 875.326 1749.17 866.875C1687.16 859.15 1642.21 880.497 1616.27 929.998C1610.63 940.758 1610.12 941.164 1609.42 935.474C1607.52 920.01 1636.32 883.458 1662.38 868.259C1685.1 855.011 1715.46 851.903 1779.06 856.308C1844.83 860.866 1878.05 827.169 1870.93 763.115C1862.34 685.825 1867.19 662.189 1898.38 629.417C1929.29 596.944 1967.68 587.608 2031.29 597.09C2110.36 608.875 2144.33 573.042 2131.95 490.908C2114.79 377.033 2188.27 304.907 2288.96 336.808ZM484.371 333.74C493.488 339.297 502.613 347.481 499.578 347.375C498.387 347.335 495.412 345.785 492.956 343.928C477.283 332.077 443.214 348.2 432.093 372.734C426.03 386.103 425.604 395.113 431.447 386.549C450.741 358.228 472.89 349.79 497.994 361.183C511.098 367.132 510.306 369.115 495.691 366.912C449.836 360.005 432.892 389.344 444.545 455.481C454.056 509.493 439.813 554.649 408.16 570.793C399.668 575.125 363.024 582.684 360.841 580.555C357.227 577.028 368.741 571.345 380.481 570.853C405.638 569.801 436.499 547.543 436.499 530.461C436.499 526.968 432.566 529.583 429.125 535.359C418.769 552.746 395.183 568.118 379.023 568.011L370.977 567.958L376.408 563.44C379.39 560.951 384.408 558.915 387.549 558.915C419.568 558.915 438.309 516.66 429.231 464.943C424.992 440.821 422.702 443.243 422.702 471.843C422.702 502.746 419.155 517.385 408.174 531.805C401.924 540.017 387.809 547.782 390.93 541.294C391.436 540.243 396.168 530.588 401.445 519.841C418.989 484.127 424.845 438.851 418.283 389.63C412.713 347.881 452.452 314.283 484.371 333.74ZM662.787 342.777C661.609 343.955 655.985 345.618 650.294 346.477C637.077 348.473 640.731 343.003 654.201 340.634C663.791 338.944 666.054 339.51 662.787 342.777ZM682.48 349.531C682.48 360.484 646.514 410.577 625.63 428.717C619.593 433.961 612.592 440.156 610.063 442.491C590.277 460.784 543.044 485.857 530.133 484.919L520.429 484.214L541.107 474.252C596.453 447.575 648.211 399.245 672.277 351.767C678.367 339.756 682.48 338.851 682.48 349.531ZM599.721 346.583C599.721 349.637 600.34 349.797 603.168 347.448C609.883 341.878 606.942 352.685 598.343 365.169C589.977 377.313 568.135 396.464 549.14 408.308C539.191 414.517 539.364 414.217 553.739 400.489C569.572 385.364 568.88 384.805 550.292 397.721L538.798 405.706L550.292 393.569C563.216 379.914 558.504 381.106 536.502 397.056L525.001 405.387L536.502 395.406C542.818 389.909 554.198 379.688 561.785 372.675C594.696 342.278 599.721 338.818 599.721 346.583ZM617.697 360.544C602.929 380.008 539.53 433.541 540.062 426.095C540.129 425.19 547.377 418.762 556.175 411.808C564.967 404.855 584.26 387.048 599.049 372.235C628.205 343.03 633.51 339.703 617.697 360.544ZM659.492 352.878C659.492 358.394 653.855 361.243 642.94 361.243C627.453 361.243 628.345 355.453 644.345 352.146C656.051 349.724 659.492 349.89 659.492 352.878ZM711.929 372.408C717.779 383.075 719.936 390.122 720.641 400.915L721.573 415.255L716.495 400.316C712.642 388.998 708.662 382.696 700.09 374.312C689.641 364.097 688.975 362.8 691.431 357.41C695.198 349.145 701.82 353.996 711.929 372.408ZM646.814 370.386C649.183 374.218 643.499 381.931 638.308 381.931C627.347 381.931 618.342 376.893 621.184 372.355C624.073 367.717 644.212 366.173 646.814 370.386ZM2366.16 376.088L2375.09 384.033L2368.46 391.925C2354.8 408.175 2347.58 408.827 2352.93 393.329C2355.55 385.724 2355.82 382.05 2353.97 379.089C2346.34 366.859 2353.74 365.042 2366.16 376.088ZM696.249 381.551C706.213 391.513 715.896 431.192 710.652 440.568C708.988 443.543 708.143 441.387 707.131 431.585C705.78 418.483 695.937 393.423 692.15 393.423C691.005 393.423 692.496 401.814 695.471 412.068C698.439 422.329 700.782 435.518 700.669 441.373L700.469 452.034L696.522 436.729C694.133 427.479 688.756 415.741 682.926 407.064C672.29 391.227 672.137 390.701 675.924 383.501C681.401 373.1 687.232 372.535 696.249 381.551ZM2337.89 382.297C2343.26 392.331 2337.37 430.201 2330.44 430.201C2329.59 430.201 2328.84 423.347 2328.77 414.969C2328.66 399.997 2325.51 385.863 2321.01 380.207C2319.28 378.018 2320.7 377.333 2326.98 377.333C2333.08 377.333 2335.92 378.624 2337.89 382.297ZM622.182 384.386C630.947 387.44 633.057 392.464 628.505 399.412C622.828 408.075 615.973 410.737 612.333 405.687C610.655 403.364 607.727 399.398 605.817 396.87C602.662 392.691 602.789 391.799 607.181 387.101C612.758 381.139 612.818 381.126 622.182 384.386ZM2399.3 453.837C2359.22 493.297 2300.73 550.93 2269.32 581.905C2237.9 612.874 2196.73 653.213 2177.82 671.545C2158.92 689.878 2106.72 741.109 2061.83 785.394C2016.94 829.684 1944.04 901.052 1899.83 943.998C1855.61 986.939 1776.47 1063.96 1723.96 1115.17C1671.44 1166.36 1616.58 1219.55 1602.04 1233.34C1587.5 1247.14 1666.8 1167.5 1778.27 1056.36C1991.78 843.472 2105.21 731.161 2162.02 676.43C2248.85 592.752 2319.6 524.206 2361.82 482.85C2422.52 423.394 2466.96 381.911 2469.85 382.011C2471.12 382.05 2439.39 414.377 2399.3 453.837ZM2159.59 391.699C2145.36 411.888 2140.95 453.571 2148.22 499.086C2155.25 543.038 2146.5 573.781 2120.08 597.922C2098.17 617.945 2077.48 620.973 2016.84 613.014C1996.49 610.346 1982 609.481 1977.76 610.679C1972 612.302 1973.54 612.861 1988.23 614.471C1997.69 615.51 2016.15 618.557 2029.25 621.239C2118.95 639.605 2181.45 579.324 2157.18 497.842C2149.64 472.522 2149.96 428.271 2157.85 405.487C2164.95 384.958 2165.09 383.894 2159.59 391.699ZM465.636 400.143C460.591 419.035 473.642 436.017 493.069 435.824C499.884 435.757 505.455 435.757 505.435 435.824C505.421 435.89 503.884 441.633 502.014 448.587C491.618 487.328 512.476 536.124 544.548 548.075C546.445 548.78 544.315 549.439 539.823 549.539C511.025 550.178 490.5 516.8 490.82 469.847C490.926 454.363 490.687 441.693 490.3 441.693C482.554 441.693 477.808 447.828 478.86 456.465C486.494 518.942 485.049 544.821 473.316 555.435C466.594 561.517 466.088 559.194 471.572 547.423C474.321 541.52 476.677 531.16 477.056 523.288L477.729 509.5L474.254 520.992C468.637 539.577 461.556 553.678 454.382 560.545L447.68 566.96L455.859 549.725C468.052 524.033 470.255 503.91 465.177 464.677C458.941 416.5 458.475 403.344 462.794 396.763C467.879 388.998 468.431 389.656 465.636 400.143ZM2268.72 543.124C2187.17 624.087 2072.86 737.582 2014.7 795.335C1563.94 1242.94 1498.59 1305.29 1498.59 1287.81C1498.59 1286.69 1544.36 1240.96 1600.32 1186.2C1656.27 1131.44 1731.53 1057.63 1767.56 1022.17C1803.6 986.719 1866.6 925.127 1907.57 885.308C1948.54 845.488 1996.25 798.942 2013.58 781.873C2067.1 729.185 2290.19 514.511 2349.19 458.947C2362.46 446.437 2382.64 427.107 2394.01 415.981C2405.39 404.855 2415.22 395.785 2415.85 395.831C2416.48 395.885 2350.28 462.161 2268.72 543.124ZM604.146 404.076C610.556 412.221 610.15 417.405 602.629 423.314L596.34 428.265L589.984 421.151C582.104 412.334 582.104 411.11 589.924 403.857C597.737 396.617 598.283 396.623 604.146 404.076ZM677.189 412.367C687.005 421.344 692.05 446.85 687.078 462.381C685.262 468.044 685.228 468.031 684.849 461.23C684.629 457.437 683.478 452.267 682.287 449.738C680.43 445.799 680.243 446.045 680.982 451.461C682.14 459.966 681.122 459.44 675.645 448.706C673.096 443.716 666.866 436.303 661.802 432.23C650.98 423.533 649.383 414.317 657.695 408.495C663.545 404.402 669.854 405.653 677.189 412.367ZM2111.16 424.352C2109.31 430.494 2107.8 443.15 2107.8 452.466V469.408L2101.01 464.391C2095.64 460.418 2094.68 458.522 2096.41 455.281C2099.2 450.077 2099.17 448.587 2096.3 448.587C2095.04 448.587 2094.01 450.656 2094.01 453.185C2094.01 458.016 2089.06 458.848 2078.37 455.827C2073.46 454.436 2074.47 452.852 2093.03 432.969C2115.4 409 2115.84 408.787 2111.16 424.352ZM585.139 424.385C589.924 431.904 589.951 432.304 585.904 435.964C575.642 445.253 561.639 431.332 570.916 421.071C576.7 414.69 579.355 415.309 585.139 424.385ZM749.985 437.474C752.973 447.502 752.9 448.274 748.866 449.325C744.973 450.343 744.567 449.059 744.734 436.303C744.927 421.118 745.12 421.158 749.985 437.474ZM564.993 439.371C568.095 448.64 562.957 455.667 556.8 450.563C552.987 447.402 552.794 434.367 556.501 430.66C559.869 427.286 561.519 428.977 564.993 439.371ZM656.178 438.12C663.219 442.738 672.45 458.681 675.205 470.998C677.681 482.058 675.691 483.402 669.149 475.084C648.158 448.407 641.829 447.03 659.525 472.995C672.969 492.711 670.394 492.192 645.969 470.226C639.4 464.324 633.563 459.952 632.997 460.518C631.44 462.075 650.514 484.007 658.308 489.617C666.327 495.393 662.906 496.045 650.92 491.041C629.284 481.998 616.539 464.81 620.592 450.137C625.117 433.734 641.197 428.311 656.178 438.12ZM546.844 440.256C546.844 441.992 547.49 446.65 548.282 450.596C549.38 456.106 548.907 457.783 546.252 457.783C542.545 457.783 540.515 450.723 541.786 442.265C542.625 436.702 546.844 435.025 546.844 440.256ZM342.106 461.795C335.105 483.083 325.135 502.413 313.056 518.117C307.465 525.384 303.858 531.333 305.03 531.333C308.677 531.333 339.112 497.948 345.667 486.762C353.221 473.866 354.519 473.374 350.432 484.952C327.471 550.018 262.309 591.388 220.114 567.678C209.952 561.962 210.298 560.026 221.891 557.857C269.39 548.947 325.362 498.96 342.499 450.15C347.823 434.972 347.477 445.499 342.106 461.795ZM533.667 454.908C534.352 460.278 534.046 464.677 532.988 464.677C531.923 464.677 530.665 461.829 530.186 458.355L529.314 452.034L526.732 457.783C525.307 460.944 524.083 462.135 524.003 460.431C523.87 457.657 531.118 443.41 532.036 444.634C532.249 444.914 532.981 449.532 533.667 454.908ZM797.264 456.632C797.264 457.896 795.78 456.346 793.976 453.185C792.166 450.024 790.689 446.404 790.689 445.14C790.689 443.875 792.166 445.426 793.976 448.587C795.78 451.748 797.264 455.367 797.264 456.632ZM617.73 474.445C628.339 488.732 632.305 492.359 644.544 498.993L653.742 503.97L643.4 502.606C637.709 501.854 627.36 498.494 620.412 495.133C613.457 491.78 606.729 488.579 605.464 488.033C597.112 484.4 616.951 500.843 626.156 505.181C635.114 509.407 636.385 510.598 631.906 510.571C606.915 510.452 579.701 480.095 592.819 466.973C600.845 458.954 607.767 461.03 617.73 474.445ZM715.929 468.476C710.811 488.878 659.845 535.345 644.964 533.183C640.937 532.597 643.333 530.148 657.189 520.719C673.322 509.74 698.452 485.478 710.325 469.415C716.708 460.784 717.913 460.584 715.929 468.476ZM2089.41 479.682C2119.12 495.04 2123.15 538.233 2097.33 564.425C2083.09 578.864 2070.27 581.559 2036.96 577.128C2004.87 572.856 1967.29 573.248 1953.77 577.993L1943.43 581.626L1955.56 570.36C1973.42 553.778 1997.45 548.601 2025.76 555.242C2045.09 559.78 2064.64 559.96 2072.86 555.687C2099.38 541.887 2099.3 502.247 2072.72 495.959C2061.83 493.383 2045.81 505.142 2048.64 513.639C2049.16 515.209 2050.74 514.171 2052.32 511.217C2057.29 501.934 2075.61 508.895 2075.61 520.067C2075.61 538.16 2046.2 544.069 2035.72 528.072C2016.27 498.401 2056.13 462.481 2089.41 479.682ZM727.31 500.756C687.578 539.058 653.875 567.332 653.056 563.067C651.759 556.346 660.777 545.433 688.469 520.2C703.604 506.412 718.791 491.447 722.219 486.949C728.222 479.083 732.701 477.207 746.85 476.621C751.642 476.422 748.401 480.427 727.31 500.756ZM585.292 493.117C591.255 505.374 607.002 515.336 623.86 517.498L635.353 518.976L626.262 520.899C618.595 522.529 615.341 521.87 605.531 516.74C599.135 513.386 592 510.645 589.684 510.645C587.368 510.645 582.47 507.437 578.803 503.511C575.136 499.585 572.134 497.309 572.134 498.461C572.134 501.907 586.43 514.398 596.273 519.548L605.464 524.366L595.122 522.995C581.259 521.165 568.001 512.328 563.715 502.061C555.436 482.264 575.901 473.78 585.292 493.117ZM2244.51 494.947C2249.52 496.132 2256.25 496.464 2259.45 495.686C2264.04 494.568 2261.64 497.948 2248.09 511.656C2227.63 532.351 2229.27 531.872 2231.06 516.587C2231.91 509.36 2231.46 501.076 2229.98 496.824C2227.69 490.249 2227.83 489.67 2231.41 491.148C2233.6 492.053 2239.49 493.763 2244.51 494.947ZM552.248 505.86C558.551 521.611 571.462 528.884 597.418 531.319L614.662 532.936L596.06 533.289C567.542 533.815 525.727 509.673 538.665 500.144C545.633 495.007 548.362 496.158 552.248 505.86ZM2099.17 515.422C2109.19 554.896 2081.62 571.891 2021.02 563.593C2008.17 561.836 1998.04 561.763 1988.15 563.353C1969.43 566.368 1967.12 568.91 1984.93 566.893C1994.08 565.862 2007.6 566.68 2024.58 569.289C2068.26 576.016 2089.81 570.926 2100.14 551.455C2106.01 540.416 2104.99 506.053 2098.81 506.053C2097.7 506.053 2097.87 510.272 2099.17 515.422ZM2015.74 535.359C2015.8 535.671 2009.46 535.931 2001.68 535.931H1987.51L1998.8 525.011L2010.1 514.098L2012.87 524.439C2014.39 530.128 2015.69 535.039 2015.74 535.359ZM821.31 535.525C821.955 536.57 817.756 542.825 811.979 549.426C798.921 564.351 800.286 566.361 816.198 555.621C831.625 545.207 834.687 550.078 821.316 563.766C811.287 574.033 812.957 575.151 826.161 567.02C860.39 545.939 826.314 585.186 772.985 628.253C767.768 632.465 753.286 646.891 740.8 660.306C696.922 707.465 721.333 675.977 775.168 615.982C797.697 590.875 798.249 588.433 777.884 603.958C770.297 609.74 758.404 618.664 751.449 623.794C744.494 628.925 735.283 636.331 730.977 640.263C724.075 646.565 736.601 630.615 761.911 600.863C780.08 579.503 751.515 601.15 705.527 643.584C671.498 674.986 684.117 659.195 731.103 611.59C781.671 560.352 817.816 529.875 821.31 535.525ZM625.67 563.52C626.236 564.152 627.367 568.397 628.192 572.962L629.69 581.26L616.432 575.158C609.138 571.804 599.548 567.293 595.122 565.137L587.076 561.211L605.857 561.796C616.186 562.122 625.104 562.894 625.67 563.52ZM169.827 576.728C180.429 583.655 202.524 600.577 206.604 604.889C207.236 605.555 214.59 612.036 222.943 619.283C246.296 639.532 321.555 722.99 321.555 728.626C321.555 729.79 323.092 732.026 324.976 733.59C333.641 740.777 362.931 788.834 362.931 795.854C362.931 797.305 358.865 792.427 353.893 785.008C346.572 774.088 312.064 731.281 302.095 720.747C300.783 719.363 293.01 710.719 284.811 701.536C264.905 679.224 215.802 637.289 215.802 642.592C215.802 643.398 224.374 654.637 234.849 667.566C268.465 709.069 273.077 717.779 248.825 693.957C237.565 682.898 227.342 673.814 226.104 673.781C224.86 673.748 219.788 670.647 214.83 666.894C201.513 656.819 202.032 660.386 216.241 676.662C230.044 692.466 252.586 722.87 252.586 725.671C252.586 726.643 246.117 721.306 238.217 713.807C225.572 701.809 206.704 685.626 194.538 676.35C187.324 670.847 190.292 677.055 201.04 689.951C214.644 706.267 236.493 735.446 236.493 737.296C236.493 738.082 229.918 732.585 221.885 725.066C205.513 709.754 179.204 688.986 177.866 690.324C177.387 690.803 184.275 700.438 193.174 711.737C225.658 752.987 226.716 755.755 201.912 734.615C154.972 694.609 152.336 694.642 185.074 734.848C198.418 751.23 209.952 765.67 210.704 766.934C211.462 768.199 202.83 760.872 191.53 750.658C170.199 731.381 142.826 711.564 140.603 713.787C139.904 714.485 145.435 722.078 152.902 730.655C181.44 763.441 215.802 807.732 215.802 811.731C215.802 812.829 217.512 815.438 219.602 817.527C228.846 826.77 252.739 869.637 259.301 888.761C262.043 896.753 263.54 898.856 239.734 861.212C197.806 794.916 106.947 696.086 58.9157 664.552C47.4952 657.052 44.2208 661.564 97.9425 610.705C151.631 559.88 147.232 561.962 169.827 576.728ZM112.172 615.809C92.5051 634.454 74.4093 650.884 71.9668 652.314C69.5243 653.745 68.0402 655.335 68.6724 655.854C90.3621 673.528 103.214 679.53 96.5516 668.864C93.7896 664.439 95.6132 662.149 121.695 637.362C161.068 599.945 163.251 598.501 173.234 603.259C187.197 609.913 184.089 603.399 168.09 592.479C148.217 578.911 153.355 576.768 112.172 615.809ZM576.727 589.811C598.103 596.212 615.813 603.059 615.813 604.923C615.813 605.901 608.093 604.244 598.656 601.249C528.442 578.958 450.635 595.174 399.928 642.666C384.075 657.518 391.396 645.986 409.492 627.6C444.452 592.086 524.189 574.067 576.727 589.811ZM920.714 650.285C977.963 709.242 1038.55 771.852 1050.89 784.808C1053.73 787.789 1068.98 803.64 1084.79 820.036C1100.59 836.425 1122.32 859.123 1133.07 870.475C1167.63 906.974 1246.16 989.454 1260.33 1004.13C1272.23 1016.47 1273.66 1018.87 1271.02 1022.05C1264.87 1029.45 1273.23 1037.93 943.535 689.931C910.598 655.169 876.649 619.555 868.103 610.792C853.861 596.199 849.428 586.497 856.996 586.497C857.974 586.497 886.652 615.203 920.714 650.285ZM352.103 598.568C321.302 638.893 320.004 641.814 323.432 663.407L325.601 677.102L318.766 669.15C314.999 664.778 304.777 653.259 296.045 643.557C277.323 622.743 277.47 623.162 289.942 625.95C305.489 629.424 308.697 632.651 311.878 648.022C313.449 655.628 316.217 663.088 318.034 664.598C320.863 666.941 321.022 666.229 319.146 659.687C314.467 643.364 317.608 629.637 328.21 620.041C334.719 614.159 334.366 610.812 327.704 615.177C322.487 618.597 304.404 620.687 301.882 618.165C301.183 617.466 305.615 615.696 311.731 614.232C317.848 612.761 329.022 608.023 336.569 603.698C351.084 595.374 355.71 593.85 352.103 598.568ZM390.517 601.356C390.517 601.941 384.567 606.473 377.3 611.43C363.923 620.553 353.733 631.939 353.733 637.768C353.733 639.518 351.67 642.825 349.141 645.114C346.612 647.404 344.542 651.696 344.542 654.663C344.542 657.625 343.664 660.053 342.586 660.053C336.216 660.053 348.116 623.628 357.88 613.227C366.578 603.964 390.517 595.254 390.517 601.356ZM666.134 619.861C642.821 642.832 645.583 642.24 626.988 628.166C618.848 622.004 607.055 614.292 600.779 611.031C594.51 607.771 590.922 605.076 592.819 605.042C599.068 604.943 615.713 613.739 629.829 624.599C643.679 635.253 643.719 635.266 648.724 630.854C651.486 628.426 660.384 620.553 668.503 613.36C690.04 594.289 688.889 597.436 666.134 619.861ZM847.998 622.277C873.674 629.703 883.331 661.963 865.288 680.003C851.751 693.538 829.609 685.652 829.609 667.287C829.609 653.785 846.294 647.803 851.418 659.481C854.393 666.248 857.195 666.069 857.195 659.108C857.195 637.788 823.187 636.83 812.318 657.844C795.673 690.031 828.717 714.319 890.126 715.031C973.311 715.996 1032.71 791.695 1014.68 873.762C1011.85 886.672 1022.77 929.971 1028.93 930.204C1029.93 930.237 1036.45 934.044 1043.4 938.655C1058.97 948.982 1066.19 950.906 1105.75 955.284C1165.13 961.852 1209.05 984.263 1223.14 1015.18C1224.58 1018.34 1226.93 1020.92 1228.36 1020.92C1230.83 1020.92 1243.42 1043.24 1243.4 1047.59C1243.39 1048.72 1240.84 1045.52 1237.73 1040.46C1231.12 1029.75 1230.87 1030.32 1234.96 1046.67C1237.31 1056.05 1237.51 1065.05 1235.82 1085.81C1233.43 1115.26 1229.63 1120.13 1229.61 1093.77C1229.55 1027.68 1194.95 988.236 1128.47 978.481C1070.2 969.93 1059.37 966.297 1035.4 947.252C1020.66 935.548 1017.27 931.389 1009.78 915.857L1001.15 897.951L999.626 854.279C996.538 765.69 967.021 735.919 877.873 731.494C822.088 728.719 797.697 711.338 791.487 669.928C787.967 646.445 817.09 615.676 838.807 619.935C840.703 620.307 844.836 621.359 847.998 622.277ZM513.508 624.879C463.047 636.59 424.965 661.231 400.587 697.943C389.932 713.986 387.828 712.589 396.527 695.241C415.841 656.72 467.613 623.441 507.764 623.734C513.454 623.774 516.037 624.287 513.508 624.879ZM186.751 640.031C186.512 646.911 186.658 647.057 188.888 642.167C190.365 638.933 190.465 636.098 189.147 634.78C187.829 633.463 186.911 635.479 186.751 640.031ZM2003.85 649.832C2045.71 667.313 2043.33 728.207 2000.47 736.212C1972.15 741.502 1953.61 710.2 1974.18 691.821C1986.12 681.141 1996.51 683.902 2003.02 699.473C2006.32 707.399 2006.24 708.217 2001.58 714.133C1997.06 719.889 1997.02 720.208 2001.11 718.025C2026.46 704.457 2013.78 665.417 1984.38 666.521C1953.61 667.679 1942.07 690.523 1946.9 740.717C1950.07 773.742 1948.89 789.133 1942.07 803.64C1936.54 815.391 1923.88 828.54 1923.88 822.531C1923.88 820.395 1924.98 818.652 1926.31 818.652C1934.51 818.652 1941.15 792.647 1940.09 764.639C1937.27 690.097 1939.76 679.351 1963.1 665.011C1969.99 660.785 1973.03 658.03 1969.87 658.889C1937.97 667.553 1928.78 689.978 1933.19 748.349C1935.81 782.845 1935.06 797.325 1930.05 809.249C1927.77 814.679 1927.31 810.7 1927.19 784.429C1927.11 767.221 1926.59 739.699 1926.04 723.262C1924.1 665.63 1960.18 631.593 2003.85 649.832ZM2100.9 654.211C2100.9 654.79 2093.4 661.191 2084.24 668.438C2075.07 675.691 2064.2 685.113 2060.1 689.385L2052.62 697.158V686.99C2052.62 680.635 2050.53 672.883 2047.03 666.302L2041.43 655.775L2061.4 656.959C2077.17 657.897 2092.64 656.48 2100.33 653.386C2100.64 653.259 2100.9 653.632 2100.9 654.211ZM788.572 707.425C804.013 732.944 824.072 740.364 877.933 740.444C963.614 740.584 995.879 771.419 991.214 848.709C987.866 904.212 1002.47 940.678 1037.11 963.309C1053.56 974.056 1052.4 975.793 1035.31 965.991C1006 949.182 983.979 907.659 983.487 868.279C983.36 858.105 983.047 857.326 981.044 862.324C979.78 865.484 979.068 876.091 979.467 885.893C979.86 895.688 979.434 903.707 978.508 903.707C975.001 903.693 973.89 891.024 975.713 871.853C984.645 777.847 961.045 746.286 882.485 747.158C814.934 747.91 776.586 723.296 773.158 676.988L772.16 663.5L776.513 679.091C778.909 687.669 784.333 700.418 788.572 707.425ZM925.273 698.429C925.06 698.675 920.773 697.923 915.755 696.758C910.731 695.594 898.864 694.582 889.38 694.516C872.17 694.383 869.96 687.975 886.944 687.456C890.179 687.356 891.676 686.797 890.272 686.218C888.482 685.479 888.815 682.099 891.397 674.926L895.077 664.685L910.365 681.334C918.777 690.49 925.479 698.182 925.273 698.429ZM1847.69 682.052C1846.44 686.571 1845.74 699.986 1846.14 711.864C1846.95 735.772 1842.68 738.228 1838.58 716.222C1836.25 703.792 1835.57 702.627 1831.95 704.863C1830.36 705.848 1829.96 709.162 1830.9 713.481C1832.27 719.702 1831.96 720.301 1828.17 718.718C1825.81 717.733 1821.56 716.422 1818.71 715.803C1815.87 715.184 1813.54 714.186 1813.54 713.58C1813.54 709.195 1844.49 673.841 1848.33 673.841C1849.22 673.841 1848.93 677.541 1847.69 682.052ZM77.2445 712.715C116.424 744.243 174.965 806.854 203.157 847.385C219.668 871.127 237.012 899.102 235.229 899.102C205.353 899.102 76.1863 766.988 52.7995 712.509C41.0528 685.133 42.9895 685.153 77.2445 712.715ZM802.023 780.789C826.993 808.111 863.258 847.531 880.183 865.744C889.666 875.952 908.794 897.199 922.684 912.963C936.58 928.727 971.154 966.969 999.519 997.938C1027.88 1028.91 1059.97 1064.04 1070.82 1076.01C1081.66 1087.98 1095.74 1103.5 1102.1 1110.49C1115.38 1125.09 1125.28 1136.53 1139.96 1154.25C1145.65 1161.11 1160.39 1177.78 1172.72 1191.27C1185.05 1204.77 1195.13 1216.96 1195.13 1218.35C1195.13 1223.02 1188.82 1220.98 1184.94 1215.06C1182.84 1211.85 1164.87 1191.38 1145.02 1169.57C1125.17 1147.77 1101.17 1121.22 1091.68 1110.58C1082.2 1099.95 1071.34 1087.94 1067.54 1083.9C1055.32 1070.89 1023.78 1036.17 1014.51 1025.52C1009.56 1019.83 1002.65 1012.7 999.167 1009.67C995.686 1006.64 992.831 1003.41 992.831 1002.47C992.831 1001.54 988.951 996.767 984.212 991.863C979.467 986.959 966.795 973.164 956.047 961.206C945.298 949.249 931.336 933.744 925.013 926.75C918.69 919.763 902.664 901.631 889.394 886.459C876.123 871.287 847.319 839.227 825.376 815.205C803.433 791.183 782.176 767.913 778.137 763.488C766.23 750.432 743.456 723.628 740.055 718.664C736.361 713.274 783.601 760.633 802.023 780.789ZM1819.93 737.177C1852.35 750.711 1860.55 792.514 1835.83 818.279C1818.78 836.079 1803.76 838.634 1744.57 833.823C1725.03 832.233 1716.79 832.606 1701.28 835.793C1678.22 840.518 1677.07 839.892 1689.85 829.538C1711.46 812.031 1726.1 809.189 1764.06 815.145C1796.55 820.235 1807.1 818.738 1818.43 807.406C1843.28 782.559 1817.51 737.769 1789.93 757.858C1781.22 764.193 1778.8 777.275 1786.33 777.275C1787.54 777.275 1787.94 776.337 1787.23 775.186C1780.91 764.958 1800.41 761.165 1807.18 771.3C1818.38 788.069 1788.9 807.812 1774.37 793.279C1747.14 766.049 1783.09 721.785 1819.93 737.177ZM1829.08 759.462C1839.96 771.08 1841.16 782.525 1833.27 799.474C1822.36 822.897 1807.95 826.803 1748.96 822.338C1723.05 820.375 1700.58 822.771 1697.46 827.835C1696.84 828.833 1700.2 828.753 1704.93 827.655C1716.71 824.92 1740.39 825.086 1758.37 828.028C1811.86 836.791 1843.33 819.443 1843.41 781.148C1843.43 771.36 1832.71 754.291 1826.53 754.291C1825.27 754.291 1826.41 756.62 1829.08 759.462ZM1989.65 758.57C1991.16 759.442 1986.74 765.184 1978.73 772.73L1965.27 785.42L1965.56 772.411C1965.73 765.258 1965.07 758.138 1964.12 756.594C1962.31 753.672 1984.08 755.363 1989.65 758.57ZM858.167 770.222L887.876 771.533L878.452 778.047C861.002 790.111 839.033 788.301 822.581 773.442C811.58 763.501 810.854 759.675 820.99 764.991C826.401 767.833 836.644 769.277 858.167 770.222ZM831.872 777.714C838.327 782.938 868.383 783.104 873.541 777.947C875.611 775.878 873.341 775.538 863.844 776.497C857.029 777.189 845.761 776.703 838.813 775.425L826.181 773.103L831.872 777.714ZM927.316 777.042C949.844 787.47 957.285 803.307 956.053 838.189C955.568 852.096 955.195 873.749 955.235 886.306C955.295 904.372 954.802 907.972 952.865 903.54C951.421 900.247 950.563 883.325 950.776 862.324C951.135 826.923 949.065 820.987 945.578 847.385C941.977 874.608 943.115 889.992 949.817 904.845C956.799 920.329 951.375 915.212 943.721 899.102C939.462 890.139 938.929 885.694 939.735 865.771C941.678 817.873 941.378 813.315 935.848 805.543C925.02 790.344 901.633 787.376 888.888 799.587C885.367 802.961 882.485 804.911 882.485 803.919C882.485 800.911 890.252 788.774 892.176 788.774C893.167 788.774 893.979 787.703 893.979 786.392C893.979 782.08 884.755 788.707 880.07 796.386C868.802 814.865 884.482 837.903 903.456 830.742C911.07 827.868 912.441 831.015 905.26 834.855C898.997 838.209 891.444 836.179 882.658 828.793C872.782 820.482 873.76 825.765 883.71 834.502C897.507 846.613 913.639 843.219 911.962 828.56C911.33 823.077 910.291 822.198 905.074 822.737C897.114 823.556 894.751 819.55 899.856 813.907C907.849 805.084 920.035 812.21 920.035 825.718C920.035 845.302 895.277 850.885 879.936 834.755C851.099 804.445 888.389 759.023 927.316 777.042ZM1747.82 784.748L1749.38 793.365H1738.46H1727.55L1736.48 784.216C1741.4 779.185 1745.61 775.306 1745.84 775.598C1746.07 775.891 1746.97 780.01 1747.82 784.748ZM1046.19 822.677C1051.91 830.19 1056.32 840.045 1060.33 854.279C1066.01 874.461 1073.31 885.454 1080.89 885.228C1082.4 885.181 1080.88 882.852 1077.51 880.057C1070.17 873.962 1065.21 851.936 1071.74 854.445C1076.45 856.255 1083.05 866.456 1081.31 869.257C1080.57 870.475 1081.36 870.928 1083.09 870.262C1088.42 868.213 1095.24 877.582 1091.6 881.96C1088.95 885.148 1089.28 885.421 1094.22 884.183C1098.43 883.125 1101.24 884.25 1105.37 888.635L1110.88 894.504H1105.8C1102.69 894.504 1099.93 892.508 1098.65 889.333C1097.11 885.494 1096.53 885.181 1096.43 888.102C1095.65 909.19 1060.48 891.549 1054.15 866.895L1050.91 854.279L1049.29 866.017C1045.22 895.415 1063.82 912.577 1101.99 914.666C1125.5 915.951 1133.27 919.032 1149.83 933.624C1163.16 945.376 1163.04 945.589 1145.69 941.417C1138.12 939.593 1121.13 937.111 1107.96 935.9C1068.62 932.274 1048.47 921.999 1040.22 901.378C1037.33 894.158 1035.07 811.871 1037.76 811.758C1037.82 811.758 1041.61 816.669 1046.19 822.677ZM359.996 820.887C360.309 825.08 287.666 895.868 285.383 893.586C279.879 888.082 334.732 827.735 352.589 819.656C356.382 817.94 359.523 816.496 359.57 816.442C359.617 816.396 359.81 818.392 359.996 820.887ZM919.269 873.13C919.269 877.808 918.477 880.65 917.506 879.452C916.541 878.247 913.26 874.421 910.212 870.941L904.674 864.626H911.968C918.85 864.626 919.269 865.105 919.269 873.13ZM1762.97 874.601C1784.64 877.263 1784.45 877.283 1737.3 877.276C1711.17 877.269 1690.08 876.976 1690.43 876.624C1695.1 871.893 1732.46 870.848 1762.97 874.601ZM1045.71 903.068C1045.71 914.64 1076.67 928.98 1101.66 928.98C1111.99 928.98 1123.99 929.998 1128.33 931.242C1132.67 932.486 1136.68 933.032 1137.25 932.453C1139.65 930.064 1123.69 926.265 1103.23 924.362C1074.8 921.72 1066.98 919.251 1055.32 909.276C1050.03 904.745 1045.71 901.957 1045.71 903.068ZM984.864 918.073C992.791 965.605 1033.99 990.938 1103.44 991.011C1191.98 991.097 1220.18 1017.97 1220.5 1102.52C1220.57 1121.49 1221.51 1144.68 1222.6 1154.06C1223.68 1163.44 1224.05 1172.49 1223.4 1174.17C1218.45 1187.08 1213.42 1157.57 1211.38 1103.67C1209.57 1055.58 1208.28 1050.27 1193.72 1030.84C1190.71 1026.82 1188.24 1022.37 1188.24 1020.94C1188.24 1019.52 1187.2 1019 1185.92 1019.78C1184.65 1020.57 1180.56 1019.05 1176.83 1016.39C1159.19 1003.83 1148.13 1001.35 1095.13 998.098C1043.83 994.944 1019.84 984.177 997.669 954.379C985.224 937.637 979.041 923.729 979.041 912.47C979.041 902.802 982.941 906.561 984.864 918.073ZM1829.54 918.832C1811.37 937.497 1786.88 944.724 1776.61 934.449C1772.38 930.224 1772.67 930.131 1790.04 929.985C1805.31 929.865 1822.97 926.019 1820.18 923.423C1819.69 922.971 1813.29 923.696 1805.95 925.047C1792.22 927.569 1775.85 925.134 1763.25 918.699C1758.67 916.357 1762.36 915.871 1786.24 915.651C1804.07 915.491 1818.55 914.161 1825.03 912.071C1840.46 907.12 1840.65 907.406 1829.54 918.832ZM1734.13 918.12C1768.09 937.351 1765.36 987.937 1729.83 997.885C1704.58 1004.95 1682.72 979.12 1699.64 962.205C1705.96 955.896 1709.79 955.211 1715.17 959.436C1724.96 967.142 1720.44 979.193 1708.85 976.285C1703.48 974.941 1703.17 975.227 1705.45 979.479C1710.16 988.256 1727.85 982.686 1734.19 970.429C1751.01 937.903 1705.8 922.279 1676.18 950.38C1665.56 960.461 1666.88 953.8 1677.64 943.04C1694.2 926.478 1722.12 923.863 1735.85 937.59C1750.24 951.977 1746.09 977.995 1727.89 987.471L1720.43 991.357L1727.33 989.873C1766.9 981.349 1750.64 921.953 1708.79 922.139C1690.93 922.219 1661.81 940.971 1661.81 952.383C1661.81 953.421 1660.76 954.266 1659.47 954.266C1656.45 954.266 1666.92 933.598 1672.49 928.587C1690.39 912.484 1716.38 908.072 1734.13 918.12ZM1583.61 946.793C1583.57 955.69 1572.06 978.687 1569.12 975.746C1565.89 972.525 1567.76 961.666 1573.51 950.12C1580.55 935.993 1583.66 934.969 1583.61 946.793ZM1795.03 951.218C1795.6 951.711 1792.75 955.424 1788.71 959.47L1781.35 966.823V957.054C1781.35 947.738 1787.86 944.963 1795.03 951.218ZM1596.41 957.64C1601.7 970.296 1600.69 982.66 1593.71 990.964C1586.44 999.602 1584.26 998.677 1589.23 989.075C1591.22 985.228 1592.8 980.73 1592.74 979.093C1592.69 977.449 1590.55 980.078 1587.98 984.942C1581.25 997.692 1580.58 994.318 1585.12 970.616C1589.51 947.738 1591.38 945.589 1596.41 957.64ZM1544.77 974.382C1539.64 983.532 1524.6 998.564 1521.59 997.559C1519.39 996.827 1522.36 992.362 1531.02 983.418C1543.71 970.329 1549 966.849 1544.77 974.382ZM1651.23 987.018C1645.84 1010.61 1635.52 1026.21 1622.23 1030.84C1615.07 1033.34 1615.88 1028.67 1623.97 1020.84C1628.35 1016.6 1631.93 1012.09 1631.93 1010.83C1631.93 1009.56 1628.51 1011.84 1624.35 1015.88C1620.17 1019.92 1615.92 1023.22 1614.88 1023.22C1612.56 1023.22 1623.89 1007.51 1630.25 1001.9C1632.79 999.662 1634.36 997.306 1633.72 996.667C1633.09 996.028 1626.78 1001.21 1619.7 1008.17C1605.76 1021.89 1601.11 1022.13 1610.27 1008.66C1617.03 998.723 1615.24 997.745 1606.17 1006.43C1601.31 1011.09 1599.06 1011.97 1597.07 1009.98C1589.87 1002.78 1621.3 977.47 1637.67 977.27C1641.47 977.223 1646.12 976.179 1648.02 974.954C1654.17 970.975 1654.56 972.432 1651.23 987.018ZM1596.56 1028.39C1631.02 1063.19 1638.02 1071.81 1635.34 1076.14C1632.21 1081.2 1626.57 1076.89 1593.79 1044.36C1549.32 1000.21 1550.12 1001.17 1553.73 996.833C1558.73 990.811 1561.01 992.495 1596.56 1028.39ZM1089.39 1024.04C1108.62 1023.94 1108.8 1023.98 1100.88 1027.29C1088.1 1032.63 1061.47 1029.81 1050.09 1021.92C1037 1012.86 1039.08 1011.43 1055.48 1018.21C1067.2 1023.06 1073.43 1024.14 1089.39 1024.04ZM1697.28 1017.52C1699.71 1019.36 1706.81 1021.55 1713.04 1022.38L1724.38 1023.88L1715.86 1031.69C1708.9 1038.06 1706.71 1038.98 1703.97 1036.71C1700.11 1033.51 1705.71 1028.56 1710.11 1031.28C1711.36 1032.05 1712.39 1031.53 1712.39 1030.1C1712.39 1028.59 1709.38 1027.82 1705.09 1028.25C1698.94 1028.85 1697.1 1027.8 1693.38 1021.5C1688.68 1013.52 1690.08 1012.09 1697.28 1017.52ZM1157.33 1032.15C1181.88 1043.3 1189.44 1062.86 1187.72 1110.75C1187 1130.62 1187.63 1148.58 1189.4 1158.87C1191.89 1173.43 1191.82 1174.9 1188.78 1171.85C1185.04 1168.12 1184.92 1166.94 1181.95 1109.42C1179.84 1068.36 1178.04 1061.27 1167.35 1051.95L1162.1 1047.36L1167.39 1056.11C1172.24 1064.12 1172.73 1067.91 1173.26 1100.93C1173.65 1125.61 1174.98 1140.93 1177.48 1149.46C1180.57 1160.02 1180.62 1161.39 1177.76 1158.55C1172.17 1152.95 1167.63 1124.91 1167.58 1095.63C1167.54 1072.39 1166.83 1066.89 1163.05 1060.7C1146.38 1033.37 1107.27 1045.84 1118.44 1074.93C1120.52 1080.36 1130.06 1083.53 1135.51 1080.6C1141.31 1077.5 1141.16 1074.64 1135.12 1073.06C1129.58 1071.61 1130.34 1066.12 1136.24 1064.98C1147.09 1062.88 1149.18 1071.83 1139.98 1081.02C1129.56 1091.44 1116.93 1084.98 1113.6 1067.54C1111.04 1054.09 1119.42 1044.38 1136.51 1040.94C1140.77 1040.09 1140.81 1039.89 1137 1038.24C1122.78 1032.07 1104.89 1049.5 1107.62 1066.9C1111.77 1093.55 1133.92 1103.38 1144.54 1083.29C1148.13 1076.49 1148.97 1075.87 1149.06 1079.99C1149.5 1101.96 1115.59 1102.46 1104.3 1080.64C1087.2 1047.57 1121.74 1015.99 1157.33 1032.15ZM1507.63 1043.93C1517.08 1059.82 1530.33 1076.74 1548.91 1096.62C1556.02 1104.23 1557.69 1107.33 1555.52 1108.87C1553.65 1110.2 1554.83 1110.46 1558.79 1109.6C1562.19 1108.86 1565.63 1109.32 1566.45 1110.63C1567.25 1111.93 1575.07 1117.72 1583.83 1123.48C1599.96 1134.11 1602.43 1137.27 1596.4 1139.57C1582.34 1144.97 1515.25 1083.57 1496.13 1047.81C1483.01 1023.27 1493.3 1019.8 1507.63 1043.93ZM1572.42 1041.04C1591.63 1060.93 1600.8 1073.65 1597.98 1076.47C1592.89 1081.56 1547.17 1038.62 1549.96 1031.36C1552.5 1024.73 1559.63 1027.8 1572.42 1041.04ZM1673.13 1033.77C1683.05 1042.11 1682.03 1043.46 1667.77 1040.87C1659.37 1039.35 1651.35 1039.41 1643.06 1041.06C1627.93 1044.06 1627.09 1043.36 1635.4 1034.69C1644.47 1025.22 1662.44 1024.78 1673.13 1033.77ZM1548.34 1046.32C1591.98 1091.16 1598.83 1099.97 1592.9 1103.64C1590.92 1104.86 1591.18 1105.72 1593.8 1106.73C1596.1 1107.61 1597.44 1110.9 1597.44 1115.62V1123.11L1592.27 1117.96C1589.43 1115.13 1581.93 1109.38 1575.6 1105.17C1559.15 1094.23 1512.39 1039.71 1512.39 1031.46C1512.39 1022.51 1533.78 1031.36 1548.34 1046.32ZM1088.37 1035.94C1084.16 1039.12 1070.92 1040.92 1073.94 1037.9C1075.08 1036.76 1086.33 1033.48 1091.68 1032.73C1092.31 1032.63 1090.82 1034.08 1088.37 1035.94ZM1475.18 1055.37C1471.14 1061.87 1465.98 1074.1 1463.7 1082.55L1459.57 1097.93L1460.31 1080.68C1461.09 1062.96 1464.97 1052.02 1474.02 1042.13C1482.76 1032.59 1483.57 1041.88 1475.18 1055.37ZM1685.53 1048.32C1687.92 1050.71 1659.16 1054.34 1653.88 1052.32C1652 1051.6 1649.85 1052 1649.11 1053.2C1647.33 1056.08 1641.12 1056.05 1641.12 1053.18C1641.12 1046.37 1679.39 1042.18 1685.53 1048.32ZM1490.03 1055.98C1490.6 1057.56 1488.98 1062.98 1486.44 1068.04C1483.9 1073.1 1479.43 1083.96 1476.5 1092.18L1471.18 1107.12L1471.1 1094.48C1470.96 1070.69 1485.07 1042.01 1490.03 1055.98ZM1503.53 1075.51C1508.92 1081.97 1513.08 1093.1 1510.42 1093.99C1503.65 1096.24 1489.78 1108.65 1486.43 1115.44C1482.88 1122.65 1482.6 1122.8 1482.56 1117.46C1482.54 1114.3 1485.07 1107.58 1488.19 1102.52C1495.77 1090.21 1495.55 1086.6 1487.87 1097.39C1480.09 1108.32 1478.75 1106.93 1483.44 1092.8C1490.08 1072.8 1496.59 1067.2 1503.53 1075.51ZM1659.51 1088.28C1659.51 1088.66 1655.68 1092.54 1650.99 1096.9C1646.3 1101.26 1643.98 1102.77 1645.82 1100.25C1650.3 1094.15 1659.51 1086.09 1659.51 1088.28ZM1415.44 1106.09C1400.39 1149.28 1458.98 1217.32 1511.32 1217.42C1530.08 1217.46 1530.81 1219.09 1516.14 1228.38C1503.92 1236.1 1502.51 1236.12 1483.41 1228.94C1424.51 1206.77 1379.72 1136.83 1406.78 1109.27C1418.68 1097.15 1418.55 1097.2 1415.44 1106.09ZM1529.38 1102.71C1530.15 1104.71 1530.77 1108.85 1530.77 1111.91C1530.77 1115.27 1532.11 1117.46 1534.16 1117.46C1539.67 1117.46 1557.15 1128.19 1557.93 1132.04C1559.41 1139.34 1540.89 1148.32 1522.98 1149L1506.64 1149.62L1517.21 1146.22C1526.41 1143.25 1541.49 1132 1539.25 1129.77C1538.82 1129.34 1534.39 1130.96 1529.41 1133.37C1524.42 1135.77 1516.23 1138.46 1511.19 1139.34L1502.04 1140.93L1512.68 1134.02C1531.99 1121.49 1531.01 1115.69 1511.47 1126.73C1497.08 1134.84 1495.85 1134.12 1504.57 1122.7C1507.86 1118.39 1510 1114.32 1509.34 1113.66C1507.27 1111.58 1500.78 1116.37 1496.15 1123.38C1491.13 1131 1489.65 1125.73 1494.28 1116.74C1502.42 1100.89 1525.19 1091.8 1529.38 1102.71ZM1485.48 1143.93C1514.55 1172.56 1516.9 1175.59 1512.23 1178.47C1507.87 1181.16 1452.61 1124.14 1452.61 1116.95C1452.61 1112.48 1458.18 1117.05 1485.48 1143.93ZM1148.37 1121.01C1150.22 1125.86 1147.11 1128.48 1144.47 1124.29C1141.66 1119.84 1141.71 1117.46 1144.63 1117.46C1145.94 1117.46 1147.61 1119.06 1148.37 1121.01ZM1474.28 1159.22C1495.69 1183.19 1500.52 1189.84 1498.41 1192.39C1494.21 1197.44 1466.71 1172.98 1440.47 1140.85C1432.95 1131.64 1432.49 1128.1 1439.1 1130.2C1442.36 1131.23 1443.48 1130.91 1442.44 1129.23C1436.48 1119.6 1451.62 1133.86 1474.28 1159.22ZM1383.61 1159.05C1383.7 1201.5 1364.98 1241.65 1320.88 1293.65C1291.46 1328.36 1283.89 1334.18 1300.46 1309.39C1338.55 1252.38 1354.76 1213.65 1362.03 1162.29L1363.66 1150.79L1365.52 1158.84C1370.39 1179.87 1358.9 1223.01 1338.81 1259.21C1335.43 1265.31 1334.42 1268.25 1336.58 1265.72C1353.3 1246.16 1372.15 1192.59 1372.15 1164.61C1372.15 1151.2 1373.19 1144.59 1375.89 1140.73C1381.36 1132.92 1383.56 1138.16 1383.61 1159.05ZM1572.16 1140.42C1581.98 1146.68 1562.68 1158.33 1539.19 1160.32C1518.61 1162.06 1515.48 1158.77 1534.02 1154.88C1540.86 1153.44 1550.83 1149.1 1556.2 1145.21C1567.01 1137.38 1567.27 1137.31 1572.16 1140.42ZM1588.16 1151.84C1592.75 1154.74 1586.41 1161.69 1573.42 1167.98C1563.23 1172.91 1536.08 1174.76 1538.82 1170.33C1539.6 1169.07 1542.39 1168.03 1545.01 1168.03C1554.15 1168.03 1567.27 1162.76 1574.43 1156.22C1582.33 1149.01 1583.23 1148.72 1588.16 1151.84ZM1323.81 1198.88C1313.18 1243.1 1290.72 1279.38 1248.83 1320.01C1227.26 1340.93 1213.69 1348.69 1203.68 1345.82L1196.85 1343.86L1210.36 1333.02C1268.75 1286.18 1323.69 1207.9 1326.54 1167.49C1326.75 1164.58 1327.33 1165.75 1327.87 1170.14C1328.39 1174.47 1326.56 1187.4 1323.81 1198.88ZM1407.78 1193.31C1409.73 1199.43 1407.4 1206.22 1399.31 1218.02C1391.56 1229.33 1392.24 1229.93 1403.84 1222.05C1408.5 1218.89 1411.42 1216.3 1410.33 1216.3C1409.25 1216.3 1409.66 1214.75 1411.23 1212.85C1412.81 1210.96 1416.68 1209.4 1419.84 1209.4C1424.45 1209.4 1425.07 1210.03 1422.97 1212.56C1420.87 1215.08 1421.73 1215.99 1427.29 1217.1C1437.49 1219.14 1435.78 1221.75 1422.15 1224.92C1415.51 1226.47 1402.27 1231.62 1392.73 1236.38L1375.37 1245.03L1382.77 1232.83C1386.85 1226.11 1392.36 1213.44 1395.03 1204.67C1399.92 1188.54 1404.87 1184.14 1407.78 1193.31ZM1480.77 1246.94C1497.06 1253.75 1492.79 1256.38 1467.55 1255.06C1419.43 1252.56 1385.02 1261.34 1347.41 1285.72C1329.78 1297.14 1329.69 1297.17 1337.67 1288.8C1372.64 1252.09 1443.52 1231.36 1480.77 1246.94ZM1454.91 1262.27C1458.07 1263.28 1459.62 1264.22 1458.36 1264.35C1407.36 1269.64 1370.33 1283.99 1320.63 1317.72C1306.88 1327.05 1293.46 1336.08 1290.8 1337.81C1288.13 1339.52 1293.53 1333.58 1302.8 1324.6C1319.06 1308.87 1350.67 1287.3 1369.05 1279.41C1404.44 1264.22 1439.28 1257.26 1454.91 1262.27ZM1454.91 1299.91C1454.91 1300.38 1447.41 1303.14 1438.24 1306.03C1392.72 1320.38 1337.84 1361.01 1303.05 1406.11C1289.82 1423.25 1289.01 1420.08 1301.15 1398.62C1328.01 1351.14 1381.89 1312.55 1435.37 1302.49C1454.74 1298.84 1454.91 1298.83 1454.91 1299.91ZM1620.43 1327.22C1571.95 1373.61 1569.72 1374.88 1536.04 1374.97C1468.49 1375.17 1422.37 1393.77 1378.05 1438.68C1348.69 1468.44 1347.21 1463.43 1403.07 1523.15C1436.53 1558.93 1475.2 1602.41 1531.84 1667.96C1556.97 1697.04 1593.77 1739.45 1613.63 1762.2C1633.49 1784.96 1668.17 1824.78 1690.67 1850.7C1713.19 1876.62 1742.03 1909.26 1754.76 1923.24C1767.49 1937.23 1786.09 1957.91 1796.08 1969.22C1818.21 1994.23 1847.55 2026.29 1891.71 2073.69C1931.67 2116.6 2003.29 2193.91 2019.29 2211.41C2025.61 2218.32 2040.7 2234.37 2052.82 2247.08C2064.94 2259.78 2088.73 2285.23 2105.69 2303.62C2135.73 2336.18 2276.54 2487.7 2299.68 2512.37C2371.79 2589.2 2462.51 2582.85 2556.82 2494.35C2637.71 2418.45 2657.19 2334.84 2610.34 2264.6C2597 2244.6 2589.34 2236.77 2448.04 2098.86C2276.3 1931.25 2268.82 1923.99 2089.42 1750.5C2073.6 1735.21 2050.34 1712.98 2037.7 1701.08C2025.07 1689.19 2004.89 1670.1 1992.87 1658.67C1980.85 1647.24 1963.78 1631.13 1954.92 1622.88C1946.07 1614.62 1920.21 1590.34 1897.45 1568.91C1874.69 1547.49 1841.58 1516.57 1823.89 1500.21C1760.61 1441.72 1713.67 1396.12 1675.98 1356.51C1631.1 1309.35 1636.26 1312.07 1620.43 1327.22ZM1149.38 1347.69C1174.19 1365.51 1266.53 1462.68 1279.36 1484.45C1287.43 1498.16 1285.57 1502.05 1256.25 1532.86C1242.07 1547.75 1226.72 1564.07 1222.13 1569.13C1214.11 1577.97 1207.2 1577.33 1206.7 1567.72C1206.66 1566.95 1222.03 1550.59 1240.87 1531.38L1275.1 1496.44L1270.18 1491.28C1267.47 1488.45 1255.77 1475.21 1244.18 1461.87C1223.84 1438.46 1189.26 1407.59 1186.49 1410.36C1185.34 1411.52 1193.72 1424.97 1216.66 1458.79C1220.14 1463.94 1217.66 1462.47 1206.91 1453.05C1189.14 1437.49 1174.44 1426.84 1174.44 1429.54C1174.44 1431.15 1192.61 1457.2 1205.21 1473.65C1207.74 1476.96 1201.71 1472.79 1182.92 1458.24C1158.75 1439.53 1155.11 1439.51 1169.08 1458.16C1198.19 1497.03 1198.33 1496.93 1160.04 1465.12C1139.71 1448.23 1139.6 1451.39 1159.56 1478.58C1176.76 1502.01 1176.64 1503.28 1158.66 1488.03C1122.16 1457.06 1112.21 1456.5 1138.24 1486.89C1177.69 1532.94 1187.75 1546.25 1185.1 1548.9C1183.49 1550.5 1052.09 1418.56 1053.14 1416.39C1053.47 1415.69 1062.55 1406.92 1073.29 1396.88C1084.04 1386.85 1101.82 1370.04 1112.81 1359.53C1135.45 1337.86 1135.63 1337.81 1149.38 1347.69ZM1134.07 1360.73C1132.89 1363.25 1118.46 1377.41 1102.03 1392.21C1067.51 1423.29 1068.69 1421.66 1077.91 1425.48C1084.77 1428.32 1085.34 1428.08 1094.78 1418.32C1120.31 1391.96 1137.99 1376.55 1144.27 1375.2L1151.03 1373.75L1143.63 1364.96C1136.72 1356.76 1136.07 1356.47 1134.07 1360.73ZM1628.54 1366.77C1635.88 1373.49 1636.77 1375.28 1634.3 1378.26C1630.26 1383.12 1628.29 1382.76 1619.16 1375.48C1610.15 1368.29 1609.86 1367.41 1614.85 1362.42C1619.44 1357.83 1618.42 1357.5 1628.54 1366.77ZM1608.37 1384.86L1615.84 1392.38L1607.74 1400.22L1599.65 1408.07L1590.19 1398.61L1580.73 1389.15L1589.66 1383.31C1600.78 1376.04 1599.48 1375.93 1608.37 1384.86ZM1656.07 1395.12C1668.14 1405.57 1669.18 1403.82 1627.9 1441.91C1551.09 1512.74 1529.84 1530.5 1561.64 1497.26C1569.77 1488.77 1576.06 1481.47 1575.63 1481.05C1573.59 1479.01 1563.18 1487.6 1530.51 1518.24C1511.06 1536.5 1494.79 1551.1 1494.36 1550.68C1491.48 1547.94 1644.79 1390.78 1650.06 1391.07C1650.84 1391.11 1653.54 1392.93 1656.07 1395.12ZM1578.68 1407.09L1588.65 1416.11L1580.97 1425.34C1571.24 1437.05 1572.88 1437.57 1556.37 1417.62C1539.25 1396.92 1539.29 1397.87 1555.49 1397.98C1567.58 1398.07 1569.55 1398.85 1578.68 1407.09ZM1515.83 1405.67C1531.71 1413.19 1562.02 1441.59 1559.94 1447C1559.09 1449.23 1557.36 1450.4 1556.08 1449.61C1554.81 1448.83 1553.76 1449.42 1553.76 1450.94C1553.76 1463.01 1542.1 1460.08 1531.53 1445.35C1526.85 1438.84 1517.54 1426.67 1510.81 1418.32C1494.22 1397.69 1494.97 1395.8 1515.83 1405.67ZM1138.02 1419.57C1123.27 1433.89 1120.27 1440.28 1131 1434.54C1139.03 1430.23 1158.36 1411.44 1158.36 1407.92C1158.36 1401.9 1153.14 1404.89 1138.02 1419.57ZM1496.13 1437.97C1523.41 1466.42 1529.35 1473.79 1526.95 1476.18C1524.6 1478.54 1522.02 1476.02 1498.5 1448.45C1469.18 1414.08 1467.93 1408.56 1496.13 1437.97ZM1693.42 1429.97C1700.34 1436.49 1700.13 1437.26 1688.82 1446.33C1673.84 1458.35 1607.55 1521.12 1565.43 1563.16C1522.15 1606.37 1523.19 1602.53 1567.56 1555.33C1631.89 1486.91 1619.86 1493.02 1540.68 1568.98C1528.91 1580.27 1519.28 1588.42 1519.28 1587.09C1519.28 1582.52 1597.47 1500.19 1639.32 1460.69C1683.57 1418.93 1682.41 1419.59 1693.42 1429.97ZM1015.17 1432.93C1031.18 1446.66 1124.9 1543.59 1181.31 1604.76C1193.2 1617.65 1197.43 1625.86 1197.28 1635.78L1197.15 1644.98L1192.12 1634.13C1187.28 1623.7 1155.76 1589.64 1121.86 1558.21C1101.28 1539.12 1097.63 1541.43 1115.1 1562.49C1139.88 1592.37 1139.51 1592.9 1112.03 1566.83C1068.23 1525.27 1050.01 1514.64 1080.77 1548.57C1099.36 1569.09 1123.05 1596.58 1128.19 1603.6C1130.05 1606.13 1123.54 1599.92 1113.73 1589.82C1103.93 1579.7 1083.84 1559.01 1069.08 1543.84C977.597 1449.76 981.337 1453.99 981.337 1444.71C981.337 1425.57 999.293 1419.31 1015.17 1432.93ZM1460.56 1457.82C1479.56 1474.78 1500.89 1497.4 1500.89 1500.6C1500.89 1507 1494.68 1503.01 1483.18 1489.22C1470.56 1474.11 1465.36 1468.22 1448.23 1449.64C1437.37 1437.88 1440.65 1440.05 1460.56 1457.82ZM1806.61 1540.26C1827.49 1559.78 1855.47 1586.15 1868.8 1598.87C1882.12 1611.59 1900.74 1629.17 1910.17 1637.94C1919.61 1646.71 1940.78 1666.88 1957.22 1682.76C2051.7 1774.05 2099.39 1819.82 2101.22 1820.98C2102.36 1821.71 2119.06 1837.74 2138.35 1856.61C2157.62 1875.48 2208.03 1924.49 2250.37 1965.53C2292.71 2006.56 2347.52 2059.9 2372.17 2084.06C2396.83 2108.22 2434.06 2144.64 2454.92 2165.01L2492.83 2202.04L2487.36 2207.86L2481.89 2213.68L2425.31 2159.2C2394.19 2129.24 2342.34 2078.77 2310.11 2047.07C2255.25 1993.13 2137.18 1878.59 2074.47 1818.51C2059.3 1803.97 2019.46 1765.64 1985.96 1733.34C1952.45 1701.04 1907.96 1658.64 1887.11 1639.12C1801.53 1559.06 1764.82 1524.27 1734.8 1494.76L1703.19 1463.7L1708.11 1458.45L1713.03 1453.22L1740.84 1478.99C1756.14 1493.17 1785.73 1520.74 1806.61 1540.26ZM1470.79 1520.43C1478.16 1526.53 1478.37 1527.11 1474.64 1530.77C1470.93 1534.42 1470.12 1533.97 1461.08 1523.15C1455.79 1516.83 1443.96 1503.71 1434.8 1494C1411.9 1469.73 1413.92 1469.62 1440.55 1493.7C1452.89 1504.84 1466.49 1516.87 1470.79 1520.43ZM984.971 1497.32C1022.05 1536.22 1041.59 1557.32 1068.54 1587.59C1084.25 1605.25 1106.76 1629.05 1118.54 1640.49C1133.01 1654.52 1139.96 1662.95 1139.96 1666.43C1139.96 1674.49 1132.47 1669.1 1120.36 1652.34C1108.88 1636.46 1075.24 1598.82 1066.5 1592.09L1060.85 1587.73L1066.03 1596.11C1079.18 1617.39 1060.44 1602.61 1011.43 1553.04C958.822 1499.84 955.601 1495.51 961.657 1486.27C966.788 1478.44 967.128 1478.6 984.971 1497.32ZM1711.23 1501.22C1717.56 1508.69 1728.74 1519.77 1736.08 1525.85L1749.44 1536.88L1741.83 1538.83C1737.65 1539.91 1730.97 1543.25 1727 1546.27L1719.77 1551.75L1718.29 1543.89C1716.56 1534.63 1704.9 1505.74 1698.57 1495.03C1691.28 1482.67 1698.57 1486.23 1711.23 1501.22ZM1682.57 1512.14C1686.79 1520.72 1694.02 1541.91 1698.63 1559.22C1707.77 1593.51 1713.47 1604.23 1726.45 1611.53C1749.87 1624.69 1779.05 1606.25 1769.87 1584.1C1766.48 1575.9 1760.97 1573.13 1762.34 1580.31C1765.25 1595.52 1744.86 1603.18 1734.43 1590.79C1721.37 1575.26 1737.91 1553.21 1759.18 1557.78C1793.59 1565.18 1806.85 1607.09 1781.53 1628.39C1771.26 1637.04 1768.94 1636.2 1775.68 1626.28C1783.44 1614.84 1786.93 1600.89 1784.48 1591.14C1781.61 1579.69 1776.85 1579.19 1778.37 1590.5C1782.15 1618.74 1752.69 1640.76 1723.9 1631.19C1696.34 1622.04 1681.66 1597.74 1676.7 1553.04C1675.86 1545.45 1673.27 1531.63 1670.95 1522.32C1663.55 1492.58 1670.11 1486.84 1682.57 1512.14ZM944.453 1523.41C925.432 1543.38 882.485 1575.2 882.485 1569.32C882.485 1568.79 881.893 1566.82 881.174 1564.94C880.302 1562.66 883.55 1558.99 890.944 1553.93C905.48 1543.97 932.726 1521.8 939.828 1514.16C944.839 1508.77 945.817 1508.49 948.919 1511.6C952.02 1514.7 951.541 1515.97 944.453 1523.41ZM1662.88 1536.68C1664.91 1546.64 1666.16 1555.21 1665.64 1555.72C1664.55 1556.81 1652.62 1519.35 1652.62 1514.86C1652.62 1505.83 1659.62 1520.72 1662.88 1536.68ZM1006.44 1580.1L1025.95 1600.26L1007.69 1618.63C997.642 1628.74 988.119 1636.5 986.528 1635.89C980.379 1633.53 986.402 1648.57 994.561 1655.96C1000.86 1661.66 1002.99 1660.25 1025.02 1635.72C1044.18 1614.38 1050.69 1610.25 1053.53 1617.65C1055.08 1621.68 1012.28 1671.41 1007.25 1671.41C1005.55 1671.41 1015.8 1659.17 1030.37 1643.81C1054.73 1618.13 1054.45 1616.27 1029.95 1640.96C1003.07 1668.03 1002.53 1668.2 987.486 1653.6C973.603 1640.13 977.091 1649.57 992.425 1666.97C999.053 1674.49 1001.09 1678.4 999.612 1680.76C998.009 1683.32 992.957 1679.26 977.117 1662.71L956.686 1641.36L963.368 1632.96C970.941 1623.43 971.141 1615.45 963.833 1614.4C959.108 1613.73 926.084 1640.5 926.943 1644.3C927.276 1645.77 971.966 1691.51 991.087 1709.95L998.867 1717.45L1004.47 1711.3C1009.45 1705.84 1009.56 1705.34 1005.48 1706.82C1000.03 1708.8 1005.62 1702.39 1031.25 1677.29C1040.37 1668.37 1051.98 1657 1057.07 1652.02C1079.47 1630.1 1065.91 1648.71 1035.44 1681.71C1017.06 1701.61 1002.03 1718.82 1002.03 1719.93C1002.03 1725.08 994.707 1720.77 979.127 1706.47C948.759 1678.57 943.016 1677.69 966.409 1704.5C990.674 1732.32 980.964 1725.01 937.638 1682.85L897.427 1643.72L911.223 1630.7C918.803 1623.54 931.981 1610.93 940.5 1602.69L955.987 1587.7L963.907 1595.38C976.499 1607.58 978.648 1615.11 972.565 1625.67C965.105 1638.63 966.389 1638.71 977.83 1626C983.487 1619.7 991.247 1613.26 995.067 1611.68C998.894 1610.09 1002.03 1608.28 1002.03 1607.65C1002.03 1605.35 960.073 1561.08 957.89 1561.08C955.601 1561.08 949.904 1566.02 907.975 1604.33C895.091 1616.11 883.637 1625.42 882.539 1625.02C878.193 1623.45 838.813 1578.56 840.477 1577.07C850.413 1568.25 857.528 1570.01 871.105 1584.66L884.402 1599.01L896.661 1587.16C903.403 1580.65 920.747 1565.43 935.209 1553.34L961.497 1531.35L974.216 1545.65C981.211 1553.5 995.712 1569.01 1006.44 1580.1ZM1651.14 1553.8C1654.48 1566.23 1657.21 1578.68 1657.21 1581.46C1657.21 1592.5 1667.51 1616.2 1681.4 1637.12C1709.86 1679.98 1719.29 1684.25 1779.88 1681.76C1848.71 1678.94 1877.74 1689.86 1906.98 1729.58C1927.62 1757.62 1930.09 1773.29 1927.66 1861.04C1927.48 1867.36 1928.02 1881.33 1928.86 1892.07L1930.38 1911.61L1927.2 1898.97C1925.45 1892.02 1922.88 1870.3 1921.49 1850.72C1920.09 1831.13 1918.61 1814.78 1918.21 1814.37C1917.79 1813.96 1916.76 1825.33 1915.9 1839.63C1909.58 1945.37 1946.49 2001.9 2030.44 2015.03L2049.18 2017.97L2030.79 2018.17C1955.36 2019.01 1906.31 1957.15 1908.02 1863.34C1909.72 1770.47 1909.74 1770.78 1901.38 1753.14C1879.59 1707.11 1846.75 1690.22 1784.8 1693.2C1711.61 1696.71 1670.61 1661.34 1651.67 1578.32L1648.53 1564.53L1648.32 1580.62C1647.54 1642.03 1676.69 1682.54 1732.91 1698.17C1750.45 1703.04 1749.71 1704.16 1730.97 1701.14C1670.45 1691.4 1641.12 1647.82 1641.12 1567.61C1641.12 1525.24 1642.83 1522.88 1651.14 1553.8ZM1617.2 1583.5C1617.44 1616.55 1620.77 1631.59 1633.01 1654.75C1642 1671.78 1640.65 1673.49 1630.28 1658.19C1615.43 1636.24 1609.03 1613.75 1609.75 1586.04L1610.09 1573.07L1603.5 1577.77C1599.87 1580.35 1592.72 1586.44 1587.6 1591.31C1568.12 1609.84 1576.56 1595.93 1599.11 1572.32C1608.64 1562.35 1616.57 1554.19 1616.71 1554.19C1616.86 1554.19 1617.08 1567.38 1617.2 1583.5ZM821.835 1597.28C835.852 1615.7 928.84 1714.76 994.554 1781.29C1020.32 1807.38 1027.31 1815.78 1027.31 1820.63C1027.31 1831.04 1023.01 1832.96 1014.89 1826.16C957.311 1778.01 797.424 1613.87 797.424 1602.91C797.424 1600.31 810.495 1588.67 813.423 1588.67C814.435 1588.67 818.222 1592.55 821.835 1597.28ZM1845.72 1628.9C1850.15 1632.51 1852.08 1634.84 1850.01 1634.07C1847.95 1633.31 1836.44 1631.37 1824.44 1629.76C1805.71 1627.24 1803.08 1626.38 1805.86 1623.6C1807.64 1621.82 1810.3 1615.82 1811.79 1610.25L1814.5 1600.12L1826.09 1611.23C1832.47 1617.34 1841.3 1625.29 1845.72 1628.9ZM1086.78 1627.93C1096.79 1639.58 1095.1 1639.48 1083.64 1627.74C1078.7 1622.68 1075.64 1618.64 1076.85 1618.74C1078.05 1618.85 1082.52 1622.98 1086.78 1627.93ZM1564.16 1628.31C1568.92 1633.69 1589.47 1655.15 1609.86 1676.01C1656.57 1723.82 1722.58 1797.33 1751.24 1833.46C1762.81 1848.05 1736.91 1821.21 1705.78 1786.34C1669.27 1745.46 1644.41 1718.95 1588.01 1660.79C1557.99 1629.82 1548.76 1618.54 1553.42 1618.54C1554.58 1618.54 1559.41 1622.94 1564.16 1628.31ZM790.555 1634.69C796.865 1646.48 741.932 1709.68 675.585 1766.95C626.049 1809.71 568.667 1852.19 458.335 1927.75C309.821 2029.46 213.013 2114.79 157.781 2192.68L142.646 2214.01L137.575 2206.89L132.504 2199.77L143.272 2184.15C159.165 2161.11 176.628 2139.63 199.895 2114.52C217.772 2095.22 230.982 2082.7 275.573 2042.73C279.999 2038.76 289.829 2030.52 297.416 2024.4C304.996 2018.28 312.756 2011.86 314.653 2010.14C327.644 1998.3 397.312 1946.63 427.301 1926.6C626.628 1793.42 737.526 1700.66 774.037 1636.58C780.546 1625.16 785.171 1624.63 790.555 1634.69ZM980.891 1631.77C976.505 1636.87 973.836 1641.53 975.294 1641.53C975.919 1641.53 978.635 1638.43 981.337 1634.63C986.694 1627.11 986.415 1625.33 980.891 1631.77ZM1170.37 1646.13C1173.37 1648.92 1178.53 1650.74 1183.5 1650.76C1189.63 1650.79 1190.82 1651.36 1188.24 1653.03C1182.06 1657.02 1175.43 1655.46 1168.7 1648.43C1161.34 1640.74 1162.65 1638.94 1170.37 1646.13ZM1745.72 1656.15C1757.1 1656.16 1781.41 1655.32 1799.75 1654.3C1898.41 1648.77 1963.11 1712.98 1970.99 1824.27C1975.76 1891.58 1991.6 1917.35 2028.18 1917.35C2061.79 1917.35 2079.91 1875.15 2052.41 1860.93C2041.97 1855.54 2037.36 1858.21 2044.6 1865.45C2058.16 1879.01 2040.64 1900.17 2023.29 1891.21C1985.03 1871.43 2019.63 1820.91 2059.82 1837.88C2117.79 1862.37 2094.61 1945.06 2029.55 1945.84C1974.5 1946.51 1946.25 1905.22 1942.47 1818.52C1937.86 1713.24 1889.66 1668.55 1784.8 1672.33C1730.82 1674.28 1712.9 1669.63 1697.72 1649.74L1691.58 1641.69L1708.3 1648.91C1722.94 1655.24 1727.62 1656.14 1745.72 1656.15ZM818.102 1666.8L825.376 1675.98L820.019 1678.05C817.077 1679.19 806.488 1683.87 796.499 1688.44C773.744 1698.85 773.837 1699.09 792.139 1676.47C809.876 1654.54 808.731 1654.97 818.102 1666.8ZM1068.33 1685.83C1011.82 1753.78 1003.1 1763.37 1013.54 1746.11C1023.51 1729.62 1077.29 1667.75 1079.62 1670.08C1080.16 1670.62 1075.08 1677.71 1068.33 1685.83ZM1109.82 1688.99C1111.02 1689.92 1100.26 1698.82 1097.83 1698.92C1096.77 1698.96 1096.56 1696.06 1097.35 1692.47C1098.33 1687.99 1097.67 1685.01 1095.24 1682.99C1082.08 1672.07 1094.66 1677.24 1109.82 1688.99ZM847.998 1701.02C847.998 1702.13 844.69 1704.4 840.643 1706.08C829.715 1710.61 805.849 1735.18 798.741 1749.21C791.72 1763.08 792.119 1767.57 799.34 1756.01C811.267 1736.9 841.668 1712.79 853.828 1712.79C863.97 1712.79 864.436 1717.97 854.68 1722.33C826.907 1734.77 805.077 1767.53 792.911 1815.07C786.289 1840.94 779.308 1860.94 777.531 1859.16C777.098 1858.72 778.29 1853.81 780.173 1848.22C783.993 1836.89 788.213 1809.32 786.123 1809.34C785.384 1809.34 782.27 1817.88 779.208 1828.3C757.365 1902.58 694.572 1932.36 654.148 1887.62C643.659 1876.02 642.042 1875.83 647.739 1886.9C661.362 1913.39 692.789 1922.52 724.887 1909.33C741.679 1902.43 744.454 1903.55 729.26 1911.09C687.977 1931.59 648.211 1920.63 631.653 1884.18C611.095 1838.93 665.562 1783.8 705.035 1809.91C727.436 1824.74 723.224 1860.23 698.419 1865.67C680.896 1869.52 666.227 1844.99 681.921 1838.09C689.488 1834.76 688.217 1832.31 678.926 1832.31C650.348 1832.31 650.674 1875.02 679.365 1888.63C716.608 1906.3 745.446 1873.36 763.861 1792.09C772.16 1755.48 798.875 1717.05 825.023 1704.11C835.426 1698.96 847.998 1697.27 847.998 1701.02ZM1066.52 1707.62C1062.43 1714.63 1057.29 1720.53 1056.2 1719.44C1055.62 1718.86 1057.75 1715.06 1060.93 1710.99C1067.2 1702.99 1070.3 1701.12 1066.52 1707.62ZM1686.57 1711.15C1708.83 1724.81 1736.82 1728.56 1777.47 1723.32C1811.16 1718.98 1828.7 1720.73 1844.77 1730.06C1906.37 1765.84 1884.96 1864.31 1818.14 1852.56C1784.65 1846.67 1769.46 1804.02 1793.03 1782.07C1812.75 1763.71 1846.28 1788.44 1827.34 1807.37C1818.9 1815.82 1813.17 1815.11 1809.96 1805.22C1807.05 1796.25 1804.34 1797.91 1804.34 1808.66C1804.34 1832.29 1839.75 1834.28 1851.63 1811.31C1871.19 1773.49 1835.62 1742.89 1779.78 1749.51C1747.72 1753.31 1731.33 1751.3 1710.62 1741.06C1689.94 1730.84 1690.61 1728.24 1711.62 1737.17C1728.26 1744.24 1739.92 1745 1796.29 1742.62C1832.4 1741.1 1849 1751.38 1861 1782.68C1874.25 1817.22 1855.31 1843.98 1821.52 1838.49C1799.86 1834.97 1787.78 1807.73 1801.28 1792.81C1806.47 1787.08 1800.98 1787.4 1795.21 1793.18C1777.45 1810.93 1794.27 1843.96 1823.02 1847.81C1870 1854.11 1886.88 1787.22 1847.6 1750.48C1833.12 1736.93 1824.42 1735.1 1773.31 1734.83C1721.41 1734.55 1715.33 1733.24 1689.98 1716.91C1682.07 1711.82 1675.61 1707.25 1675.61 1706.77C1675.61 1704.98 1678.21 1706.02 1686.57 1711.15ZM772.812 1720.25C760.007 1733.46 748.341 1755.66 741.186 1780.46C737.918 1791.75 734.617 1801.58 733.839 1802.29C732.315 1803.68 734.371 1782.59 736.827 1771.63C739.423 1760.04 733.573 1767.05 729.28 1780.67C724.907 1794.53 721.56 1796.99 721.56 1786.34C721.56 1778.48 719.922 1777.68 715.65 1783.46C713.267 1786.69 712.096 1786.92 709.76 1784.61C708.156 1783.04 703.69 1781.69 699.837 1781.62L692.822 1781.5L701.86 1774.15C706.831 1770.11 719.763 1758.68 730.598 1748.75C747.342 1733.41 777.664 1710.49 781.211 1710.49C781.804 1710.49 778.023 1714.88 772.812 1720.25ZM907.769 1711.74C907.769 1720.84 1015.12 1826.88 1019.7 1822.3C1022.6 1819.4 1009.28 1804.94 961.038 1758.68C914.078 1713.63 907.769 1708.07 907.769 1711.74ZM1084.05 1715.99C1082.49 1720.05 1061.85 1747.26 1060.34 1747.26C1058.42 1747.26 1069.13 1729.4 1076.16 1720.87C1083.13 1712.42 1086.13 1710.56 1084.05 1715.99ZM879.697 1735.42C881.753 1736.72 879.817 1738.57 873.321 1741.5C848.164 1752.85 834.194 1780.82 828.557 1831.16C817.143 1933.03 746.597 1994.74 646.874 1990.07C630.422 1989.3 603.514 1988.06 587.076 1987.3C570.131 1986.53 553.207 1986.92 547.995 1988.2C539.716 1990.23 540.808 1990.47 558.944 1990.68C575.169 1990.86 647.186 2001.03 649.822 2003.5C650.188 2003.85 623.294 2004.01 590.05 2003.85L529.6 2003.55L506.806 2011.44C453.164 2030 416.26 2065.11 399.349 2113.68C391.961 2134.9 390.704 2129.68 396.467 2101.72C412.054 2026.13 478.687 1973.88 568.84 1966.57C595.421 1964.41 593.252 1961.03 565.279 1961.03C455.214 1961.03 390.424 2028.45 380.195 2153.63C375.636 2209.5 372.548 2224.13 359.81 2250.41C336.436 2298.6 276.398 2321.7 239.861 2296.56C227.768 2288.24 226.523 2290.73 237.139 2301.99C259.454 2325.64 308.93 2320.38 341.774 2290.86C348.349 2284.94 353.733 2281.12 353.733 2282.38C353.733 2299.19 295.532 2326.65 267.36 2323.13C230.63 2318.54 200.435 2255.29 218.783 2221.34C223.249 2213.07 221.046 2211.41 214.79 2218.31C200.661 2233.93 201.38 2279.57 216.081 2299.96L221.126 2306.96L215.203 2301.56C167.797 2258.38 219.555 2160.45 276.724 2185.16C280.771 2186.91 280.957 2186.7 278.262 2183.39C273.517 2177.55 260.013 2174.09 247.674 2175.55C211.076 2179.89 185.593 2210.35 183.943 2251.74L183.124 2272.37L178.898 2264.38C165.787 2239.57 177.354 2198.27 204.215 2174C257.338 2126.01 341.7 2176.69 310.707 2237.97C294.454 2270.1 247.987 2269.43 247.987 2237.07C247.987 2223.45 268.332 2210.91 274.422 2220.76C276.485 2224.1 280.172 2223.58 280.172 2219.97C280.172 2200.79 241.924 2205.8 232.007 2226.28C212.035 2267.53 260.339 2306.38 304.857 2284.87C339.131 2268.3 353.886 2237.04 358.339 2171.57C368.901 2016.13 447.999 1937.83 588.227 1944C666.101 1947.43 699.837 1946.58 715.656 1940.79C746.91 1929.35 774.882 1906.47 788.026 1881.6C792 1874.09 794.768 1870.01 794.176 1872.54C789.917 1890.74 787.208 1897.53 779.434 1909.51C753.126 1950.07 708.569 1971.66 638.801 1977.67C599.574 1981.04 611.66 1984.94 656.045 1983.22C710.519 1981.12 746.69 1965.62 784.346 1928.27C803.879 1908.89 812.225 1883.83 815.919 1833.47C818.441 1799.05 822.221 1780.14 829.376 1766.11C840.138 1745.02 868.023 1728.01 879.697 1735.42ZM1050.25 1773.28C1050.33 1776.3 1045.7 1784.04 1043.8 1784.04C1039.09 1784.04 1034.83 1768.32 1038.54 1764.61C1042.11 1761.04 1050.08 1766.94 1050.25 1773.28ZM2012.73 1786.78C2037.66 1811.31 2039.5 1813.92 2031.85 1813.92C2029.26 1813.92 2023.19 1815.95 2018.34 1818.42C2008.03 1823.68 2006.66 1822.9 2006.61 1811.82C2006.54 1795.67 2002.76 1797.23 2001.21 1814.05C1998.78 1840.1 1996.03 1840.18 1994.25 1814.27C1993.37 1801.56 1991.15 1785.37 1989.31 1778.29C1987.46 1771.21 1985.96 1764.96 1985.96 1764.39C1985.96 1761.21 1991.21 1765.6 2012.73 1786.78ZM900.508 1768.66C902.352 1770.88 901.533 1774.56 897.34 1782.84C893.067 1791.27 891.663 1797.73 891.603 1809.14C891.537 1823.26 891.297 1823.96 887.963 1819.67C882.878 1813.13 885.227 1793.55 892.701 1780.18C899.896 1767.31 898.618 1764.85 889.354 1773.73C869.354 1792.89 867.558 1828.94 885.886 1843.36C905.639 1858.89 934.417 1847.51 941.179 1821.5C943.887 1811.09 944.14 1810.83 945.698 1816.79C955.96 1856.04 889.081 1870.83 870.925 1833.32C856.483 1803.5 882.399 1746.85 900.508 1768.66ZM1765.26 1777C1765.26 1778.12 1760.87 1779.83 1755.49 1780.8C1745.79 1782.54 1745.77 1782.57 1752.04 1784.89C1758.42 1787.25 1760.32 1791.75 1756.06 1794.39C1753.68 1795.86 1733.08 1780.34 1733.08 1777.08C1733.08 1776.08 1740.32 1775.2 1749.17 1775.11C1758.02 1775.03 1765.26 1775.88 1765.26 1777ZM1951.48 1816.85C1951.48 1881.91 1964.71 1914.43 1997.96 1931.04C2034.82 1949.45 2078.28 1930.62 2077.76 1896.47L2077.61 1886.33L2074.46 1896.41C2062.12 1935.96 2005.97 1940.91 1978.71 1904.84C1964.24 1885.7 1956.99 1851.47 1956.16 1798.41C1956.11 1795.56 1955.04 1793.24 1953.77 1793.24C1952.39 1793.24 1951.48 1802.64 1951.48 1816.85ZM2012.2 1800.45C2014.2 1805.19 2017.05 1807.97 2020.17 1808.2C2026.44 1808.66 2026.32 1806.67 2019.77 1800.98C2010.14 1792.61 2008.87 1792.51 2012.2 1800.45ZM1785.42 1881.73C1886.58 1998.06 2043.47 2164.97 2048.65 2161.77C2050.05 2160.9 2050.35 2161.41 2049.37 2162.98C2047.28 2166.37 2095.94 2218.97 2099.26 2216.91C2100.6 2216.09 2100.92 2216.58 2100 2218.06C2098.4 2220.66 2142.29 2270.34 2254.01 2392.41C2264.64 2404.01 2273.32 2413.92 2273.32 2414.44C2273.32 2414.96 2254.96 2396.68 2232.51 2373.81C2193.4 2333.94 2175.15 2314.61 2104.18 2237.88C2086.57 2218.85 2040.61 2169.79 2002.05 2128.87C1919.66 2041.46 1901.09 2021.01 1805.92 1912.98C1720.72 1816.28 1700.6 1791.77 1738.73 1831.16C1753.42 1846.33 1774.43 1869.08 1785.42 1881.73ZM921.572 1825.4C916.574 1834.75 904.062 1836.94 895.956 1829.89L890.532 1825.17L895.683 1826.59C908.155 1830.03 911.722 1829.8 916.567 1825.3C919.316 1822.74 921.645 1819.38 921.745 1817.85C921.885 1815.72 922.191 1815.72 923.043 1817.82C923.662 1819.33 922.996 1822.74 921.572 1825.4ZM987.087 1849.65C945.278 1880.11 931.568 1892.02 891.59 1932.64C842.141 1982.87 798.196 2036.03 758.843 2093.19C631.034 2278.87 514.819 2413.32 434.036 2468.96L417.684 2480.23L410.031 2476.57L402.377 2472.93L423.461 2458.04C510.573 2396.5 567.442 2332.33 728.448 2113.88C832.065 1973.3 892.788 1907.66 965.677 1857.45C980.545 1847.21 1000.34 1840.01 987.087 1849.65ZM605.171 1860.47C603.388 1872.13 605.331 1871.01 592.094 1868.05L581.026 1865.57L590.949 1858.32C604.792 1848.2 607.002 1848.54 605.171 1860.47ZM846.587 1866.22C841.336 1934.12 784.379 1997.61 716.209 2011.55C699.937 2014.89 696.389 2013.27 711.577 2009.45C771.235 1994.42 823.2 1940.04 839.079 1875.98C845.302 1850.87 845.355 1850.7 846.673 1850.7C847.285 1850.7 847.252 1857.68 846.587 1866.22ZM1882.35 1889.77C1882.53 1904.23 1889.93 1940.93 1893.67 1945.93C1899.9 1954.25 1908.13 1970.99 1904.56 1968.06C1880.99 1948.76 1861.82 1911.53 1861.82 1885.07C1861.82 1865.41 1865.55 1866.4 1867.07 1886.46C1868.03 1899.29 1870.19 1907.36 1875.47 1918C1879.39 1925.87 1882.02 1930.31 1881.32 1927.89C1877.53 1914.67 1875.38 1886.79 1876.96 1871.39L1878.74 1854.15L1880.45 1864.49C1881.4 1870.18 1882.25 1881.55 1882.35 1889.77ZM893.42 1882.35C894.498 1885.58 886.605 1888.13 884.762 1885.15C883.743 1883.49 882.226 1883.86 880.229 1886.27C877.654 1889.37 877.847 1889.67 881.587 1888.34C884.296 1887.38 882.532 1890.36 876.888 1896.29C866.779 1906.89 864.37 1907.25 869.474 1897.38C871.358 1893.74 873.587 1887.07 874.432 1882.56L875.97 1874.36L884.322 1877.23C888.914 1878.81 893.008 1881.12 893.42 1882.35ZM1846.02 1882.33C1844.83 1884.56 1844.39 1889.21 1845.06 1892.67C1846.76 1901.58 1841.46 1900.83 1833.66 1891.04C1825.75 1881.14 1825.76 1881.07 1834.8 1879.94C1838.92 1879.43 1843.61 1878.85 1845.23 1878.65C1847.35 1878.39 1847.58 1879.42 1846.02 1882.33ZM922.278 1894.58C911.642 1903.62 871.072 1944.73 865.774 1951.84C863.212 1955.26 869.634 1949.25 913.433 1907.17C937.199 1884.35 941.465 1878.27 922.278 1894.58ZM2135.37 1908.4C2135.36 1908.9 2129.73 1909.48 2122.86 1909.67C2110.49 1910.02 2110.39 1909.97 2112.54 1904.35C2113.73 1901.22 2114.7 1895.67 2114.7 1892.02V1885.37L2125.04 1896.43C2130.73 1902.52 2135.38 1907.9 2135.37 1908.4ZM608.346 1893.6C617.55 1900.47 617.617 1903.76 608.506 1901.15C597.864 1898.1 568.188 1898.74 557.187 1902.27C548.248 1905.13 548.535 1905.21 567.536 1904.98C588.247 1904.72 614.662 1911.11 623.86 1918.59C627.387 1921.46 627.56 1922.05 624.605 1921.13C596.127 1912.26 537.201 1915.45 507.458 1927.46C487.978 1935.33 488.457 1934.42 513.002 1917C554.571 1887.49 588.879 1879.07 608.346 1893.6ZM1955.66 1938.91C1980.39 1965.5 2019.8 1975.55 2065.23 1966.86C2205.25 1940.07 2281.37 2007.05 2287.16 2162.15C2290.36 2247.5 2309.81 2281.76 2357.74 2286.49C2411.2 2291.76 2440.75 2220.51 2393.74 2199.72C2372.74 2190.43 2351.64 2207.93 2364.05 2224.35C2367.57 2228.99 2367.76 2228.67 2368.36 2217.32C2369.22 2201.09 2395.16 2211.11 2395.16 2227.67C2395.16 2253.48 2364.85 2265.23 2344.86 2247.17C2305.55 2211.66 2352.28 2146.66 2400.39 2169.94C2433.34 2185.89 2456.18 2231.61 2443.27 2255.76C2439.98 2261.91 2439.91 2261.76 2439.82 2248.87C2439.74 2235.44 2433.87 2220.24 2426.37 2214.01C2421.82 2210.24 2421.82 2210.26 2427.35 2224.81C2447.78 2278.56 2379.25 2327.65 2327.32 2296.47C2287.05 2272.29 2274.69 2241.58 2271.09 2156.82C2268.06 2085.37 2265.09 2084.46 2264.48 2154.8C2263.78 2236.7 2268.52 2255.89 2296 2282.47C2303.21 2289.44 2306.41 2293.65 2303.2 2291.98C2266.91 2272.95 2252.71 2235.24 2252.61 2157.55C2252.44 2028.01 2196.08 1973.68 2072.58 1984.01C2006.12 1989.57 1963.41 1972.67 1943.63 1932.99C1935.64 1916.96 1935.63 1907.91 1943.62 1921.95C1946.85 1927.64 1952.28 1935.27 1955.66 1938.91ZM2155.2 1925.73C2171.87 1940.36 2172.19 1941.77 2158.03 1937.93C2147.73 1935.13 2111.38 1934.47 2102.48 1936.9C2097.75 1938.2 2097.69 1938.09 2101.61 1934.94C2103.9 1933.09 2112.96 1930.86 2121.73 1929.98C2141.96 1927.95 2142.48 1924.25 2122.55 1924.25C2098.07 1924.25 2108.54 1916.87 2138.48 1913.01C2139.55 1912.87 2147.08 1918.6 2155.2 1925.73ZM842.687 1972.65C828.524 1988.3 808.046 2013.89 809.689 2013.89C811.107 2013.89 847.179 1973.21 853.002 1965.05C860.416 1954.65 856.084 1957.85 842.687 1972.65ZM2012.39 1992.47C2025.21 1995.24 2035.74 1995.58 2064.12 1994.14C2140.71 1990.29 2166.48 1996.97 2198.48 2028.97C2233.95 2064.43 2251.33 2138.71 2236.09 2189.73C2219.39 2245.66 2268.98 2329.09 2329.65 2347.1C2346.73 2352.18 2346.01 2351.77 2342.22 2354.2C2330.1 2361.98 2286.84 2336.61 2263.3 2307.91C2237.1 2275.97 2231.93 2256.58 2229.66 2181.69C2225.65 2049.66 2182.23 2002.4 2064.91 2002.4C2029.48 2002.4 2010.74 1999.23 1995.26 1990.59C1990.78 1988.09 1989.17 1986.71 1991.7 1987.52C1994.23 1988.34 2003.54 1990.57 2012.39 1992.47ZM375.962 2021.09C350.04 2058.36 333.641 2109.89 332.889 2156.4C332.496 2181.12 328.057 2162.13 327.784 2134.57C327.604 2116.02 328.782 2107.2 333.894 2088.93C340.449 2065.47 340.689 2060.58 334.865 2069.56C324.623 2085.36 314.86 2120.23 314.467 2142.46L314.281 2152.96L309.795 2143.77C297.289 2118.14 309.056 2073.91 335.172 2048.36C350.153 2033.7 384.368 2004.75 385.459 2005.8C385.839 2006.16 381.566 2013.04 375.962 2021.09ZM521.747 2028.93C452.711 2061.06 424.286 2114.85 424.626 2212.72C424.899 2291.7 408.207 2326.17 350.705 2365.35C331.112 2378.71 294.301 2390.09 290.514 2383.96C289.736 2382.7 291.16 2381.66 293.682 2381.66C337.934 2381.66 398.237 2321.73 412.107 2263.96C418.203 2238.56 416.573 2229.98 409.924 2252.47C394.178 2305.73 361.227 2341.59 313.216 2357.7C286.641 2366.62 274.076 2367.37 263.587 2360.66C252.106 2353.33 252.665 2352.48 268.239 2353.6C312.517 2356.8 363.67 2324.86 385.752 2280.21C398.996 2253.44 401.751 2241.22 404.32 2197.78C407.342 2146.79 408.373 2139.81 416.014 2118.77C432.186 2074.26 462.095 2046.29 512.363 2028.67C532.375 2021.65 537.101 2021.79 521.747 2028.93ZM1996.81 2038.98C2013.22 2044.48 2043.13 2045.44 2065.42 2041.16C2128.2 2029.12 2169.98 2051.21 2179.21 2101.34C2189.35 2156.34 2130.19 2196.58 2091.05 2161.3C2068.9 2141.34 2068.32 2109.82 2089.85 2096.7C2113.84 2082.07 2140.71 2108.75 2118.5 2125.15L2111.96 2129.97L2105.28 2122.01L2098.61 2114.06V2120.18C2098.61 2153.58 2144.17 2153.19 2151.72 2119.72C2160.06 2082.72 2128.59 2060.46 2078.01 2067.61C2034.53 2073.76 2014.98 2071.37 1991.2 2057.02C1976.02 2047.86 1976.81 2047.07 1994.14 2054.07C2016.97 2063.29 2034.59 2065.01 2067.24 2061.19C2112.99 2055.84 2136.85 2062.08 2150.72 2083.03C2157.59 2093.41 2160.41 2093.31 2156.07 2082.85C2146.26 2059.16 2120.66 2049.4 2074.82 2051.84C2019.31 2054.81 1994.42 2049.93 1974.42 2032.13L1966.42 2025.01L1974.46 2029.61C1978.89 2032.13 1988.94 2036.35 1996.81 2038.98ZM750.93 2039.75C722.738 2072.76 678.08 2084.57 622.708 2073.66C559.935 2061.29 522.739 2083.23 522.712 2132.64C522.692 2179.38 571.582 2199.82 593.997 2162.43C598.749 2154.5 599.681 2153.82 599.694 2158.28C599.781 2178.46 577.485 2193.09 553.559 2188.55C520.329 2182.25 503.205 2149.22 510.699 2105.84L512.483 2095.5L508.09 2103.54C486.294 2143.42 509.082 2196.95 551.217 2204.83L561.785 2206.82L548.994 2205.95C491.698 2202.1 470.208 2113.21 515.597 2067.82C544.255 2039.17 575.096 2032.79 643.4 2041.4C669.056 2044.64 700.376 2044.17 714.665 2040.33C730.338 2036.12 731.283 2036.16 723.004 2040.64C700.735 2052.7 693.847 2053.69 630.535 2053.91L570.544 2054.12L554.837 2062.17C535.357 2072.15 532.049 2078.23 550.691 2069.8C568.214 2061.88 594.23 2060.39 627.6 2065.4C684.037 2073.86 714.984 2066.72 746.178 2038.01C761.146 2024.24 763.462 2025.08 750.93 2039.75ZM2326.01 2095.08C2333.76 2106 2337.44 2136.3 2332.97 2152.38C2329.14 2166.17 2326.97 2162.52 2325.47 2139.74C2322.58 2096.14 2318.06 2097.27 2316.27 2142.04C2314.27 2191.89 2310.64 2201.25 2310.34 2157.28C2310.08 2119.53 2305.74 2088.08 2298.52 2071.77C2296.04 2066.16 2294.01 2061.05 2294.01 2060.39C2294.01 2058.92 2321.51 2088.74 2326.01 2095.08ZM284.611 2094.9C283.433 2099 282.468 2108.59 282.468 2116.2V2130.04L263.094 2130.01C244.133 2129.97 243.801 2129.88 247.581 2125.51C251.627 2120.84 285.616 2087.45 286.335 2087.45C286.561 2087.45 285.782 2090.81 284.611 2094.9ZM2055.25 2099.02C2049.76 2103.58 2042 2104.63 2032.51 2102.09C2023.06 2099.56 2027.15 2096.87 2041.7 2096.05C2049.61 2095.6 2057.11 2095.06 2058.37 2094.86C2059.64 2094.66 2058.23 2096.53 2055.25 2099.02ZM2164.54 2106.33C2168.24 2142.18 2138.41 2166.38 2106.79 2153.17C2095.54 2148.47 2086.39 2132.02 2087.47 2118.46C2088.42 2106.48 2086.57 2105.22 2082.49 2115.07C2075.65 2131.61 2084.98 2153.7 2102.5 2162.41C2138.2 2180.13 2177.11 2149.28 2169.63 2109.18C2166.6 2092.99 2162.96 2090.94 2164.54 2106.33ZM610.303 2103.33C656.324 2124.22 648.631 2197.55 597.811 2222.37C539.337 2250.95 468.351 2196.67 477.056 2130.05L478.867 2116.18L480.384 2136.87C484.943 2198.98 532.269 2235.94 584.833 2218.45C638.628 2200.55 650.042 2130.83 601.95 2113.86C583.069 2107.19 566.231 2114.07 558.351 2131.66C553.393 2142.74 550.698 2137.97 554.944 2125.62C562.824 2102.72 587.275 2092.87 610.303 2103.33ZM698.14 2111.93C689.754 2123.7 670.347 2139.24 668.963 2135.28C668.483 2133.9 670.034 2131.71 672.41 2130.39C677.861 2127.38 689.375 2115.22 689.375 2112.49C689.375 2111.36 683.425 2110.33 676.157 2110.2C658.993 2109.9 666.247 2107.63 703.89 2101.55C704.915 2101.38 702.326 2106.05 698.14 2111.93ZM2213.76 2175.94C2216.76 2280.63 2237.75 2324.24 2304.28 2364.01C2323.38 2375.44 2319.19 2378.99 2299.73 2367.86C2227.81 2326.71 2205.96 2280.1 2205.67 2167.18C2205.44 2076.56 2211.09 2082.67 2213.76 2175.94ZM2052.62 2107.15C2052.62 2112.68 2045.36 2115.31 2039.92 2111.75C2032.2 2106.7 2032.71 2105.84 2043.43 2105.84C2048.49 2105.84 2052.62 2106.43 2052.62 2107.15ZM683.511 2114.91C682.313 2116.11 677.189 2118.81 672.137 2120.9C660.903 2125.55 663.079 2122.7 675.012 2117.13C685.282 2112.33 686.386 2112.05 683.511 2114.91ZM452.745 2134.76C451.393 2142.08 450.255 2168.81 450.209 2194.18C450.136 2236.46 446.608 2273.49 442.229 2277.86C437.537 2282.56 442.582 2150.28 447.686 2134.92C453.876 2116.28 456.179 2116.2 452.745 2134.76ZM2367.16 2131.21L2379.39 2142.62H2369.88C2364.65 2142.62 2358.46 2143.63 2356.13 2144.88C2352.26 2146.96 2351.82 2145.96 2351.11 2133.39C2350.16 2116.66 2351.38 2116.49 2367.16 2131.21ZM2183.49 2250.83C2184.91 2257.46 2188.1 2267.62 2190.58 2273.43L2195.08 2283.97L2183.57 2271.34C2163.69 2249.49 2152.62 2218.75 2157.17 2198.02C2159.64 2186.79 2162.97 2189.67 2162.97 2203.04C2162.97 2218.18 2168.59 2240.27 2174.76 2249.45C2179.18 2256.01 2179.36 2256.08 2178.2 2250.65C2174.07 2231.31 2171.93 2209.58 2173.27 2200.37C2176.57 2177.42 2177.91 2179.19 2179.38 2208.52C2180.22 2225.17 2182.07 2244.21 2183.49 2250.83ZM2138.03 2201.8C2136.87 2204.01 2136.19 2208.93 2136.53 2212.72L2137.14 2219.62L2127.57 2210.42L2117.99 2201.23L2124.97 2199.81C2138.27 2197.09 2140.34 2197.41 2138.03 2201.8ZM2518.44 2226.65L2526.16 2234.84L2496.49 2266.3C2432.1 2334.6 2336.33 2423.31 2311.25 2437.9L2304.36 2441.91L2311.19 2436.5C2348.05 2407.36 2402.66 2353.92 2399.17 2350.42C2397.45 2348.71 2335.08 2400.42 2308.22 2425.84C2300.23 2433.39 2293.17 2439.06 2292.54 2438.43C2290.55 2436.43 2296.58 2429.16 2309.88 2417.54C2356.2 2377.05 2406.82 2327.13 2470.37 2259.27C2491.39 2236.83 2509.06 2218.47 2509.65 2218.47C2510.23 2218.47 2514.18 2222.15 2518.44 2226.65ZM129.389 2236.78C181.86 2317.88 316.45 2456.57 373.852 2488.69C388.494 2496.88 388.581 2497.5 375.729 2502.4L365.533 2506.29L352.788 2499.01C335.092 2488.88 334.499 2486.1 351.777 2494.27C374.598 2505.07 371.995 2499.03 344.542 2477.45C321.056 2459.01 289.556 2432.53 273.763 2417.97C265.816 2410.64 258.096 2404.65 256.612 2404.65C255.121 2404.65 249.491 2400.32 244.1 2395.03C226.889 2378.14 230.923 2387.34 249.983 2408.43C270.761 2431.44 299.685 2458.37 320.976 2474.52C336.536 2486.33 339.577 2490.12 328.197 2483.5C294.727 2464.06 189.234 2355.47 138.54 2288.26C107.273 2246.81 105.616 2243.16 112.245 2230.17C118.281 2218.33 117.176 2217.91 129.389 2236.78ZM2156.3 2276.39C2237.52 2364.12 2265.46 2393.97 2270.72 2398.69C2273.42 2401.09 2275.58 2404.71 2275.54 2406.73C2275.48 2409.88 2275.05 2409.82 2272.37 2406.3C2270.67 2404.06 2253.28 2385.44 2233.75 2364.94C2214.21 2344.43 2194.17 2322.99 2189.22 2317.3C2184.27 2311.61 2178.63 2305.41 2176.7 2303.51C2171.84 2298.75 2131.13 2253.38 2122.99 2243.65C2119.33 2239.28 2113.18 2232.34 2109.32 2228.24C2105.46 2224.12 2102.87 2220.76 2103.55 2220.76C2104.24 2220.76 2127.98 2245.8 2156.3 2276.39ZM2339.5 2226.54C2340.79 2229.08 2344.29 2233.21 2347.25 2235.72C2352.44 2240.11 2352.43 2240.03 2346.92 2233.39C2337.77 2222.37 2336.99 2221.66 2339.5 2226.54ZM507.584 2270.61C507.917 2297.32 493.089 2344.32 481.223 2354.17C479.519 2355.58 481.09 2351.23 484.703 2344.49C497.462 2320.74 501.947 2300.91 501.981 2268.15C502.014 2241.92 502.327 2239.55 504.709 2247.46C506.193 2252.37 507.491 2262.79 507.584 2270.61ZM633.044 2249.33C631.786 2251.14 622.535 2263.22 612.486 2276.18C602.436 2289.14 595.375 2299.03 596.792 2298.15C600.632 2295.78 639.067 2246.05 637.057 2246.05C636.105 2246.05 634.302 2247.53 633.044 2249.33ZM531.138 2279.25C531.697 2328.62 496.21 2376.55 436.499 2407.1C427.015 2411.95 414.603 2418.7 408.913 2422.1C394.377 2430.79 399.688 2425.88 423.854 2408.27C503.451 2350.26 522.16 2324.68 525.64 2269.15C527.171 2244.74 530.825 2251.45 531.138 2279.25ZM2549.79 2258.11C2559.74 2268.67 2576.45 2291.58 2581.72 2301.91L2586.18 2310.64L2580 2318C2576.59 2322.04 2563.06 2336.65 2549.92 2350.46L2526.02 2375.57L2514.6 2364.32L2503.18 2353.08L2516.99 2339.15C2532.93 2323.07 2532.64 2324.01 2524.78 2313.7C2516.88 2303.35 2518.77 2302.38 2493.36 2329.71L2471.14 2353.6L2490.57 2374.24L2510.01 2394.89L2504.11 2401.25L2498.21 2407.62L2474.12 2383.72C2439.98 2349.86 2439.17 2357.28 2481.7 2314.58L2518.15 2277.99L2529.25 2289.96C2547.37 2309.49 2548.06 2311.04 2543.6 2322.17C2538.31 2335.39 2540.7 2335.91 2552.68 2324.16C2569.37 2307.78 2569.39 2307.88 2544.69 2278.64C2530.85 2262.23 2530.58 2261.67 2534.14 2256.22C2538.96 2248.88 2541.36 2249.18 2549.79 2258.11ZM574.377 2271.76C566.497 2281 559.409 2289.29 558.624 2290.17C557.832 2291.04 557.047 2284.58 556.867 2275.8C556.554 2260.04 556.627 2259.84 562.617 2259.66C565.952 2259.56 572.82 2258.19 577.878 2256.61C590.55 2252.64 590.51 2252.82 574.377 2271.76ZM467.506 2293C457.643 2347.09 423.934 2393.74 377.133 2418.09C353.474 2430.39 350.499 2430.28 370.884 2417.85C415.089 2390.9 446.968 2344.23 461.104 2285.78C468.81 2253.9 469.483 2252.28 470.474 2263.12C470.934 2268.09 469.596 2281.54 467.506 2293ZM113.882 2293.74C137.435 2327.71 183.038 2381.13 223.761 2422.46C239.015 2437.95 251.042 2450.62 250.476 2450.62C246.476 2450.62 211.908 2420.74 193.034 2400.99C180.475 2387.83 169.62 2377.07 168.915 2377.07C163.611 2377.07 187.27 2414.25 205.08 2433.9C214.291 2444.06 215.322 2445.86 209.685 2441.91C194.052 2430.94 173.314 2405.41 161.78 2382.93C155.458 2370.62 149.468 2360.03 148.47 2359.42C144.017 2356.66 154.313 2389.44 164.482 2410.4L172.289 2426.49L164.09 2417.29C153.634 2405.57 142.107 2381.74 133.808 2354.69C130.228 2343.02 126.401 2333.45 125.303 2333.43C121.975 2333.37 126.248 2362.99 132.197 2381.22C139.332 2403.08 137.968 2404.55 129.043 2384.59C120.098 2364.59 112.93 2340.39 110.96 2323.56C107.493 2293.97 101.896 2311.99 103.726 2346.83C108.911 2445.59 208.108 2528.06 302.873 2512.41C316.896 2510.1 319.299 2510.29 327.345 2514.42L336.263 2519L323.738 2521.75C197.307 2549.51 67.7207 2418.5 93.6698 2289.15C97.5632 2269.71 97.1505 2269.62 113.882 2293.74ZM421.571 2305.75C405.998 2351.54 363.31 2392.58 317.528 2405.77C305.768 2409.15 313.682 2402.91 331.445 2394.79C367.749 2378.2 400.627 2344.17 418.297 2304.91C427.907 2283.55 429.025 2283.84 421.571 2305.75ZM2329.65 2314.63C2341.67 2319.07 2350.24 2320.59 2363.59 2320.66C2378.46 2320.74 2380.79 2321.24 2377.52 2323.63C2367.55 2330.92 2330.48 2323.79 2312.66 2311.16C2308.1 2307.91 2306.43 2306.04 2308.95 2306.98C2311.48 2307.92 2320.79 2311.36 2329.65 2314.63ZM2591.95 2363.47C2583.11 2410.36 2537.04 2468.24 2485.97 2496.63L2476.78 2501.74L2484.82 2495.15C2538.84 2450.87 2572.18 2409.53 2572.18 2386.81C2572.18 2381.63 2570.2 2382.92 2553.2 2399.16C2542.77 2409.13 2522.34 2427.22 2507.8 2439.36C2493.27 2451.49 2465.45 2475.56 2445.98 2492.85C2426.52 2510.14 2410 2523.68 2409.26 2522.95C2408.53 2522.22 2415.66 2514.76 2425.11 2506.38C2451.54 2482.94 2549.36 2385.52 2571.67 2360.43C2594.92 2334.27 2597.4 2334.64 2591.95 2363.47ZM2474.37 2425.45C2468.08 2432.4 2465.37 2431.17 2445.63 2412.31L2427.18 2394.69L2418.64 2402.73C2394.28 2425.7 2386.56 2429.42 2404.86 2409.36C2421.79 2390.81 2425.04 2385.76 2417.25 2390.12C2410.63 2393.82 2358.38 2444.05 2358.38 2446.7C2358.38 2448.16 2364.79 2455.81 2372.62 2463.71C2380.45 2471.61 2386.28 2478.66 2385.56 2479.38C2383.83 2481.11 2353.78 2448.55 2353.78 2444.95C2353.78 2442.42 2381.27 2414.6 2415.85 2382.11L2428.5 2370.23L2453.47 2395.6C2477.72 2420.24 2478.32 2421.09 2474.37 2425.45ZM2441.14 2399.81C2441.14 2403.83 2466.47 2427.88 2469.03 2426.29C2470.44 2425.43 2468.76 2422.04 2464.9 2417.98C2455.21 2407.78 2441.14 2397.02 2441.14 2399.81ZM2434.19 2440.23C2439.75 2445.89 2443.85 2450.84 2443.3 2451.22C2442.74 2451.6 2436.6 2456.6 2429.65 2462.32C2404.15 2483.3 2399.09 2485.74 2417.62 2468.13C2437.53 2449.21 2438.2 2447.24 2426.82 2441.14C2423.23 2439.22 2420.2 2440.74 2409.64 2449.77C2395.11 2462.17 2396.31 2456.76 2411.81 2439.94C2423.07 2427.72 2421.9 2427.71 2434.19 2440.23ZM2335.58 2471.32C2341.17 2476.39 2354.22 2486.48 2364.59 2493.74C2385.14 2508.13 2386.04 2509.23 2378.76 2511.13C2371.94 2512.91 2351.77 2499.6 2333.33 2481.16C2319.74 2467.57 2318.01 2463.53 2325.23 2462.15C2325.33 2462.13 2329.99 2466.26 2335.58 2471.32Z" fill="black"/>
</svg>
