<svg width="166" height="164" viewBox="0 0 166 164" fill="none" xmlns="http://www.w3.org/2000/svg">
<rect x="129.231" y="1" width="34.516" height="161.048" rx="17.258" stroke="black" stroke-opacity="0.5" stroke-width="2"/>
<rect x="163.747" y="1" width="35.3652" height="162.747" rx="17.6826" transform="rotate(90 163.747 1)" stroke="black" stroke-opacity="0.5" stroke-width="2"/>
<circle cx="82.7978" cy="59.02" r="18.9563" stroke="black" stroke-opacity="0.5" stroke-width="2"/>
<path d="M82.7979 81.6749C93.5404 81.6749 104.178 83.7804 114.103 87.8702C124.027 91.96 133.044 97.9545 140.64 105.511C148.235 113.067 154.26 122.037 158.37 131.909C160.125 136.123 161.516 140.467 162.534 144.893C164.649 154.086 156.825 162.048 147.059 162.048H146.389C137.12 162.048 129.693 154.215 125.963 145.256C123.614 139.616 120.173 134.49 115.834 130.174C111.495 125.857 106.344 122.434 100.676 120.098C95.0076 117.762 88.9327 116.56 82.7979 116.56C76.663 116.56 70.5881 117.762 64.9199 120.098C59.2517 122.434 54.1005 125.857 49.7617 130.174C45.423 134.49 41.9813 139.616 39.6328 145.256C35.9027 154.215 28.4756 162.048 19.207 162.048H18.5371C8.77068 162.048 0.946574 154.086 3.06152 144.893C4.07971 140.467 5.47104 136.123 7.22559 131.909C11.3358 122.037 17.3609 113.067 24.9561 105.511C32.5513 97.9545 41.5688 91.96 51.4932 87.8702C61.4177 83.7804 72.0553 81.6749 82.7979 81.6749Z" stroke="black" stroke-opacity="0.5" stroke-width="2"/>
</svg>
