<svg width="3232" height="826" viewBox="0 0 3232 826" fill="none" xmlns="http://www.w3.org/2000/svg">
<path d="M487 246C487 265.882 503.118 282 523 282H600C619.882 282 636 298.118 636 318V411C636 430.882 619.882 447 600 447H507C487.118 447 471 430.882 471 411V333C471 313.118 454.882 297 435 297H358C338.118 297 322 313.118 322 333V411C322 430.882 338.118 447 358 447H380.5C397.897 447 412 461.103 412 478.5C412 495.897 426.103 510 443.5 510H445.5C464.002 510 479 524.998 479 543.5V639C479 658.882 462.882 675 443 675H366C346.118 675 330 691.118 330 711V789C330 808.882 313.882 825 294 825H201C181.118 825 165 808.882 165 789V711C165 691.118 148.882 675 129 675H36C16.1177 675 0 658.882 0 639V546C0 526.118 16.1177 510 36 510H129C148.882 510 165 526.118 165 546V624C165 643.882 181.118 660 201 660H278C297.882 660 314 643.882 314 624V546C314 526.118 297.882 510 278 510H263.5C246.103 510 232 495.897 232 478.5C232 461.103 217.897 447 200.5 447H193C173.118 447 157 430.882 157 411V318C157 298.118 173.118 282 193 282H286C305.882 282 322 265.882 322 246V168C322 148.118 338.118 132 358 132H451C470.882 132 487 148.118 487 168V246Z" fill="white"/>
<path d="M2543.52 246C2543.52 265.882 2559.64 282 2579.52 282H2656.52C2676.41 282 2692.52 298.118 2692.52 318V411C2692.52 430.882 2676.41 447 2656.52 447H2563.52C2543.64 447 2527.52 430.882 2527.52 411V333C2527.52 313.118 2511.41 297 2491.52 297H2414.52C2394.64 297 2378.52 313.118 2378.52 333V411C2378.52 430.882 2394.64 447 2414.52 447H2437.02C2454.42 447 2468.52 461.103 2468.52 478.5C2468.52 495.897 2482.63 510 2500.02 510H2502.02C2520.52 510 2535.52 524.998 2535.52 543.5V639C2535.52 658.882 2519.41 675 2499.52 675H2422.52C2402.64 675 2386.52 691.118 2386.52 711V789C2386.52 808.882 2370.41 825 2350.52 825H2257.52C2237.64 825 2221.52 808.882 2221.52 789V711C2221.52 691.118 2205.41 675 2185.52 675H2092.52C2072.64 675 2056.52 658.882 2056.52 639V546C2056.52 526.118 2072.64 510 2092.52 510H2185.52C2205.41 510 2221.52 526.118 2221.52 546V624C2221.52 643.882 2237.64 660 2257.52 660H2334.52C2354.41 660 2370.52 643.882 2370.52 624V546C2370.52 526.118 2354.41 510 2334.52 510H2320.02C2302.63 510 2288.52 495.897 2288.52 478.5C2288.52 461.103 2274.42 447 2257.02 447H2249.52C2229.64 447 2213.52 430.882 2213.52 411V318C2213.52 298.118 2229.64 282 2249.52 282H2342.52C2362.41 282 2378.52 265.882 2378.52 246V168C2378.52 148.118 2394.64 132 2414.52 132H2507.52C2527.41 132 2543.52 148.118 2543.52 168V246Z" fill="white"/>
<path d="M1450 254C1450 273.882 1466.12 290 1486 290H1525C1541.57 290 1555 303.431 1555 320C1555 336.569 1541.57 350 1525 350H1486C1466.12 350 1450 366.118 1450 386V624C1450 643.882 1466.12 660 1486 660H1496C1515.88 660 1532 643.882 1532 624V570C1532 550.118 1548.12 534 1568 534H1661C1680.88 534 1697 550.118 1697 570V663C1697 682.882 1680.88 699 1661 699H1591C1571.12 699 1555 715.118 1555 735V789C1555 808.882 1538.88 825 1519 825H1426C1406.12 825 1390 808.882 1390 789V696C1390 676.118 1373.88 660 1354 660H1321C1301.12 660 1285 643.882 1285 624V36C1285 16.1178 1301.12 0 1321 0H1414C1433.88 0 1450 16.1177 1450 36V254Z" fill="white"/>
<path d="M2935.52 372C2935.52 391.882 2951.64 408 2971.52 408H3053.52C3073.41 408 3089.52 424.118 3089.52 444V498C3089.52 517.882 3105.64 534 3125.52 534H3195.52C3215.41 534 3231.52 550.118 3231.52 570V789C3231.52 808.882 3215.41 825 3195.52 825H3102.52C3082.64 825 3066.52 808.882 3066.52 789V609C3066.52 589.118 3050.41 573 3030.52 573H2971.52C2951.64 573 2935.52 589.118 2935.52 609V789C2935.52 808.882 2919.41 825 2899.52 825H2806.52C2786.64 825 2770.52 808.882 2770.52 789V36C2770.52 16.1178 2786.64 0 2806.52 0H2899.52C2919.41 0 2935.52 16.1178 2935.52 36V372Z" fill="white"/>
<path d="M1959.26 789.261C1959.26 809.143 1943.14 825.261 1923.26 825.261H1830.26C1810.38 825.261 1794.26 809.143 1794.26 789.261V380.741C1794.26 363.907 1807.91 350.261 1824.74 350.261C1831.71 350.261 1838.47 352.649 1843.89 357.027L1853.68 364.936C1866.63 375.391 1885.06 375.608 1898.25 365.461L1909.71 356.644C1915.09 352.505 1921.69 350.261 1928.48 350.261C1945.48 350.261 1959.26 364.042 1959.26 381.042V789.261Z" fill="white"/>
<path d="M1851.31 123.544C1865.36 109.485 1888.16 109.485 1902.22 123.544L1967.98 189.305C1982.04 203.364 1982.04 226.158 1967.98 240.217L1902.22 305.978C1888.16 320.037 1865.36 320.037 1851.31 305.978L1785.54 240.217C1771.49 226.158 1771.49 203.364 1785.54 189.305L1851.31 123.544Z" fill="white"/>
<path fill-rule="evenodd" clip-rule="evenodd" d="M1044 226C1044 245.882 1060.12 262 1080 262H1171C1190.88 262 1207 278.118 1207 298V406C1207 417.598 1197.6 427 1186 427C1174.4 427 1165 436.402 1165 448V489C1165 500.598 1174.4 510 1186 510C1197.6 510 1207 519.402 1207 531V646C1207 662.016 1194.02 675 1178 675C1161.98 675 1149 687.984 1149 704V789C1149 808.882 1132.88 825 1113 825H855C835.118 825 819 808.882 819 789V735C819 715.118 802.882 699 783 699H750C730.118 699 714 682.882 714 663V570C714 550.118 730.118 534 750 534H799C818.882 534 835 517.882 835 498V463C835 443.118 851.118 427 871 427H1006C1025.88 427 1042 410.882 1042 391V333C1042 313.118 1025.88 297 1006 297H938C918.118 297 902 313.118 902 333V366C902 385.882 885.882 402 866 402H773C753.118 402 737 385.882 737 366V273C737 253.118 753.118 237 773 237H843C862.882 237 879 220.882 879 201V168C879 148.118 895.118 132 915 132H1008C1027.88 132 1044 148.118 1044 168V226ZM879 626C879 644.778 894.222 660 913 660H1008C1026.78 660 1042 644.778 1042 626C1042 607.222 1026.78 592 1008 592H913C894.222 592 879 607.222 879 626Z" fill="white"/>
</svg>
