<svg width="2433" height="742" viewBox="0 0 2433 742" fill="none" xmlns="http://www.w3.org/2000/svg">
<path fill-rule="evenodd" clip-rule="evenodd" d="M2428 134C2428 153.882 2411.88 170 2392 170H2363C2343.12 170 2327 186.118 2327 206V633C2327 652.882 2310.88 669 2291 669H2202C2183.22 669 2168 684.222 2168 703C2168 721.778 2152.78 737 2134 737H2037C2018.22 737 2003 721.778 2003 703C2003 684.222 1987.78 669 1969 669H1880C1860.12 669 1844 652.882 1844 633V434.5C1844 418.208 1857.46 405 1873.75 405C1889.77 405 1903 392.016 1903 376C1903 359.984 1915.98 347 1932 347H1940C1957.12 347 1971 333.121 1971 316C1971 298.879 1957.12 285 1940 285H1912C1892.12 285 1876 268.882 1876 249V156C1876 136.118 1892.12 120 1912 120H2227C2246.88 120 2263 103.882 2263 84V41C2263 21.1177 2279.12 5 2299 5H2428V134ZM2009 536C2009 555.882 2025.12 572 2045 572H2126C2145.88 572 2162 555.882 2162 536V441C2162 421.118 2145.88 405 2126 405H2045C2025.12 405 2009 421.118 2009 441V536ZM2046 316C2046 333.121 2059.88 347 2077 347H2131C2148.12 347 2162 333.121 2162 316C2162 298.879 2148.12 285 2131 285H2077C2059.88 285 2046 298.879 2046 316Z" fill="white" stroke="white" stroke-width="10"/>
<path d="M1718 662C1718 681.882 1701.88 698 1682 698H1589C1569.12 698 1553 681.882 1553 662V569C1553 549.118 1536.88 533 1517 533H1439C1419.12 533 1403 516.882 1403 497V404C1403 384.118 1419.12 368 1439 368H1517C1536.88 368 1553 351.882 1553 332V239C1553 219.118 1569.12 203 1589 203H1682C1701.88 203 1718 219.118 1718 239V332C1718 351.882 1701.88 368 1682 368H1604C1584.12 368 1568 384.118 1568 404V497C1568 516.882 1584.12 533 1604 533H1682C1701.88 533 1718 549.118 1718 569V662Z" fill="white" stroke="white" stroke-width="10"/>
<path d="M1287 343C1305.78 343 1321 358.474 1321 377.252C1321 395.753 1306 411 1287.5 411C1269 411 1254 425.998 1254 444.5V512C1254 531.882 1237.88 548 1218 548H1125C1105.12 548 1089 564.118 1089 584V662C1089 681.882 1072.88 698 1053 698H960C940.118 698 924 681.882 924 662V584C924 564.118 907.882 548 888 548H795C775.118 548 759 531.882 759 512V419C759 399.118 775.118 383 795 383H888C907.882 383 924 399.118 924 419V497C924 516.882 940.118 533 960 533H1053C1072.88 533 1089 516.882 1089 497V447C1089 427.118 1072.88 411 1053 411H1040C1021.22 411 1006 395.778 1006 377C1006 358.222 1021.22 343 1040 343H1287Z" fill="white"/>
<path d="M1254 237C1254 256.882 1237.88 273 1218 273H1125C1105.12 273 1089 256.882 1089 237V144C1089 124.118 1105.12 108 1125 108H1218C1237.88 108 1254 124.118 1254 144V237Z" fill="white"/>
<path d="M1287 343C1305.78 343 1321 358.474 1321 377.252C1321 395.753 1306 411 1287.5 411C1269 411 1254 425.998 1254 444.5V512C1254 531.882 1237.88 548 1218 548H1125C1105.12 548 1089 564.118 1089 584V662C1089 681.882 1072.88 698 1053 698H960C940.118 698 924 681.882 924 662V584C924 564.118 907.882 548 888 548H795C775.118 548 759 531.882 759 512V419C759 399.118 775.118 383 795 383H888C907.882 383 924 399.118 924 419V497C924 516.882 940.118 533 960 533H1053C1072.88 533 1089 516.882 1089 497V447C1089 427.118 1072.88 411 1053 411H1040C1021.22 411 1006 395.778 1006 377C1006 358.222 1021.22 343 1040 343H1287Z" stroke="white" stroke-width="10"/>
<path d="M1254 237C1254 256.882 1237.88 273 1218 273H1125C1105.12 273 1089 256.882 1089 237V144C1089 124.118 1105.12 108 1125 108H1218C1237.88 108 1254 124.118 1254 144V237Z" stroke="white" stroke-width="10"/>
<path fill-rule="evenodd" clip-rule="evenodd" d="M650 213C650 232.882 633.882 249 614 249H536C516.118 249 500 265.118 500 285V347C500 366.882 516.118 383 536 383H614C633.882 383 650 399.118 650 419V512C650 531.882 633.882 548 614 548H536C516.118 548 500 564.118 500 584V662C500 681.882 483.882 698 464 698H371C351.118 698 335 681.882 335 662V584C335 564.118 318.882 548 299 548H206C186.118 548 170 564.118 170 584V662C170 681.882 153.882 698 134 698H41C21.1177 698 5 681.882 5 662V569C5 549.118 21.1177 533 41 533H134C153.882 533 170 516.882 170 497V434C170 414.118 153.882 398 134 398H41C21.1177 398 5 381.882 5 362V269C5 249.118 21.1178 233 41 233H449C468.882 233 485 216.882 485 197V120C485 100.118 501.118 84 521 84H650V213ZM335 497C335 516.882 351.118 533 371 533H449C468.882 533 485 516.882 485 497V434C485 414.118 468.882 398 449 398H371C351.118 398 335 414.118 335 434V497Z" fill="white" stroke="white" stroke-width="10"/>
</svg>
